<svg xmlns="http://www.w3.org/2000/svg" width="26.667" height="20" viewBox="0 0 26.667 20">
  <path id="Icon_awesome-chart-bar" data-name="Icon awesome-chart-bar" d="M17.333,17.833h2A.717.717,0,0,0,20,17.167v-7a.717.717,0,0,0-.667-.667h-2a.717.717,0,0,0-.667.667v7a.717.717,0,0,0,.667.667Zm5,0h2A.717.717,0,0,0,25,17.167v-12a.717.717,0,0,0-.667-.667h-2a.717.717,0,0,0-.667.667v12a.717.717,0,0,0,.667.667Zm-15,0h2A.717.717,0,0,0,10,17.167V13.5a.717.717,0,0,0-.667-.667h-2a.717.717,0,0,0-.667.667v3.667a.717.717,0,0,0,.667.667Zm5,0h2A.717.717,0,0,0,15,17.167V6.833a.717.717,0,0,0-.667-.667h-2a.717.717,0,0,0-.667.667V17.167A.717.717,0,0,0,12.333,17.833Zm13.5,3.333H3.333V5.333A.833.833,0,0,0,2.5,4.5H.833A.833.833,0,0,0,0,5.333v17.5A1.667,1.667,0,0,0,1.667,24.5H25.833a.833.833,0,0,0,.833-.833V22A.833.833,0,0,0,25.833,21.167Z" transform="translate(0 -4.5)" fill="#bfbfbf" opacity="0.576"/>
</svg>
