<svg xmlns="http://www.w3.org/2000/svg" width="10.278" height="11.746" viewBox="0 0 10.278 11.746">
  <path id="Icon_awesome-calendar-alt" data-name="Icon awesome-calendar-alt" d="M0,10.645a1.1,1.1,0,0,0,1.1,1.1H9.177a1.1,1.1,0,0,0,1.1-1.1V4.4H0Zm7.341-4.5a.276.276,0,0,1,.275-.275h.918a.276.276,0,0,1,.275.275v.918a.276.276,0,0,1-.275.275H7.617a.276.276,0,0,1-.275-.275Zm0,2.937a.276.276,0,0,1,.275-.275h.918a.276.276,0,0,1,.275.275V10a.276.276,0,0,1-.275.275H7.617A.276.276,0,0,1,7.341,10ZM4.4,6.148a.276.276,0,0,1,.275-.275H5.6a.276.276,0,0,1,.275.275v.918a.276.276,0,0,1-.275.275H4.68A.276.276,0,0,1,4.4,7.066Zm0,2.937A.276.276,0,0,1,4.68,8.81H5.6a.276.276,0,0,1,.275.275V10a.276.276,0,0,1-.275.275H4.68A.276.276,0,0,1,4.4,10ZM1.468,6.148a.276.276,0,0,1,.275-.275h.918a.276.276,0,0,1,.275.275v.918a.276.276,0,0,1-.275.275H1.744a.276.276,0,0,1-.275-.275Zm0,2.937a.276.276,0,0,1,.275-.275h.918a.276.276,0,0,1,.275.275V10a.276.276,0,0,1-.275.275H1.744A.276.276,0,0,1,1.468,10ZM9.177,1.468h-1.1V.367A.368.368,0,0,0,7.708,0H6.974a.368.368,0,0,0-.367.367v1.1H3.671V.367A.368.368,0,0,0,3.3,0H2.569A.368.368,0,0,0,2.2.367v1.1H1.1A1.1,1.1,0,0,0,0,2.569v1.1H10.278v-1.1A1.1,1.1,0,0,0,9.177,1.468Z" fill="#1e9a7d"/>
</svg>
