<svg xmlns="http://www.w3.org/2000/svg" width="12.314" height="14.546" viewBox="0 0 12.314 14.546">
  <path id="Icon_awesome-paypal" data-name="Icon awesome-paypal" d="M3.576,10.612c-.112.616-.558,3.487-.69,4.3-.01.058-.032.08-.1.08H.4a.39.39,0,0,1-.388-.446L1.889,2.615a.651.651,0,0,1,.642-.542c4.885,0,5.3-.119,6.543.366,1.928.747,2.1,2.55,1.411,4.5C9.8,8.947,8.16,9.81,5.992,9.835c-1.392.022-2.229-.225-2.415.776ZM11.457,6c-.058-.042-.08-.058-.1.042a7.507,7.507,0,0,1-.282,1.078c-1.28,3.65-4.827,3.333-6.559,3.333a.323.323,0,0,0-.35.3c-.725,4.5-.869,5.443-.869,5.443a.342.342,0,0,0,.34.414H5.677a.575.575,0,0,0,.558-.478c.022-.173-.035.2.462-2.929.148-.706.459-.632.94-.632,2.277,0,4.054-.924,4.584-3.6A2.849,2.849,0,0,0,11.457,6Z" transform="translate(-0.006 -2.06)" fill="#1e9a7d"/>
</svg>
