<svg xmlns="http://www.w3.org/2000/svg" width="10.964" height="12.53" viewBox="0 0 10.964 12.53">
  <path id="Icon_awesome-calendar-alt" data-name="Icon awesome-calendar-alt" d="M0,11.356a1.175,1.175,0,0,0,1.175,1.175H9.79a1.175,1.175,0,0,0,1.175-1.175V4.7H0Zm7.832-4.8a.3.3,0,0,1,.294-.294H9.1a.3.3,0,0,1,.294.294v.979a.3.3,0,0,1-.294.294H8.125a.3.3,0,0,1-.294-.294Zm0,3.133A.3.3,0,0,1,8.125,9.4H9.1a.3.3,0,0,1,.294.294v.979a.3.3,0,0,1-.294.294H8.125a.3.3,0,0,1-.294-.294ZM4.7,6.559a.3.3,0,0,1,.294-.294h.979a.3.3,0,0,1,.294.294v.979a.3.3,0,0,1-.294.294H4.993A.3.3,0,0,1,4.7,7.538Zm0,3.133A.3.3,0,0,1,4.993,9.4h.979a.3.3,0,0,1,.294.294v.979a.3.3,0,0,1-.294.294H4.993a.3.3,0,0,1-.294-.294ZM1.566,6.559a.3.3,0,0,1,.294-.294h.979a.3.3,0,0,1,.294.294v.979a.3.3,0,0,1-.294.294H1.86a.3.3,0,0,1-.294-.294Zm0,3.133A.3.3,0,0,1,1.86,9.4h.979a.3.3,0,0,1,.294.294v.979a.3.3,0,0,1-.294.294H1.86a.3.3,0,0,1-.294-.294ZM9.79,1.566H8.615V.392A.393.393,0,0,0,8.223,0H7.44a.393.393,0,0,0-.392.392V1.566H3.916V.392A.393.393,0,0,0,3.524,0H2.741a.393.393,0,0,0-.392.392V1.566H1.175A1.175,1.175,0,0,0,0,2.741V3.916H10.964V2.741A1.175,1.175,0,0,0,9.79,1.566Z" fill="#f9f9f9"/>
</svg>
