<svg xmlns="http://www.w3.org/2000/svg" width="17.724" height="17.724" viewBox="0 0 17.724 17.724">
  <path id="bank" d="M14.981,15.349H12.773m2.208-8.83H12.773m-8.83,8.83H2.472v1.1M2.1,5.415v1.1h1.84m11.038,0h1.84v-1.1L9.462,1,2.1,5.415H16.821m0,0-8.462,1.1H6.151m6.623,8.83V6.519m2.208,0v8.83M8.358,6.519v8.83M3.943,6.519v8.83m6.623-8.83h2.208m-4.415,0h2.208m5.887,9.934v-1.1H14.981m1.472,1.1H2.472m8.094-1.1h2.208m-10.3,1.1H1v1.472H17.924V16.453H16.453M3.943,6.519H6.151m4.415,8.83V6.519m-4.415,8.83H3.943m2.208,0V6.519m4.415,8.83H8.358m-2.208,0H8.358" transform="translate(-0.6 -0.6)" fill="none" stroke="#1e9a7d" stroke-linejoin="round" stroke-width="0.8"/>
</svg>
