<svg xmlns="http://www.w3.org/2000/svg" width="58.752" height="56.497" viewBox="0 0 58.752 56.497">
  <g id="Group_2442" data-name="Group 2442" transform="translate(-1335.416 -461.751)">
    <path id="Path_3100" data-name="Path 3100" d="M0,0H37V24s-10.415,5.6-19.665,5.6S0,24,0,24Z" transform="translate(1347 476)" fill="#56b39d"/>
    <path id="Path_3099" data-name="Path 3099" d="M567.525,110.05h-.141a16.071,16.071,0,0,0-13.417,7.345,16.071,16.071,0,0,0-13.417-7.345h-.141a15.971,15.971,0,0,0-15.819,15.961c0,5.225,2.289,12.639,6.751,18.74,8.5,11.625,22.626,21.8,22.626,21.8s14.124-10.169,22.624-21.8c4.464-6.1,6.751-13.515,6.751-18.74a15.971,15.971,0,0,0-15.817-15.961Zm-2.016,35.6a3.166,3.166,0,0,1-2.944-2.033h-3.352a1.06,1.06,0,0,1-1-.722l-1.03-3.1-3.258,11.384a1.054,1.054,0,0,1-1.011.761h-.066a1.041,1.041,0,0,1-.977-.872l-3.358-20.195-2.454,11.95a1.047,1.047,0,0,1-1.017.795h-4.722a1.05,1.05,0,1,1,0-2.1h3.895l3.476-16.067a1.054,1.054,0,0,1,2.067.086l3.429,20.6,2.92-10.186a1.033,1.033,0,0,1,.983-.752h.021a1.048,1.048,0,0,1,1,.722l1.862,5.6h2.552a3.149,3.149,0,1,1,2.991,4.134Z" transform="translate(810.826 351.701)" fill="#646184"/>
  </g>
</svg>
