<svg xmlns="http://www.w3.org/2000/svg" width="33.461" height="27.248" viewBox="0 0 33.461 27.248">
  <g id="Group_2102" data-name="Group 2102" transform="translate(0.716 -3278.416)">
    <path id="Path_1743" data-name="Path 1743" d="M31.827,3288.653c-1.1-1.608-2.689-1.637-4.381-1.356a3.389,3.389,0,0,1-.766-.032c-1.865-4.966-4.851-8.706-10.38-8.845-5.889-.149-9.02,3.731-10.982,8.931-4.618-.5-7.132,2.073-5.571,5.833.691,1.663,2.319,2.944,3.557,4.368.51.587,1.264,1,1.651,1.649,5.176,8.65,16.953,8.61,22.184-.079a10.147,10.147,0,0,1,1.489-1.517,25.415,25.415,0,0,0,3.383-3.7A4.613,4.613,0,0,0,31.827,3288.653Zm-27.155,3.36a20.169,20.169,0,0,1-1.391,3.278,16.624,16.624,0,0,1-1.547-3.566,3.136,3.136,0,0,1,.9-2.215,1.818,1.818,0,0,1,1.732.293A3.268,3.268,0,0,1,4.672,3292.013Zm19.121,7.747a9.563,9.563,0,0,1-8,3.646,9.272,9.272,0,0,1-7.389-3.484c-1.66-1.973-1.683-3.546-.207-5.61a2.2,2.2,0,0,0,.558-1.294c-.47-3.579,1.619-5.673,5.059-4.711a7.462,7.462,0,0,0,4.406.012c3.414-.983,5.483,1.078,5.085,4.687a2.292,2.292,0,0,0,.556,1.316C25.311,3296.384,25.353,3297.809,23.793,3299.76Zm6.555-8.4A21.485,21.485,0,0,1,29,3294.889l-.562-.261a16.418,16.418,0,0,1-1.141-2.854,2.608,2.608,0,0,1,.432-2,1.8,1.8,0,0,1,1.77-.228A2.226,2.226,0,0,1,30.348,3291.362Z" fill="#dadada"/>
    <path id="Path_1744" data-name="Path 1744" d="M13.828,3295.013c.058.212.117.423.175.634H18.03l.231-.476a5.615,5.615,0,0,0-1.977-.854A8.91,8.91,0,0,0,13.828,3295.013Z" fill="#dadada"/>
    <path id="Path_1745" data-name="Path 1745" d="M12.727,3290.453a1.1,1.1,0,1,0,1.1,1.1A1.1,1.1,0,0,0,12.727,3290.453Z" fill="#dadada"/>
    <path id="Path_1746" data-name="Path 1746" d="M19.363,3290.453a1.1,1.1,0,1,0,1.1,1.1A1.1,1.1,0,0,0,19.363,3290.453Z" fill="#dadada"/>
  </g>
</svg>
