<svg xmlns="http://www.w3.org/2000/svg" width="31.632" height="31.632" viewBox="0 0 31.632 31.632">
  <g id="Icon_feather-settings" data-name="Icon feather-settings" transform="translate(0)">
    <path id="Path_1788" data-name="Path 1788" d="M21.309,17.4a3.9,3.9,0,1,1-3.9-3.9A3.9,3.9,0,0,1,21.309,17.4Z" transform="translate(-1.588 -1.588)" fill="none" stroke="#dadada" stroke-linecap="round" stroke-linejoin="round" stroke-width="3"/>
    <path id="Path_1789" data-name="Path 1789" d="M25.447,19.72a2.147,2.147,0,0,0,.429,2.369l.078.078a2.6,2.6,0,1,1-3.683,3.683l-.078-.078a2.165,2.165,0,0,0-3.67,1.536v.221a2.6,2.6,0,1,1-5.206,0v-.117a2.147,2.147,0,0,0-1.406-1.965,2.147,2.147,0,0,0-2.369.429l-.078.078a2.6,2.6,0,1,1-3.683-3.683l.078-.078a2.165,2.165,0,0,0-1.536-3.67H4.1a2.6,2.6,0,0,1,0-5.206H4.22a2.147,2.147,0,0,0,1.965-1.406,2.147,2.147,0,0,0-.429-2.369l-.078-.078A2.6,2.6,0,1,1,9.361,5.782l.078.078a2.147,2.147,0,0,0,2.369.429h.1a2.147,2.147,0,0,0,1.3-1.965V4.1a2.6,2.6,0,0,1,5.206,0V4.22a2.165,2.165,0,0,0,3.67,1.536l.078-.078A2.6,2.6,0,1,1,25.85,9.361l-.078.078a2.147,2.147,0,0,0-.429,2.369v.1a2.147,2.147,0,0,0,1.965,1.3h.221a2.6,2.6,0,0,1,0,5.206h-.117a2.147,2.147,0,0,0-1.965,1.3Z" fill="none" stroke="#dadada" stroke-linecap="round" stroke-linejoin="round" stroke-width="3"/>
  </g>
</svg>
