<svg xmlns="http://www.w3.org/2000/svg" width="147" height="165.391" viewBox="0 0 147 165.391">
  <g id="Group_2462" data-name="Group 2462" transform="translate(-1465 -5344.609)">
    <g id="Path_1747" data-name="Path 1747" transform="translate(1465 5361)" fill="#1e9a7d">
      <path d="M 73.5 146 C 63.71212005615234 146 54.21755981445313 144.0832672119141 45.2800407409668 140.3029937744141 C 40.98434066772461 138.4860534667969 36.84104156494141 136.2371673583984 32.96525955200195 133.6187133789063 C 29.12603950500488 131.0249938964844 25.51577949523926 128.0462646484375 22.23476028442383 124.7652435302734 C 18.95373916625977 121.4842224121094 15.97500038146973 117.8739624023438 13.38127994537354 114.0347366333008 C 10.76284027099609 110.1589584350586 8.51393985748291 106.0156631469727 6.697000026702881 101.7199630737305 C 2.916739940643311 92.78244018554688 1 83.28787994384766 1 73.5 C 1 63.71212005615234 2.916739940643311 54.21755981445313 6.697000026702881 45.2800407409668 C 8.51393985748291 40.98434066772461 10.76284027099609 36.84104156494141 13.38127994537354 32.96525955200195 C 15.97500038146973 29.12603950500488 18.95373916625977 25.51577949523926 22.23476028442383 22.23476028442383 C 25.51577949523926 18.95373916625977 29.12603950500488 15.97500038146973 32.96525955200195 13.38127994537354 C 36.84104156494141 10.76284027099609 40.98434066772461 8.51393985748291 45.2800407409668 6.697000026702881 C 54.21755981445313 2.916739940643311 63.71212005615234 1 73.5 1 C 83.28787994384766 1 92.78244018554688 2.916739940643311 101.7199630737305 6.697000026702881 C 106.0156631469727 8.51393985748291 110.1589584350586 10.76284027099609 114.0347366333008 13.38127994537354 C 117.8739624023438 15.97500038146973 121.4842224121094 18.95373916625977 124.7652435302734 22.23476028442383 C 128.0462646484375 25.51577949523926 131.0249938964844 29.12603950500488 133.6187133789063 32.96525955200195 C 136.2371673583984 36.84104156494141 138.4860534667969 40.98434066772461 140.3029937744141 45.2800407409668 C 144.0832672119141 54.21755981445313 146 63.71212005615234 146 73.5 C 146 80.76614379882813 144.9258270263672 87.93678283691406 142.8072967529297 94.81275939941406 C 140.7500457763672 101.4899597167969 137.7147827148438 107.8735809326172 133.7858581542969 113.7862777709961 C 127.3580169677734 123.4607162475586 118.5404815673828 131.5370635986328 108.2864990234375 137.1421966552734 C 103.0681228637695 139.9947204589844 97.50669860839844 142.1960144042969 91.75672149658203 143.6849365234375 C 85.82430267333984 145.2210998535156 79.68186187744141 146 73.5 146 Z" stroke="none"/>
      <path d="M 73.5 2 C 63.8466796875 2 54.48317718505859 3.890167236328125 45.66960144042969 7.617996215820313 C 41.43335723876953 9.409774780273438 37.34734344482422 11.62762451171875 33.52506256103516 14.20989990234375 C 29.73860168457031 16.76797485351563 26.17787933349609 19.70584106445313 22.94185638427734 22.94185638427734 C 19.70584106445313 26.17787933349609 16.76797485351563 29.73860168457031 14.20989990234375 33.52506256103516 C 11.62762451171875 37.34734344482422 9.409774780273438 41.43335723876953 7.617996215820313 45.66960144042969 C 3.890167236328125 54.48317718505859 2 63.8466796875 2 73.5 C 2 83.1533203125 3.890167236328125 92.51681518554688 7.617996215820313 101.3303985595703 C 9.409774780273438 105.5666351318359 11.62762451171875 109.6526641845703 14.20989990234375 113.4749450683594 C 16.76797485351563 117.2613983154297 19.70584106445313 120.8221206665039 22.94185638427734 124.0581359863281 C 26.17787933349609 127.2941589355469 29.73860168457031 130.2320251464844 33.52506256103516 132.7901000976563 C 37.34734344482422 135.3723754882813 41.43335723876953 137.5902252197266 45.66960144042969 139.3820037841797 C 54.48317718505859 143.1098327636719 63.8466796875 145 73.5 145 C 79.59734344482422 145 85.65544128417969 144.2318420410156 91.50604248046875 142.7168579101563 C 97.17631530761719 141.2485809326172 102.6607055664063 139.0777587890625 107.8068389892578 136.2647399902344 C 117.9191207885742 130.737060546875 126.6144790649414 122.7727966308594 132.9529571533203 113.2328414916992 C 136.8287048339844 107.4001617431641 139.8226623535156 101.1036987304688 141.8516387939453 94.51829528808594 C 143.9407348632813 87.73782348632813 145 80.66623687744141 145 73.5 C 145 63.8466796875 143.1098327636719 54.48317718505859 139.3820037841797 45.66960144042969 C 137.5902252197266 41.43335723876953 135.3723754882813 37.34734344482422 132.7901000976563 33.52506256103516 C 130.2320251464844 29.73860168457031 127.2941589355469 26.17787933349609 124.0581359863281 22.94185638427734 C 120.8221206665039 19.70584106445313 117.2613983154297 16.76797485351563 113.4749450683594 14.20989990234375 C 109.6526641845703 11.62762451171875 105.5666351318359 9.409774780273438 101.3303985595703 7.617996215820313 C 92.51681518554688 3.890167236328125 83.1533203125 2 73.5 2 M 73.5 0 C 114.0929183959961 0 147 32.90708160400391 147 73.5 C 147 88.51937866210938 142.4950256347656 102.4865798950195 134.6187438964844 114.3397216796875 C 121.5965805053711 133.9391784667969 99.07353973388672 147 73.5 147 C 32.90708160400391 147 0 114.0929183959961 0 73.5 C 0 32.90708160400391 32.90708160400391 0 73.5 0 Z" stroke="none" fill="#1e9a7d"/>
    </g>
    <g id="Group_2288" data-name="Group 2288" transform="translate(0 -5)">
      <rect id="Rectangle_849" data-name="Rectangle 849" width="86" height="109" rx="6" transform="translate(1496 5406)" fill="#cfe9e3"/>
      <path id="Path_337" data-name="Path 337" d="M497.3,460.749h-23.82a1.906,1.906,0,0,1,0-3.811H497.3a1.906,1.906,0,1,1,0,3.811Z" transform="translate(1069.039 4969.141)" fill="#1e9a7d"/>
      <path id="Path_338" data-name="Path 338" d="M497.3,478.3h-23.82a1.906,1.906,0,1,1,0-3.811H497.3a1.906,1.906,0,1,1,0,3.811Z" transform="translate(1069.039 4961.595)" fill="#1e9a7d"/>
      <path id="Path_339" data-name="Path 339" d="M438.735,472.439H421.327a2.146,2.146,0,0,1-2.144-2.144V449.753a2.146,2.146,0,0,1,2.144-2.144h17.407a2.146,2.146,0,0,1,2.144,2.144v20.542a2.146,2.146,0,0,1-2.144,2.144Z" transform="translate(1091.567 4973.151)" fill="#1e9a7d"/>
      <path id="Path_340" data-name="Path 340" d="M474.376,514.235H420.544a1.906,1.906,0,0,1,0-3.811h53.832a1.906,1.906,0,1,1,0,3.811Z" transform="translate(1091.801 4946.144)" fill="#56b39d"/>
      <path id="Path_341" data-name="Path 341" d="M474.376,531.785H420.544a1.906,1.906,0,0,1,0-3.811h53.833a1.906,1.906,0,1,1,0,3.811Z" transform="translate(1091.801 4938.598)" fill="#56b39d"/>
      <path id="Path_342" data-name="Path 342" d="M474.376,549.335H420.544a1.906,1.906,0,0,1,0-3.811h53.833a1.906,1.906,0,1,1,0,3.811Z" transform="translate(1091.801 4931.052)" fill="#56b39d"/>
      <path id="Path_343" data-name="Path 343" d="M474.376,566.885H420.544a1.906,1.906,0,1,1,0-3.811h53.833a1.906,1.906,0,1,1,0,3.811Z" transform="translate(1091.801 4923.506)" fill="#56b39d"/>
      <path id="Path_344" data-name="Path 344" d="M474.376,584.435H420.544a1.906,1.906,0,1,1,0-3.811h53.833a1.906,1.906,0,1,1,0,3.811Z" transform="translate(1091.801 4915.96)" fill="#56b39d"/>
    </g>
    <g id="Group_2289" data-name="Group 2289">
      <path id="Ellipse_44" data-name="Ellipse 44" d="M18.391,0A18.391,18.391,0,1,1,0,18.391,18.391,18.391,0,0,1,18.391,0Z" transform="translate(1522.293 5344.609)" fill="#476285"/>
      <path id="Path_395" data-name="Path 395" d="M463.789,349.4a1.908,1.908,0,0,1-1.148-.381l-.021-.015L458.3,345.7a1.921,1.921,0,1,1,2.337-3.049l2.8,2.147,6.615-8.63a1.92,1.92,0,0,1,2.692-.356h0l-.041.057.042-.057a1.922,1.922,0,0,1,.355,2.692l-7.781,10.147a1.921,1.921,0,0,1-1.528.749Z" transform="translate(1075.072 5020.617)" fill="#cfe9e3"/>
    </g>
  </g>
</svg>
