<svg xmlns="http://www.w3.org/2000/svg" width="147" height="147" viewBox="0 0 147 147">
  <g id="Group_2458" data-name="Group 2458" transform="translate(-875 -3859)">
    <g id="Path_1747" data-name="Path 1747" transform="translate(875 3859)" fill="#1e9a7d">
      <path d="M 73.5 146 C 63.71212005615234 146 54.21755981445313 144.0832672119141 45.2800407409668 140.3029937744141 C 40.98434066772461 138.4860534667969 36.84104156494141 136.2371673583984 32.96525955200195 133.6187133789063 C 29.12603950500488 131.0249938964844 25.51577949523926 128.0462646484375 22.23476028442383 124.7652435302734 C 18.95373916625977 121.4842224121094 15.97500038146973 117.8739624023438 13.38127994537354 114.0347366333008 C 10.76284027099609 110.1589584350586 8.51393985748291 106.0156631469727 6.697000026702881 101.7199630737305 C 2.916739940643311 92.78244018554688 1 83.28787994384766 1 73.5 C 1 63.71212005615234 2.916739940643311 54.21755981445313 6.697000026702881 45.2800407409668 C 8.51393985748291 40.98434066772461 10.76284027099609 36.84104156494141 13.38127994537354 32.96525955200195 C 15.97500038146973 29.12603950500488 18.95373916625977 25.51577949523926 22.23476028442383 22.23476028442383 C 25.51577949523926 18.95373916625977 29.12603950500488 15.97500038146973 32.96525955200195 13.38127994537354 C 36.84104156494141 10.76284027099609 40.98434066772461 8.51393985748291 45.2800407409668 6.697000026702881 C 54.21755981445313 2.916739940643311 63.71212005615234 1 73.5 1 C 83.28787994384766 1 92.78244018554688 2.916739940643311 101.7199630737305 6.697000026702881 C 106.0156631469727 8.51393985748291 110.1589584350586 10.76284027099609 114.0347366333008 13.38127994537354 C 117.8739624023438 15.97500038146973 121.4842224121094 18.95373916625977 124.7652435302734 22.23476028442383 C 128.0462646484375 25.51577949523926 131.0249938964844 29.12603950500488 133.6187133789063 32.96525955200195 C 136.2371673583984 36.84104156494141 138.4860534667969 40.98434066772461 140.3029937744141 45.2800407409668 C 144.0832672119141 54.21755981445313 146 63.71212005615234 146 73.5 C 146 80.76614379882813 144.9258270263672 87.93678283691406 142.8072967529297 94.81275939941406 C 140.7500457763672 101.4899597167969 137.7147827148438 107.8735809326172 133.7858581542969 113.7862777709961 C 127.3580169677734 123.4607162475586 118.5404815673828 131.5370635986328 108.2864990234375 137.1421966552734 C 103.0681228637695 139.9947204589844 97.50669860839844 142.1960144042969 91.75672149658203 143.6849365234375 C 85.82430267333984 145.2210998535156 79.68186187744141 146 73.5 146 Z" stroke="none"/>
      <path d="M 73.5 2 C 63.8466796875 2 54.48317718505859 3.890167236328125 45.66960144042969 7.617996215820313 C 41.43335723876953 9.409774780273438 37.34734344482422 11.62762451171875 33.52506256103516 14.20989990234375 C 29.73860168457031 16.76797485351563 26.17787933349609 19.70584106445313 22.94185638427734 22.94185638427734 C 19.70584106445313 26.17787933349609 16.76797485351563 29.73860168457031 14.20989990234375 33.52506256103516 C 11.62762451171875 37.34734344482422 9.409774780273438 41.43335723876953 7.617996215820313 45.66960144042969 C 3.890167236328125 54.48317718505859 2 63.8466796875 2 73.5 C 2 83.1533203125 3.890167236328125 92.51681518554688 7.617996215820313 101.3303985595703 C 9.409774780273438 105.5666351318359 11.62762451171875 109.6526641845703 14.20989990234375 113.4749450683594 C 16.76797485351563 117.2613983154297 19.70584106445313 120.8221206665039 22.94185638427734 124.0581359863281 C 26.17787933349609 127.2941589355469 29.73860168457031 130.2320251464844 33.52506256103516 132.7901000976563 C 37.34734344482422 135.3723754882813 41.43335723876953 137.5902252197266 45.66960144042969 139.3820037841797 C 54.48317718505859 143.1098327636719 63.8466796875 145 73.5 145 C 79.59734344482422 145 85.65544128417969 144.2318420410156 91.50604248046875 142.7168579101563 C 97.17631530761719 141.2485809326172 102.6607055664063 139.0777587890625 107.8068389892578 136.2647399902344 C 117.9191207885742 130.737060546875 126.6144790649414 122.7727966308594 132.9529571533203 113.2328414916992 C 136.8287048339844 107.4001617431641 139.8226623535156 101.1036987304688 141.8516387939453 94.51829528808594 C 143.9407348632813 87.73782348632813 145 80.66623687744141 145 73.5 C 145 63.8466796875 143.1098327636719 54.48317718505859 139.3820037841797 45.66960144042969 C 137.5902252197266 41.43335723876953 135.3723754882813 37.34734344482422 132.7901000976563 33.52506256103516 C 130.2320251464844 29.73860168457031 127.2941589355469 26.17787933349609 124.0581359863281 22.94185638427734 C 120.8221206665039 19.70584106445313 117.2613983154297 16.76797485351563 113.4749450683594 14.20989990234375 C 109.6526641845703 11.62762451171875 105.5666351318359 9.409774780273438 101.3303985595703 7.617996215820313 C 92.51681518554688 3.890167236328125 83.1533203125 2 73.5 2 M 73.5 0 C 114.0929183959961 0 147 32.90708160400391 147 73.5 C 147 88.51937866210938 142.4950256347656 102.4865798950195 134.6187438964844 114.3397216796875 C 121.5965805053711 133.9391784667969 99.07353973388672 147 73.5 147 C 32.90708160400391 147 0 114.0929183959961 0 73.5 C 0 32.90708160400391 32.90708160400391 0 73.5 0 Z" stroke="none" fill="#1e9a7d"/>
    </g>
    <g id="Group_2279" data-name="Group 2279" transform="translate(-9.46 -9.908)">
      <g id="Group_2278" data-name="Group 2278" transform="translate(895.958 3878.334)">
        <path id="Path_2427" data-name="Path 2427" d="M494.866,126.495l10.162,31.782,16.008,29.277q-11.88-8.871-36.932-1.934,3.838,9.311,7.68,18.615,4.094,9.926,8.191,19.859c.494,1.2-.371,2.6-1.925,3.115l-5.583,1.845-5.581,1.844c-1.553.514-3.1-.093-3.433-1.345q-2.778-10.362-5.558-20.728l-5.221-19.474q-4.659,1.728-9.686,3.9-17.235-5.031-17.419-9.487-3.1-3.206,5.143-19.155,41.708-17.754,44.155-38.111" transform="translate(-429.24 -106.582)" fill="#3c516c" fill-rule="evenodd"/>
        <path id="Path_2428" data-name="Path 2428" d="M513.827,103.506c11.644-4.991,29.33,10.2,39.5,33.932s8.977,47.016-2.668,52.007-29.331-10.2-39.5-33.933-8.977-47.015,2.668-52.006" transform="translate(-439.249 -102.557)" fill="#476285" fill-rule="evenodd"/>
        <path id="Path_2429" data-name="Path 2429" d="M520.39,110.372c8.945-3.834,23.176,9.343,31.786,29.43s8.338,39.48-.607,43.314-23.176-9.343-31.785-29.431-8.339-39.479.606-43.313" transform="translate(-440.804 -103.76)" fill="#cfe9e3" fill-rule="evenodd"/>
        <path id="Path_2430" data-name="Path 2430" d="M432.883,177.385l1.242-.532,2.8-1.2,10.956-4.7c.759-.325,1.872-.032,1.971.789,1.341,11.149,6.122,19.686,11.8,27.537a1.411,1.411,0,0,1-.789,1.971l-10.956,4.7-2.8,1.2-1.243.533a11.216,11.216,0,0,1-14.683-5.873l-4.175-9.741a11.216,11.216,0,0,1,5.873-14.683" transform="translate(-426.111 -114.036)" fill="#476285" fill-rule="evenodd"/>
        <path id="Path_2431" data-name="Path 2431" d="M521,124.13c6.464-2.771,16.748,6.751,22.97,21.268s6.025,28.53-.438,31.3-16.748-6.751-22.97-21.268-6.025-28.53.438-31.3" transform="translate(-441.229 -106.104)" fill="#cfe9e3" fill-rule="evenodd"/>
        <path id="Path_2432" data-name="Path 2432" d="M517.332,151.413q7.929-2.76,15.859-5.52c1.844-.641,3.859.018,4.481,1.47l3.8,8.864c.621,1.45-.291,3.365-2.027,4.258l-14.8,7.61a83.976,83.976,0,0,1-7.311-16.682" transform="translate(-441.449 -109.802)" fill="#3c516c" fill-rule="evenodd"/>
        <path id="Path_2433" data-name="Path 2433" d="M537.068,145.537c1.842-.789,4.711,1.78,6.408,5.74s1.58,7.81-.262,8.6-4.711-1.78-6.408-5.74-1.58-7.81.262-8.6" transform="translate(-444.521 -109.76)" fill="#476285" fill-rule="evenodd"/>
      </g>
      <path id="Path_2960" data-name="Path 2960" d="M4.345,0A4.345,4.345,0,1,1,0,4.345,4.345,4.345,0,0,1,4.345,0Z" transform="translate(924.143 3889.223)" fill="#3c516c"/>
      <ellipse id="Ellipse_257" data-name="Ellipse 257" cx="3.176" cy="3.176" rx="3.176" ry="3.176" transform="translate(911.292 4009.555)" fill="#3c516c"/>
      <ellipse id="Ellipse_255" data-name="Ellipse 255" cx="2.008" cy="2.008" rx="2.008" ry="2.008" transform="translate(997.744 3988.526)" fill="#3c516c"/>
      <ellipse id="Ellipse_256" data-name="Ellipse 256" cx="2.008" cy="2.008" rx="2.008" ry="2.008" transform="translate(885.59 3921.935)" fill="#3c516c"/>
    </g>
  </g>
</svg>
