<svg xmlns="http://www.w3.org/2000/svg" width="164.823" height="165.432" viewBox="0 0 164.823 165.432">
  <g id="Group_2461" data-name="Group 2461" transform="translate(-875 -2477.92)">
    <g id="Path_1747" data-name="Path 1747" transform="translate(875 2494)" fill="#1e9a7d">
      <path d="M 73.5 146 C 63.71212005615234 146 54.21755981445313 144.0832672119141 45.2800407409668 140.3029937744141 C 40.98434066772461 138.4860534667969 36.84104156494141 136.2371673583984 32.96525955200195 133.6187133789063 C 29.12603950500488 131.0249938964844 25.51577949523926 128.0462646484375 22.23476028442383 124.7652435302734 C 18.95373916625977 121.4842224121094 15.97500038146973 117.8739624023438 13.38127994537354 114.0347366333008 C 10.76284027099609 110.1589584350586 8.51393985748291 106.0156631469727 6.697000026702881 101.7199630737305 C 2.916739940643311 92.78244018554688 1 83.28787994384766 1 73.5 C 1 63.71212005615234 2.916739940643311 54.21755981445313 6.697000026702881 45.2800407409668 C 8.51393985748291 40.98434066772461 10.76284027099609 36.84104156494141 13.38127994537354 32.96525955200195 C 15.97500038146973 29.12603950500488 18.95373916625977 25.51577949523926 22.23476028442383 22.23476028442383 C 25.51577949523926 18.95373916625977 29.12603950500488 15.97500038146973 32.96525955200195 13.38127994537354 C 36.84104156494141 10.76284027099609 40.98434066772461 8.51393985748291 45.2800407409668 6.697000026702881 C 54.21755981445313 2.916739940643311 63.71212005615234 1 73.5 1 C 83.28787994384766 1 92.78244018554688 2.916739940643311 101.7199630737305 6.697000026702881 C 106.0156631469727 8.51393985748291 110.1589584350586 10.76284027099609 114.0347366333008 13.38127994537354 C 117.8739624023438 15.97500038146973 121.4842224121094 18.95373916625977 124.7652435302734 22.23476028442383 C 128.0462646484375 25.51577949523926 131.0249938964844 29.12603950500488 133.6187133789063 32.96525955200195 C 136.2371673583984 36.84104156494141 138.4860534667969 40.98434066772461 140.3029937744141 45.2800407409668 C 144.0832672119141 54.21755981445313 146 63.71212005615234 146 73.5 C 146 80.76614379882813 144.9258270263672 87.93678283691406 142.8072967529297 94.81275939941406 C 140.7500457763672 101.4899597167969 137.7147827148438 107.8735809326172 133.7858581542969 113.7862777709961 C 127.3580169677734 123.4607162475586 118.5404815673828 131.5370635986328 108.2864990234375 137.1421966552734 C 103.0681228637695 139.9947204589844 97.50669860839844 142.1960144042969 91.75672149658203 143.6849365234375 C 85.82430267333984 145.2210998535156 79.68186187744141 146 73.5 146 Z" stroke="none"/>
      <path d="M 73.5 2 C 63.8466796875 2 54.48317718505859 3.890167236328125 45.66960144042969 7.617996215820313 C 41.43335723876953 9.409774780273438 37.34734344482422 11.62762451171875 33.52506256103516 14.20989990234375 C 29.73860168457031 16.76797485351563 26.17787933349609 19.70584106445313 22.94185638427734 22.94185638427734 C 19.70584106445313 26.17787933349609 16.76797485351563 29.73860168457031 14.20989990234375 33.52506256103516 C 11.62762451171875 37.34734344482422 9.409774780273438 41.43335723876953 7.617996215820313 45.66960144042969 C 3.890167236328125 54.48317718505859 2 63.8466796875 2 73.5 C 2 83.1533203125 3.890167236328125 92.51681518554688 7.617996215820313 101.3303985595703 C 9.409774780273438 105.5666351318359 11.62762451171875 109.6526641845703 14.20989990234375 113.4749450683594 C 16.76797485351563 117.2613983154297 19.70584106445313 120.8221206665039 22.94185638427734 124.0581359863281 C 26.17787933349609 127.2941589355469 29.73860168457031 130.2320251464844 33.52506256103516 132.7901000976563 C 37.34734344482422 135.3723754882813 41.43335723876953 137.5902252197266 45.66960144042969 139.3820037841797 C 54.48317718505859 143.1098327636719 63.8466796875 145 73.5 145 C 79.59734344482422 145 85.65544128417969 144.2318420410156 91.50604248046875 142.7168579101563 C 97.17631530761719 141.2485809326172 102.6607055664063 139.0777587890625 107.8068389892578 136.2647399902344 C 117.9191207885742 130.737060546875 126.6144790649414 122.7727966308594 132.9529571533203 113.2328414916992 C 136.8287048339844 107.4001617431641 139.8226623535156 101.1036987304688 141.8516387939453 94.51829528808594 C 143.9407348632813 87.73782348632813 145 80.66623687744141 145 73.5 C 145 63.8466796875 143.1098327636719 54.48317718505859 139.3820037841797 45.66960144042969 C 137.5902252197266 41.43335723876953 135.3723754882813 37.34734344482422 132.7901000976563 33.52506256103516 C 130.2320251464844 29.73860168457031 127.2941589355469 26.17787933349609 124.0581359863281 22.94185638427734 C 120.8221206665039 19.70584106445313 117.2613983154297 16.76797485351563 113.4749450683594 14.20989990234375 C 109.6526641845703 11.62762451171875 105.5666351318359 9.409774780273438 101.3303985595703 7.617996215820313 C 92.51681518554688 3.890167236328125 83.1533203125 2 73.5 2 M 73.5 0 C 114.0929183959961 0 147 32.90708160400391 147 73.5 C 147 88.51937866210938 142.4950256347656 102.4865798950195 134.6187438964844 114.3397216796875 C 121.5965805053711 133.9391784667969 99.07353973388672 147 73.5 147 C 32.90708160400391 147 0 114.0929183959961 0 73.5 C 0 32.90708160400391 32.90708160400391 0 73.5 0 Z" stroke="none" fill="#1e9a7d"/>
    </g>
    <g id="Group_2275" data-name="Group 2275" transform="translate(875 2494)">
      <circle id="Ellipse_244" data-name="Ellipse 244" cx="22.087" cy="22.087" r="22.087" transform="translate(1.626 80.593)" fill="#3f3d56"/>
      <circle id="Ellipse_245" data-name="Ellipse 245" cx="18.995" cy="18.995" r="18.995" transform="translate(4.718 83.685)" fill="#cfe9e3"/>
      <path id="Path_2390" data-name="Path 2390" d="M261.237,525.354v-2.765a6.419,6.419,0,0,1-3.687-1.2l.578-1.834a5.893,5.893,0,0,0,3.47,1.177,2.657,2.657,0,0,0,2.867-2.682c0-1.506-.94-2.436-2.723-3.257-2.458-1.095-3.976-2.354-3.976-4.735a4.3,4.3,0,0,1,3.638-4.407v-2.765H262.9v2.655a5.862,5.862,0,0,1,3.132.958l-.6,1.807a5.325,5.325,0,0,0-3.036-.931,2.313,2.313,0,0,0-2.554,2.354c0,1.423.892,2.135,2.988,3.121,2.482,1.15,3.735,2.573,3.735,5.009a4.581,4.581,0,0,1-3.807,4.653v2.847Z" transform="translate(-238.434 -411.465)" fill="#3f3d56"/>
      <path id="Path_2391" data-name="Path 2391" d="M218.046,738.59a159.478,159.478,0,0,1-47.046,0v-5.3a177.21,177.21,0,0,0,47.046,0Z" transform="translate(-171 -590.982)" fill="#3f3d56"/>
      <path id="Path_2392" data-name="Path 2392" d="M218.046,701.59a159.474,159.474,0,0,1-47.046,0v-5.3a177.21,177.21,0,0,0,47.046,0Z" transform="translate(-171 -562.154)" fill="#3f3d56"/>
      <path id="Path_2393" data-name="Path 2393" d="M218.046,664.59a159.474,159.474,0,0,1-47.046,0v-5.3a177.21,177.21,0,0,0,47.046,0Z" transform="translate(-171 -533.327)" fill="#3f3d56"/>
    </g>
    <g id="Group_2277" data-name="Group 2277" transform="translate(-85.813 153.86)">
      <rect id="Rectangle_832" data-name="Rectangle 832" width="109" height="162" transform="translate(1015.813 2325.14)" fill="#cfe9e3"/>
      <g id="Group_2276" data-name="Group 2276" transform="translate(1015.344 2325.06)">
        <path id="Path_2423" data-name="Path 2423" d="M0,0H98.747V150.362H0Z" transform="translate(0.234 11.483)" fill="#d8ede8"/>
        <path id="Path_2395" data-name="Path 2395" d="M282.048,266.894H172.755V104.814H282.048Zm-108.822-.47H281.577V105.284H173.226Z" transform="translate(-172.755 -104.814)" fill="#3f3d56" stroke="#3f3d56" stroke-width="2"/>
        <circle id="Ellipse_249" data-name="Ellipse 249" cx="0.703" cy="0.703" r="0.703" transform="translate(2.109 1.875)" fill="#1e9a7d"/>
        <circle id="Ellipse_250" data-name="Ellipse 250" cx="0.703" cy="0.703" r="0.703" transform="translate(4.687 1.875)" fill="#1e9a7d"/>
        <circle id="Ellipse_251" data-name="Ellipse 251" cx="0.703" cy="0.703" r="0.703" transform="translate(7.265 1.875)" fill="#1e9a7d"/>
        <circle id="Ellipse_252" data-name="Ellipse 252" cx="0.703" cy="0.703" r="0.703" transform="translate(9.843 1.875)" fill="#1e9a7d"/>
        <circle id="Ellipse_253" data-name="Ellipse 253" cx="0.703" cy="0.703" r="0.703" transform="translate(12.42 1.875)" fill="#1e9a7d"/>
        <rect id="Rectangle_823" data-name="Rectangle 823" width="83.984" height="58.587" transform="translate(14.998 50.335)" fill="#3f3d56"/>
        <rect id="Rectangle_824" data-name="Rectangle 824" width="31.402" height="6.796" transform="translate(20.771 59.67)" fill="#d8ede8"/>
        <rect id="Rectangle_825" data-name="Rectangle 825" width="10.311" height="6.796" transform="translate(79.657 98.667)" fill="#f2f2f2"/>
        <rect id="Rectangle_826" data-name="Rectangle 826" width="31.402" height="6.796" transform="translate(20.771 72.356)" fill="#d8ede8"/>
        <rect id="Rectangle_827" data-name="Rectangle 827" width="31.402" height="6.796" transform="translate(20.771 85.042)" fill="#d8ede8"/>
        <g id="Group_2444" data-name="Group 2444">
          <path id="Path_2413" data-name="Path 2413" d="M510.387,366.542v-.8a2.293,2.293,0,0,1-1.205-.347l.189-.528a2.1,2.1,0,0,0,1.135.339c.559,0,.938-.323.938-.772,0-.433-.307-.7-.89-.938-.8-.315-1.3-.678-1.3-1.363a1.292,1.292,0,0,1,1.19-1.268v-.8h.488v.764a2.1,2.1,0,0,1,1.024.276l-.2.52a1.9,1.9,0,0,0-.993-.268c-.607,0-.835.362-.835.678,0,.41.292.615.977.9.811.331,1.221.741,1.221,1.442a1.37,1.37,0,0,1-1.245,1.339v.819Z" transform="translate(-429.927 -300.108)" fill="#d8ede8"/>
          <path id="Path_2414" data-name="Path 2414" d="M527.387,366.542v-.8a2.293,2.293,0,0,1-1.205-.347l.189-.528a2.1,2.1,0,0,0,1.135.339c.559,0,.938-.323.938-.772,0-.433-.307-.7-.89-.938-.8-.315-1.3-.678-1.3-1.363a1.292,1.292,0,0,1,1.19-1.268v-.8h.488v.764a2.1,2.1,0,0,1,1.024.276l-.2.52a1.9,1.9,0,0,0-.993-.268c-.607,0-.835.362-.835.678,0,.41.292.615.977.9.812.331,1.221.741,1.221,1.442a1.37,1.37,0,0,1-1.245,1.339v.819Z" transform="translate(-442.922 -300.108)" fill="#d8ede8"/>
          <path id="Path_2415" data-name="Path 2415" d="M544.387,366.542v-.8a2.293,2.293,0,0,1-1.205-.347l.189-.528a2.1,2.1,0,0,0,1.134.339c.559,0,.938-.323.938-.772,0-.433-.307-.7-.89-.938-.8-.315-1.3-.678-1.3-1.363a1.292,1.292,0,0,1,1.19-1.268v-.8h.489v.764a2.1,2.1,0,0,1,1.024.276l-.2.52a1.9,1.9,0,0,0-.993-.268c-.607,0-.835.362-.835.678,0,.41.291.615.977.9.811.331,1.221.741,1.221,1.442a1.37,1.37,0,0,1-1.245,1.339v.819Z" transform="translate(-455.917 -300.108)" fill="#d8ede8"/>
          <path id="Path_2416" data-name="Path 2416" d="M510.387,419.542v-.8a2.294,2.294,0,0,1-1.205-.347l.189-.528a2.1,2.1,0,0,0,1.135.339c.559,0,.938-.323.938-.772,0-.433-.307-.7-.89-.938-.8-.315-1.3-.678-1.3-1.363a1.292,1.292,0,0,1,1.19-1.268v-.8h.488v.764a2.1,2.1,0,0,1,1.024.276l-.2.52a1.9,1.9,0,0,0-.993-.268c-.607,0-.835.362-.835.678,0,.41.292.615.977.9.812.331,1.221.741,1.221,1.442a1.37,1.37,0,0,1-1.245,1.339v.819Z" transform="translate(-429.927 -340.657)" fill="#d8ede8"/>
          <path id="Path_2417" data-name="Path 2417" d="M527.387,419.542v-.8a2.294,2.294,0,0,1-1.205-.347l.189-.528a2.1,2.1,0,0,0,1.135.339c.559,0,.938-.323.938-.772,0-.433-.307-.7-.89-.938-.8-.315-1.3-.678-1.3-1.363a1.292,1.292,0,0,1,1.19-1.268v-.8h.488v.764a2.1,2.1,0,0,1,1.024.276l-.2.52a1.9,1.9,0,0,0-.993-.268c-.607,0-.835.362-.835.678,0,.41.292.615.977.9.812.331,1.221.741,1.221,1.442a1.37,1.37,0,0,1-1.245,1.339v.819Z" transform="translate(-442.922 -340.657)" fill="#d8ede8"/>
          <path id="Path_2418" data-name="Path 2418" d="M544.387,419.542v-.8a2.294,2.294,0,0,1-1.205-.347l.189-.528a2.1,2.1,0,0,0,1.134.339c.559,0,.938-.323.938-.772,0-.433-.307-.7-.89-.938-.8-.315-1.3-.678-1.3-1.363a1.292,1.292,0,0,1,1.19-1.268v-.8h.488v.764a2.1,2.1,0,0,1,1.024.276l-.2.52a1.9,1.9,0,0,0-.993-.268c-.607,0-.835.362-.835.678,0,.41.292.615.977.9.811.331,1.221.741,1.221,1.442a1.37,1.37,0,0,1-1.245,1.339v.819Z" transform="translate(-455.917 -340.657)" fill="#d8ede8"/>
          <path id="Path_2419" data-name="Path 2419" d="M510.387,472.542v-.8a2.294,2.294,0,0,1-1.205-.347l.189-.528a2.1,2.1,0,0,0,1.135.339c.559,0,.938-.323.938-.772,0-.433-.307-.7-.89-.938-.8-.315-1.3-.677-1.3-1.363a1.292,1.292,0,0,1,1.19-1.269v-.8h.488v.764a2.1,2.1,0,0,1,1.024.276l-.2.52a1.9,1.9,0,0,0-.993-.268c-.607,0-.835.362-.835.677,0,.41.292.615.977.9.812.331,1.221.741,1.221,1.442a1.37,1.37,0,0,1-1.245,1.339v.819Z" transform="translate(-429.927 -381.206)" fill="#d8ede8"/>
          <path id="Path_2420" data-name="Path 2420" d="M527.387,472.542v-.8a2.293,2.293,0,0,1-1.205-.347l.189-.528a2.1,2.1,0,0,0,1.134.339c.559,0,.938-.323.938-.772,0-.433-.307-.7-.89-.938-.8-.315-1.3-.677-1.3-1.363a1.292,1.292,0,0,1,1.19-1.269v-.8h.488v.764a2.1,2.1,0,0,1,1.024.276l-.2.52a1.9,1.9,0,0,0-.993-.268c-.607,0-.835.362-.835.677,0,.41.292.615.977.9.811.331,1.221.741,1.221,1.442a1.37,1.37,0,0,1-1.245,1.339v.819Z" transform="translate(-442.922 -381.206)" fill="#d8ede8"/>
          <path id="Path_2421" data-name="Path 2421" d="M544.387,472.542v-.8a2.294,2.294,0,0,1-1.205-.347l.189-.528a2.1,2.1,0,0,0,1.134.339c.559,0,.938-.323.938-.772,0-.433-.307-.7-.89-.938-.8-.315-1.3-.677-1.3-1.363a1.292,1.292,0,0,1,1.19-1.269v-.8h.489v.764a2.1,2.1,0,0,1,1.024.276l-.2.52a1.9,1.9,0,0,0-.993-.268c-.607,0-.835.362-.835.677,0,.41.291.615.977.9.811.331,1.221.741,1.221,1.442a1.37,1.37,0,0,1-1.245,1.339v.819Z" transform="translate(-455.917 -381.206)" fill="#d8ede8"/>
        </g>
        <path id="Path_2422" data-name="Path 2422" d="M405.239,434.16l-3.286-4.381.778-.584,2.677,3.57,10.539-8.623.616.753Z" transform="translate(-320.086 -329.774)" fill="#1e9a7d" stroke="#1e9a7d" stroke-width="1"/>
      </g>
    </g>
  </g>
</svg>
