<svg xmlns="http://www.w3.org/2000/svg" width="207.504" height="147" viewBox="0 0 207.504 147">
  <g id="Group_2459" data-name="Group 2459" transform="translate(-1423.421 -3859)">
    <g id="Path_3118" data-name="Path 3118" transform="translate(1453 3859)" fill="#1e9a7d">
      <path d="M 73.5 146 C 63.71212005615234 146 54.21755981445313 144.0832672119141 45.2800407409668 140.3029937744141 C 40.98434066772461 138.4860534667969 36.84104156494141 136.2371673583984 32.96525955200195 133.6187133789063 C 29.12603950500488 131.0249938964844 25.51577949523926 128.0462646484375 22.23476028442383 124.7652435302734 C 18.95373916625977 121.4842224121094 15.97500038146973 117.8739624023438 13.38127994537354 114.0347366333008 C 10.76284027099609 110.1589584350586 8.51393985748291 106.0156631469727 6.697000026702881 101.7199630737305 C 2.916739940643311 92.78244018554688 1 83.28787994384766 1 73.5 C 1 63.71212005615234 2.916739940643311 54.21755981445313 6.697000026702881 45.2800407409668 C 8.51393985748291 40.98434066772461 10.76284027099609 36.84104156494141 13.38127994537354 32.96525955200195 C 15.97500038146973 29.12603950500488 18.95373916625977 25.51577949523926 22.23476028442383 22.23476028442383 C 25.51577949523926 18.95373916625977 29.12603950500488 15.97500038146973 32.96525955200195 13.38127994537354 C 36.84104156494141 10.76284027099609 40.98434066772461 8.51393985748291 45.2800407409668 6.697000026702881 C 54.21755981445313 2.916739940643311 63.71212005615234 1 73.5 1 C 83.28787994384766 1 92.78244018554688 2.916739940643311 101.7199630737305 6.697000026702881 C 106.0156631469727 8.51393985748291 110.1589584350586 10.76284027099609 114.0347366333008 13.38127994537354 C 117.8739624023438 15.97500038146973 121.4842224121094 18.95373916625977 124.7652435302734 22.23476028442383 C 128.0462646484375 25.51577949523926 131.0249938964844 29.12603950500488 133.6187133789063 32.96525955200195 C 136.2371673583984 36.84104156494141 138.4860534667969 40.98434066772461 140.3029937744141 45.2800407409668 C 144.0832672119141 54.21755981445313 146 63.71212005615234 146 73.5 C 146 80.76614379882813 144.9258270263672 87.93678283691406 142.8072967529297 94.81275939941406 C 140.7500457763672 101.4899597167969 137.7147827148438 107.8735809326172 133.7858581542969 113.7862777709961 C 127.3580169677734 123.4607162475586 118.5404815673828 131.5370635986328 108.2864990234375 137.1421966552734 C 103.0681228637695 139.9947204589844 97.50669860839844 142.1960144042969 91.75672149658203 143.6849365234375 C 85.82430267333984 145.2210998535156 79.68186187744141 146 73.5 146 Z" stroke="none"/>
      <path d="M 73.5 2 C 63.8466796875 2 54.48317718505859 3.890167236328125 45.66960144042969 7.617996215820313 C 41.43335723876953 9.409774780273438 37.34734344482422 11.62762451171875 33.52506256103516 14.20989990234375 C 29.73860168457031 16.76797485351563 26.17787933349609 19.70584106445313 22.94185638427734 22.94185638427734 C 19.70584106445313 26.17787933349609 16.76797485351563 29.73860168457031 14.20989990234375 33.52506256103516 C 11.62762451171875 37.34734344482422 9.409774780273438 41.43335723876953 7.617996215820313 45.66960144042969 C 3.890167236328125 54.48317718505859 2 63.8466796875 2 73.5 C 2 83.1533203125 3.890167236328125 92.51681518554688 7.617996215820313 101.3303985595703 C 9.409774780273438 105.5666351318359 11.62762451171875 109.6526641845703 14.20989990234375 113.4749450683594 C 16.76797485351563 117.2613983154297 19.70584106445313 120.8221206665039 22.94185638427734 124.0581359863281 C 26.17787933349609 127.2941589355469 29.73860168457031 130.2320251464844 33.52506256103516 132.7901000976563 C 37.34734344482422 135.3723754882813 41.43335723876953 137.5902252197266 45.66960144042969 139.3820037841797 C 54.48317718505859 143.1098327636719 63.8466796875 145 73.5 145 C 79.59734344482422 145 85.65544128417969 144.2318420410156 91.50604248046875 142.7168579101563 C 97.17631530761719 141.2485809326172 102.6607055664063 139.0777587890625 107.8068389892578 136.2647399902344 C 117.9191207885742 130.737060546875 126.6144790649414 122.7727966308594 132.9529571533203 113.2328414916992 C 136.8287048339844 107.4001617431641 139.8226623535156 101.1036987304688 141.8516387939453 94.51829528808594 C 143.9407348632813 87.73782348632813 145 80.66623687744141 145 73.5 C 145 63.8466796875 143.1098327636719 54.48317718505859 139.3820037841797 45.66960144042969 C 137.5902252197266 41.43335723876953 135.3723754882813 37.34734344482422 132.7901000976563 33.52506256103516 C 130.2320251464844 29.73860168457031 127.2941589355469 26.17787933349609 124.0581359863281 22.94185638427734 C 120.8221206665039 19.70584106445313 117.2613983154297 16.76797485351563 113.4749450683594 14.20989990234375 C 109.6526641845703 11.62762451171875 105.5666351318359 9.409774780273438 101.3303985595703 7.617996215820313 C 92.51681518554688 3.890167236328125 83.1533203125 2 73.5 2 M 73.5 0 C 114.0929183959961 0 147 32.90708160400391 147 73.5 C 147 88.51937866210938 142.4950256347656 102.4865798950195 134.6187438964844 114.3397216796875 C 121.5965805053711 133.9391784667969 99.07353973388672 147 73.5 147 C 32.90708160400391 147 0 114.0929183959961 0 73.5 C 0 32.90708160400391 32.90708160400391 0 73.5 0 Z" stroke="none" fill="#1e9a7d"/>
    </g>
    <g id="Group_2280" data-name="Group 2280" transform="translate(1422.686 3870.913)">
      <path id="Path_2444" data-name="Path 2444" d="M50.176,0A50.176,50.176,0,1,1,0,50.176,50.176,50.176,0,0,1,50.176,0Z" transform="translate(54.183 10.595)" fill="#cfe9e3"/>
      <path id="Path_2434" data-name="Path 2434" d="M385.341,205.163a50.549,50.549,0,1,1,50.549,50.549A50.607,50.607,0,0,1,385.341,205.163Zm.746,0a49.8,49.8,0,1,0,49.8-49.8A49.859,49.859,0,0,0,386.087,205.163Z" transform="translate(-331.531 -144.392)" fill="#cfe9e3"/>
      <path id="Path_2435" data-name="Path 2435" d="M526.082,305.037h0a8.944,8.944,0,1,1,8.944,8.944A8.944,8.944,0,0,1,526.082,305.037Zm8.944-8.508a8.518,8.518,0,0,0-8.508,8.508h0a8.508,8.508,0,1,0,8.508-8.508Z" transform="translate(-430.667 -244.048)" fill="#1e9a7d" style="isolation: isolate"/>
      <path id="Path_2436" data-name="Path 2436" d="M498.776,285.8h0a17.016,17.016,0,1,1,17.016,17.016A17.016,17.016,0,0,1,498.776,285.8Zm17.016-16.58a16.58,16.58,0,1,0,16.58,16.58A16.58,16.58,0,0,0,515.793,269.224Z" transform="translate(-411.433 -224.814)" fill="#1e9a7d" style="isolation: isolate"/>
      <path id="Path_2437" data-name="Path 2437" d="M444.166,247.337a33.16,33.16,0,1,1,33.16,33.16,33.16,33.16,0,0,1-33.16-33.16Zm33.16-32.724a32.724,32.724,0,1,0,32.724,32.724,32.724,32.724,0,0,0-32.724-32.724Z" transform="translate(-372.966 -186.347)" fill="#1e9a7d" style="isolation: isolate"/>
      <path id="Path_2445" data-name="Path 2445" d="M4.145,0A4.145,4.145,0,1,1,0,4.145,4.145,4.145,0,0,1,4.145,0Z" transform="translate(100.214 56.626)" fill="#1e9a7d"/>
      <circle id="Ellipse_260" data-name="Ellipse 260" cx="4.145" cy="4.145" r="4.145" transform="translate(89.525 68.625)" fill="#1e9a7d" style="isolation: isolate"/>
      <circle id="Ellipse_261" data-name="Ellipse 261" cx="4.145" cy="4.145" r="4.145" transform="translate(131.229 66.88)" fill="#1e9a7d" style="isolation: isolate"/>
      <circle id="Ellipse_262" data-name="Ellipse 262" cx="1.963" cy="1.963" r="1.963" transform="translate(102.396 58.808)" fill="#2f2e41"/>
      <circle id="Ellipse_263" data-name="Ellipse 263" cx="1.963" cy="1.963" r="1.963" transform="translate(133.41 69.061)" fill="#2f2e41"/>
      <circle id="Ellipse_264" data-name="Ellipse 264" cx="1.963" cy="1.963" r="1.963" transform="translate(91.706 71.024)" fill="#2f2e41"/>
      <circle id="Ellipse_265" data-name="Ellipse 265" cx="1.963" cy="1.963" r="1.963" transform="translate(10.77 36.774)" fill="#1e9a7d"/>
      <path id="Path_2438" data-name="Path 2438" d="M147.42,131.637H61.248V131.2h86.609v22.47h-.437Z" transform="translate(-43.17 -92.791)" fill="#2f2e41"/>
      <path id="Path_2439" data-name="Path 2439" d="M227.2,237.56a5.672,5.672,0,1,1,5.672,5.672A5.672,5.672,0,0,1,227.2,237.56Zm5.672-5.236a5.236,5.236,0,1,0,5.236,5.236A5.236,5.236,0,0,0,232.871,232.324Z" transform="translate(-220.138 -198.823)" fill="#2f2e41"/>
      <circle id="Ellipse_266" data-name="Ellipse 266" cx="1.963" cy="1.963" r="1.963" transform="translate(23.859 93.277)" fill="#1e9a7d"/>
      <path id="Path_2440" data-name="Path 2440" d="M271.478,428.7h0a5.672,5.672,0,1,1,5.672,5.672A5.672,5.672,0,0,1,271.478,428.7Zm5.672-5.236a5.236,5.236,0,1,0,5.236,5.236A5.236,5.236,0,0,0,277.15,423.462Z" transform="translate(-251.327 -333.457)" fill="#2f2e41"/>
      <circle id="Ellipse_267" data-name="Ellipse 267" cx="1.963" cy="1.963" r="1.963" transform="translate(194.276 45.936)" fill="#1e9a7d"/>
      <path id="Path_2441" data-name="Path 2441" d="M847.963,268.555a5.672,5.672,0,1,1,5.672,5.672A5.672,5.672,0,0,1,847.963,268.555Zm5.672-5.236a5.242,5.242,0,0,0-5.236,5.236h0a5.236,5.236,0,1,0,5.236-5.236Z" transform="translate(-657.395 -220.656)" fill="#2f2e41"/>
      <path id="Path_2442" data-name="Path 2442" d="M457.3,163.441l55.627-.876.007.436-55.2.869v22.037H457.3Z" transform="translate(-322.141 -114.883)" fill="#2f2e41"/>
      <path id="Path_2443" data-name="Path 2443" d="M105.9,270.2h62.175V248.171h.436v22.47H105.9Z" transform="translate(-74.62 -175.183)" fill="#2f2e41"/>
      <rect id="Rectangle_836" data-name="Rectangle 836" width="23.997" height="1.527" transform="translate(0.735 48.991)" fill="#ccc"/>
      <rect id="Rectangle_837" data-name="Rectangle 837" width="23.997" height="1.527" transform="translate(0.735 53.354)" fill="#ccc"/>
      <rect id="Rectangle_838" data-name="Rectangle 838" width="23.997" height="1.527" transform="translate(0.735 57.717)" fill="#ccc"/>
      <rect id="Rectangle_839" data-name="Rectangle 839" width="23.997" height="1.527" transform="translate(13.824 105.493)" fill="#ccc"/>
      <rect id="Rectangle_840" data-name="Rectangle 840" width="23.997" height="1.527" transform="translate(13.824 109.857)" fill="#ccc"/>
      <rect id="Rectangle_841" data-name="Rectangle 841" width="23.997" height="1.527" transform="translate(13.824 114.22)" fill="#ccc"/>
      <rect id="Rectangle_842" data-name="Rectangle 842" width="23.997" height="1.527" transform="translate(184.241 58.371)" fill="#ccc"/>
      <rect id="Rectangle_843" data-name="Rectangle 843" width="23.997" height="1.527" transform="translate(184.241 62.735)" fill="#ccc"/>
      <rect id="Rectangle_844" data-name="Rectangle 844" width="23.997" height="1.527" transform="translate(184.241 67.098)" fill="#ccc"/>
    </g>
  </g>
</svg>
