<svg xmlns="http://www.w3.org/2000/svg" width="157.547" height="147" viewBox="0 0 157.547 147">
  <g id="Group_2464" data-name="Group 2464" transform="translate(-881.726 -5361)">
    <g id="Group_2461" data-name="Group 2461">
      <g id="Path_1747" data-name="Path 1747" transform="translate(887 5361)" fill="#1e9a7d">
        <path d="M 73.5 146 C 63.71212005615234 146 54.21755981445313 144.0832672119141 45.2800407409668 140.3029937744141 C 40.98434066772461 138.4860534667969 36.84104156494141 136.2371673583984 32.96525955200195 133.6187133789063 C 29.12603950500488 131.0249938964844 25.51577949523926 128.0462646484375 22.23476028442383 124.7652435302734 C 18.95373916625977 121.4842224121094 15.97500038146973 117.8739624023438 13.38127994537354 114.0347366333008 C 10.76284027099609 110.1589584350586 8.51393985748291 106.0156631469727 6.697000026702881 101.7199630737305 C 2.916739940643311 92.78244018554688 1 83.28787994384766 1 73.5 C 1 63.71212005615234 2.916739940643311 54.21755981445313 6.697000026702881 45.2800407409668 C 8.51393985748291 40.98434066772461 10.76284027099609 36.84104156494141 13.38127994537354 32.96525955200195 C 15.97500038146973 29.12603950500488 18.95373916625977 25.51577949523926 22.23476028442383 22.23476028442383 C 25.51577949523926 18.95373916625977 29.12603950500488 15.97500038146973 32.96525955200195 13.38127994537354 C 36.84104156494141 10.76284027099609 40.98434066772461 8.51393985748291 45.2800407409668 6.697000026702881 C 54.21755981445313 2.916739940643311 63.71212005615234 1 73.5 1 C 83.28787994384766 1 92.78244018554688 2.916739940643311 101.7199630737305 6.697000026702881 C 106.0156631469727 8.51393985748291 110.1589584350586 10.76284027099609 114.0347366333008 13.38127994537354 C 117.8739624023438 15.97500038146973 121.4842224121094 18.95373916625977 124.7652435302734 22.23476028442383 C 128.0462646484375 25.51577949523926 131.0249938964844 29.12603950500488 133.6187133789063 32.96525955200195 C 136.2371673583984 36.84104156494141 138.4860534667969 40.98434066772461 140.3029937744141 45.2800407409668 C 144.0832672119141 54.21755981445313 146 63.71212005615234 146 73.5 C 146 80.76614379882813 144.9258270263672 87.93678283691406 142.8072967529297 94.81275939941406 C 140.7500457763672 101.4899597167969 137.7147827148438 107.8735809326172 133.7858581542969 113.7862777709961 C 127.3580169677734 123.4607162475586 118.5404815673828 131.5370635986328 108.2864990234375 137.1421966552734 C 103.0681228637695 139.9947204589844 97.50669860839844 142.1960144042969 91.75672149658203 143.6849365234375 C 85.82430267333984 145.2210998535156 79.68186187744141 146 73.5 146 Z" stroke="none"/>
        <path d="M 73.5 2 C 63.8466796875 2 54.48317718505859 3.890167236328125 45.66960144042969 7.617996215820313 C 41.43335723876953 9.409774780273438 37.34734344482422 11.62762451171875 33.52506256103516 14.20989990234375 C 29.73860168457031 16.76797485351563 26.17787933349609 19.70584106445313 22.94185638427734 22.94185638427734 C 19.70584106445313 26.17787933349609 16.76797485351563 29.73860168457031 14.20989990234375 33.52506256103516 C 11.62762451171875 37.34734344482422 9.409774780273438 41.43335723876953 7.617996215820313 45.66960144042969 C 3.890167236328125 54.48317718505859 2 63.8466796875 2 73.5 C 2 83.1533203125 3.890167236328125 92.51681518554688 7.617996215820313 101.3303985595703 C 9.409774780273438 105.5666351318359 11.62762451171875 109.6526641845703 14.20989990234375 113.4749450683594 C 16.76797485351563 117.2613983154297 19.70584106445313 120.8221206665039 22.94185638427734 124.0581359863281 C 26.17787933349609 127.2941589355469 29.73860168457031 130.2320251464844 33.52506256103516 132.7901000976563 C 37.34734344482422 135.3723754882813 41.43335723876953 137.5902252197266 45.66960144042969 139.3820037841797 C 54.48317718505859 143.1098327636719 63.8466796875 145 73.5 145 C 79.59734344482422 145 85.65544128417969 144.2318420410156 91.50604248046875 142.7168579101563 C 97.17631530761719 141.2485809326172 102.6607055664063 139.0777587890625 107.8068389892578 136.2647399902344 C 117.9191207885742 130.737060546875 126.6144790649414 122.7727966308594 132.9529571533203 113.2328414916992 C 136.8287048339844 107.4001617431641 139.8226623535156 101.1036987304688 141.8516387939453 94.51829528808594 C 143.9407348632813 87.73782348632813 145 80.66623687744141 145 73.5 C 145 63.8466796875 143.1098327636719 54.48317718505859 139.3820037841797 45.66960144042969 C 137.5902252197266 41.43335723876953 135.3723754882813 37.34734344482422 132.7901000976563 33.52506256103516 C 130.2320251464844 29.73860168457031 127.2941589355469 26.17787933349609 124.0581359863281 22.94185638427734 C 120.8221206665039 19.70584106445313 117.2613983154297 16.76797485351563 113.4749450683594 14.20989990234375 C 109.6526641845703 11.62762451171875 105.5666351318359 9.409774780273438 101.3303985595703 7.617996215820313 C 92.51681518554688 3.890167236328125 83.1533203125 2 73.5 2 M 73.5 0 C 114.0929183959961 0 147 32.90708160400391 147 73.5 C 147 88.51937866210938 142.4950256347656 102.4865798950195 134.6187438964844 114.3397216796875 C 121.5965805053711 133.9391784667969 99.07353973388672 147 73.5 147 C 32.90708160400391 147 0 114.0929183959961 0 73.5 C 0 32.90708160400391 32.90708160400391 0 73.5 0 Z" stroke="none" fill="#1e9a7d"/>
      </g>
      <g id="Group_2262" data-name="Group 2262" transform="translate(6857.316 6006.345)">
        <path id="Path_2267" data-name="Path 2267" d="M393.207,263.38v91.4a1.742,1.742,0,0,1-1.558,1.88H237.216a1.435,1.435,0,0,1-1.1-.551,2.091,2.091,0,0,1-.455-1.329v-91.4a2.091,2.091,0,0,1,.455-1.329,1.435,1.435,0,0,1,1.1-.551H391.649A1.742,1.742,0,0,1,393.207,263.38Z" transform="translate(-6211.25 -882.192)" fill="#cfe9e3"/>
        <path id="Path_2268" data-name="Path 2268" d="M393.207,262.754v4.221H235.66v-4.221a1.162,1.162,0,0,1,1.04-1.254H392.168A1.162,1.162,0,0,1,393.207,262.754Z" transform="translate(-6211.25 -882.192)" fill="#ecf6f4"/>
        <circle id="Ellipse_220" data-name="Ellipse 220" cx="1.304" cy="1.304" r="1.304" transform="translate(-5972.723 -619.389)" fill="#56b39d"/>
        <circle id="Ellipse_221" data-name="Ellipse 221" cx="1.304" cy="1.304" r="1.304" transform="translate(-5969.072 -619.389)" fill="#56b39d"/>
        <circle id="Ellipse_222" data-name="Ellipse 222" cx="1.304" cy="1.304" r="1.304" transform="translate(-5965.422 -619.389)" fill="#56b39d"/>
      </g>
    </g>
    <g id="Group_2286" data-name="Group 2286" transform="translate(875.755 5382.108)">
      <path id="Path_2483" data-name="Path 2483" d="M304.963,315.343H279.545a2.433,2.433,0,0,0-2.432,2.432v16.707a2.433,2.433,0,0,0,2.432,2.432h25.418a2.435,2.435,0,0,0,2.432-2.432V317.775A2.435,2.435,0,0,0,304.963,315.343Z" transform="translate(-255.818 -285.146)" fill="#476285"/>
      <path id="Path_2484" data-name="Path 2484" d="M471.963,315.343H446.545a2.433,2.433,0,0,0-2.432,2.432v16.707a2.433,2.433,0,0,0,2.432,2.432h25.418a2.435,2.435,0,0,0,2.432-2.432V317.775A2.435,2.435,0,0,0,471.963,315.343Z" transform="translate(-375.044 -285.146)" fill="#476285"/>
      <path id="Path_2485" data-name="Path 2485" d="M638.963,315.343H613.545a2.433,2.433,0,0,0-2.432,2.432v16.707a2.433,2.433,0,0,0,2.432,2.432h25.418a2.435,2.435,0,0,0,2.432-2.432V317.775A2.435,2.435,0,0,0,638.963,315.343Z" transform="translate(-494.269 -285.146)" fill="#476285"/>
      <path id="Path_2486" data-name="Path 2486" d="M313.036,418.343H294.81a1.352,1.352,0,0,0,0,2.7h18.226a1.352,1.352,0,1,0,0-2.7Z" transform="translate(-267.488 -358.68)" fill="#e6e6e6"/>
      <path id="Path_2487" data-name="Path 2487" d="M313.032,444.163H294.806a1.351,1.351,0,0,0-.555,2.583,1.334,1.334,0,0,0,.555.12h18.226a1.352,1.352,0,1,0,0-2.7Z" transform="translate(-267.484 -377.113)" fill="#e6e6e6"/>
      <path id="Path_2488" data-name="Path 2488" d="M313.036,469.983H294.81a1.352,1.352,0,0,0,0,2.7h18.226a1.352,1.352,0,1,0,0-2.7Z" transform="translate(-267.488 -395.546)" fill="#e6e6e6"/>
      <path id="Path_2489" data-name="Path 2489" d="M480.036,418.343H461.81a1.352,1.352,0,1,0,0,2.7h18.226a1.352,1.352,0,1,0,0-2.7Z" transform="translate(-386.713 -358.68)" fill="#e6e6e6"/>
      <path id="Path_2490" data-name="Path 2490" d="M480.036,444.163H461.81a1.352,1.352,0,0,0,0,2.7h18.226a1.352,1.352,0,1,0,0-2.7Z" transform="translate(-386.713 -377.113)" fill="#e6e6e6"/>
      <path id="Path_2491" data-name="Path 2491" d="M480.032,469.983H461.806a1.352,1.352,0,0,0-.426,2.635,1.318,1.318,0,0,0,.426.069h18.226a1.352,1.352,0,1,0,0-2.7Z" transform="translate(-386.709 -395.546)" fill="#e6e6e6"/>
      <path id="Path_2492" data-name="Path 2492" d="M647.036,418.343H628.81a1.352,1.352,0,0,0,0,2.7h18.226a1.352,1.352,0,0,0,0-2.7Z" transform="translate(-505.939 -358.68)" fill="#e6e6e6"/>
      <path id="Path_2493" data-name="Path 2493" d="M647.032,444.163H628.806a1.351,1.351,0,0,0-.555,2.583,1.334,1.334,0,0,0,.555.12h18.226a1.352,1.352,0,0,0,0-2.7Z" transform="translate(-505.934 -377.113)" fill="#e6e6e6"/>
      <path id="Path_2494" data-name="Path 2494" d="M647.036,469.983H628.81a1.352,1.352,0,0,0,0,2.7h18.226a1.352,1.352,0,0,0,0-2.7Z" transform="translate(-505.939 -395.546)" fill="#e6e6e6"/>
      <path id="Path_2495" data-name="Path 2495" d="M307.849,418.343H294.81a1.352,1.352,0,0,0,0,2.7h12.768a1.539,1.539,0,0,0,.272-2.7Z" transform="translate(-267.488 -358.68)" fill="#1e9a7d"/>
      <path id="Path_2496" data-name="Path 2496" d="M301.823,444.163h-7.017a1.351,1.351,0,0,0-.555,2.583H300.7a1.54,1.54,0,0,0,1.539-1.539A1.508,1.508,0,0,0,301.823,444.163Z" transform="translate(-267.484 -377.113)" fill="#1e9a7d"/>
      <path id="Path_2497" data-name="Path 2497" d="M311.674,469.983H294.81a1.352,1.352,0,0,0,0,2.7h16.973a1.536,1.536,0,0,0-.109-2.7Z" transform="translate(-267.488 -395.546)" fill="#1e9a7d"/>
      <path id="Path_2498" data-name="Path 2498" d="M633.294,418.343h-4.489a1.352,1.352,0,0,0-.661,2.532h3.976a1.54,1.54,0,0,0,1.539-1.539A1.515,1.515,0,0,0,633.294,418.343Z" transform="translate(-505.934 -358.68)" fill="#1e9a7d"/>
      <path id="Path_2499" data-name="Path 2499" d="M636.682,444.163h-7.876a1.351,1.351,0,0,0-.555,2.583h7.3a1.54,1.54,0,0,0,1.539-1.539A1.508,1.508,0,0,0,636.682,444.163Z" transform="translate(-505.934 -377.113)" fill="#1e9a7d"/>
      <path id="Path_2500" data-name="Path 2500" d="M642.241,469.983H628.81a1.352,1.352,0,0,0,0,2.7h13.54a1.536,1.536,0,0,0-.109-2.7Z" transform="translate(-505.939 -395.546)" fill="#1e9a7d"/>
      <path id="Path_2501" data-name="Path 2501" d="M478.769,444.163H461.81a1.352,1.352,0,0,0,0,2.7h16.881a1.536,1.536,0,0,0,.077-2.7Z" transform="translate(-386.713 -377.113)" fill="#1e9a7d"/>
      <path id="Path_2502" data-name="Path 2502" d="M463.625,469.983h-1.819a1.352,1.352,0,0,0-.426,2.635h1.167a1.54,1.54,0,0,0,1.539-1.539,1.52,1.52,0,0,0-.461-1.1Z" transform="translate(-386.709 -395.546)" fill="#1e9a7d"/>
      <path id="Path_2503" data-name="Path 2503" d="M471.7,418.343H461.81a1.352,1.352,0,1,0,0,2.7h9.621a1.539,1.539,0,0,0,.272-2.7Z" transform="translate(-386.713 -358.68)" fill="#1e9a7d"/>
    </g>
  </g>
</svg>
