<svg xmlns="http://www.w3.org/2000/svg" width="147" height="147" viewBox="0 0 147 147">
  <g id="Group_2461" data-name="Group 2461" transform="translate(-315 -5361)">
    <g id="Path_1747" data-name="Path 1747" transform="translate(315 5361)" fill="#1e9a7d">
      <path d="M 73.5 146 C 63.71212005615234 146 54.21755981445313 144.0832672119141 45.2800407409668 140.3029937744141 C 40.98434066772461 138.4860534667969 36.84104156494141 136.2371673583984 32.96525955200195 133.6187133789063 C 29.12603950500488 131.0249938964844 25.51577949523926 128.0462646484375 22.23476028442383 124.7652435302734 C 18.95373916625977 121.4842224121094 15.97500038146973 117.8739624023438 13.38127994537354 114.0347366333008 C 10.76284027099609 110.1589584350586 8.51393985748291 106.0156631469727 6.697000026702881 101.7199630737305 C 2.916739940643311 92.78244018554688 1 83.28787994384766 1 73.5 C 1 63.71212005615234 2.916739940643311 54.21755981445313 6.697000026702881 45.2800407409668 C 8.51393985748291 40.98434066772461 10.76284027099609 36.84104156494141 13.38127994537354 32.96525955200195 C 15.97500038146973 29.12603950500488 18.95373916625977 25.51577949523926 22.23476028442383 22.23476028442383 C 25.51577949523926 18.95373916625977 29.12603950500488 15.97500038146973 32.96525955200195 13.38127994537354 C 36.84104156494141 10.76284027099609 40.98434066772461 8.51393985748291 45.2800407409668 6.697000026702881 C 54.21755981445313 2.916739940643311 63.71212005615234 1 73.5 1 C 83.28787994384766 1 92.78244018554688 2.916739940643311 101.7199630737305 6.697000026702881 C 106.0156631469727 8.51393985748291 110.1589584350586 10.76284027099609 114.0347366333008 13.38127994537354 C 117.8739624023438 15.97500038146973 121.4842224121094 18.95373916625977 124.7652435302734 22.23476028442383 C 128.0462646484375 25.51577949523926 131.0249938964844 29.12603950500488 133.6187133789063 32.96525955200195 C 136.2371673583984 36.84104156494141 138.4860534667969 40.98434066772461 140.3029937744141 45.2800407409668 C 144.0832672119141 54.21755981445313 146 63.71212005615234 146 73.5 C 146 80.76614379882813 144.9258270263672 87.93678283691406 142.8072967529297 94.81275939941406 C 140.7500457763672 101.4899597167969 137.7147827148438 107.8735809326172 133.7858581542969 113.7862777709961 C 127.3580169677734 123.4607162475586 118.5404815673828 131.5370635986328 108.2864990234375 137.1421966552734 C 103.0681228637695 139.9947204589844 97.50669860839844 142.1960144042969 91.75672149658203 143.6849365234375 C 85.82430267333984 145.2210998535156 79.68186187744141 146 73.5 146 Z" stroke="none"/>
      <path d="M 73.5 2 C 63.8466796875 2 54.48317718505859 3.890167236328125 45.66960144042969 7.617996215820313 C 41.43335723876953 9.409774780273438 37.34734344482422 11.62762451171875 33.52506256103516 14.20989990234375 C 29.73860168457031 16.76797485351563 26.17787933349609 19.70584106445313 22.94185638427734 22.94185638427734 C 19.70584106445313 26.17787933349609 16.76797485351563 29.73860168457031 14.20989990234375 33.52506256103516 C 11.62762451171875 37.34734344482422 9.409774780273438 41.43335723876953 7.617996215820313 45.66960144042969 C 3.890167236328125 54.48317718505859 2 63.8466796875 2 73.5 C 2 83.1533203125 3.890167236328125 92.51681518554688 7.617996215820313 101.3303985595703 C 9.409774780273438 105.5666351318359 11.62762451171875 109.6526641845703 14.20989990234375 113.4749450683594 C 16.76797485351563 117.2613983154297 19.70584106445313 120.8221206665039 22.94185638427734 124.0581359863281 C 26.17787933349609 127.2941589355469 29.73860168457031 130.2320251464844 33.52506256103516 132.7901000976563 C 37.34734344482422 135.3723754882813 41.43335723876953 137.5902252197266 45.66960144042969 139.3820037841797 C 54.48317718505859 143.1098327636719 63.8466796875 145 73.5 145 C 79.59734344482422 145 85.65544128417969 144.2318420410156 91.50604248046875 142.7168579101563 C 97.17631530761719 141.2485809326172 102.6607055664063 139.0777587890625 107.8068389892578 136.2647399902344 C 117.9191207885742 130.737060546875 126.6144790649414 122.7727966308594 132.9529571533203 113.2328414916992 C 136.8287048339844 107.4001617431641 139.8226623535156 101.1036987304688 141.8516387939453 94.51829528808594 C 143.9407348632813 87.73782348632813 145 80.66623687744141 145 73.5 C 145 63.8466796875 143.1098327636719 54.48317718505859 139.3820037841797 45.66960144042969 C 137.5902252197266 41.43335723876953 135.3723754882813 37.34734344482422 132.7901000976563 33.52506256103516 C 130.2320251464844 29.73860168457031 127.2941589355469 26.17787933349609 124.0581359863281 22.94185638427734 C 120.8221206665039 19.70584106445313 117.2613983154297 16.76797485351563 113.4749450683594 14.20989990234375 C 109.6526641845703 11.62762451171875 105.5666351318359 9.409774780273438 101.3303985595703 7.617996215820313 C 92.51681518554688 3.890167236328125 83.1533203125 2 73.5 2 M 73.5 0 C 114.0929183959961 0 147 32.90708160400391 147 73.5 C 147 88.51937866210938 142.4950256347656 102.4865798950195 134.6187438964844 114.3397216796875 C 121.5965805053711 133.9391784667969 99.07353973388672 147 73.5 147 C 32.90708160400391 147 0 114.0929183959961 0 73.5 C 0 32.90708160400391 32.90708160400391 0 73.5 0 Z" stroke="none" fill="#1e9a7d"/>
    </g>
    <g id="Group_2282" data-name="Group 2282" transform="translate(335.453 5370.853)">
      <path id="Path_2446" data-name="Path 2446" d="M385.47,112.5H313.528A2.531,2.531,0,0,0,311,115.028v97.22a2.531,2.531,0,0,0,2.528,2.528H385.47A2.531,2.531,0,0,0,388,212.248v-97.22A2.531,2.531,0,0,0,385.47,112.5Z" transform="translate(-311 -112.5)" fill="#56b39d"/>
      <path id="Path_2447" data-name="Path 2447" d="M328.236,128.5a1.766,1.766,0,0,0-1.736,1.791v92.471a1.766,1.766,0,0,0,1.736,1.791h67.5a1.766,1.766,0,0,0,1.736-1.791V130.291a1.766,1.766,0,0,0-1.736-1.791Z" transform="translate(-323.485 -125.389)" fill="#f7fcfa"/>
      <path id="Path_2448" data-name="Path 2448" d="M348.667,150.5a1.25,1.25,0,0,0-1.167,1.317v12.727a1.25,1.25,0,0,0,1.167,1.317h60.471a1.25,1.25,0,0,0,1.167-1.317V151.817a1.25,1.25,0,0,0-1.167-1.317Z" transform="translate(-340.403 -143.111)" fill="#56b39d"/>
      <path id="Path_2449" data-name="Path 2449" d="M348.666,261.25a1.185,1.185,0,0,0-1.167,1.2v27.2a1.185,1.185,0,0,0,1.167,1.2h60.471a1.185,1.185,0,0,0,1.167-1.2v-27.2a1.185,1.185,0,0,0-1.167-1.2Z" transform="translate(-340.403 -232.327)" fill="#56b39d"/>
      <rect id="Rectangle_845" data-name="Rectangle 845" width="47.832" height="2.722" transform="translate(14.583 9.187)" fill="#fff"/>
      <rect id="Rectangle_846" data-name="Rectangle 846" width="47.832" height="1.264" transform="translate(14.68 14.923)" fill="#fff"/>
      <rect id="Rectangle_847" data-name="Rectangle 847" width="47.832" height="1.264" transform="translate(14.68 17.159)" fill="#fff"/>
      <rect id="Rectangle_848" data-name="Rectangle 848" width="47.832" height="1.264" transform="translate(14.68 19.395)" fill="#fff"/>
      <path id="Path_2450" data-name="Path 2450" d="M400.308,318.565h22.013a.709.709,0,0,0,.5-1.21l-14.088-14.088a.709.709,0,0,0-1,0l-3.5,3.5a1.486,1.486,0,0,1-2.1,0L391.153,295.8a.709.709,0,0,0-1,0L368.69,317.258a.709.709,0,0,0,.5,1.21h31.146Z" transform="translate(-357.305 -259.99)" fill="#fff"/>
      <circle id="Ellipse_268" data-name="Ellipse 268" cx="2.722" cy="2.722" r="2.722" transform="translate(14.097 32.617)" fill="#fff"/>
      <path id="Path_2451" data-name="Path 2451" d="M348.666,446.25a1.185,1.185,0,0,0-1.167,1.2v27.2a1.185,1.185,0,0,0,1.167,1.2h60.471a1.185,1.185,0,0,0,1.167-1.2v-27.2a1.185,1.185,0,0,0-1.167-1.2Z" transform="translate(-340.403 -381.356)" fill="#56b39d"/>
      <path id="Path_2452" data-name="Path 2452" d="M400.308,503.565h22.013a.709.709,0,0,0,.5-1.21l-14.088-14.088a.71.71,0,0,0-1,0l-3.5,3.5a1.486,1.486,0,0,1-2.1,0L391.153,480.8a.71.71,0,0,0-1,0L368.69,502.258a.709.709,0,0,0,.5,1.21h31.146Z" transform="translate(-357.305 -409.019)" fill="#fff"/>
      <circle id="Ellipse_269" data-name="Ellipse 269" cx="2.722" cy="2.722" r="2.722" transform="translate(14.097 68.589)" fill="#fff"/>
      <path id="Path_2453" data-name="Path 2453" d="M446.75,227.5a1.752,1.752,0,0,0-1.75,1.75v97.22a1.752,1.752,0,0,0,1.75,1.75h71.943a1.752,1.752,0,0,0,1.75-1.75V229.25a1.752,1.752,0,0,0-1.75-1.75Z" transform="translate(-418.945 -205.139)" fill="#56b39d"/>
      <path id="Path_2454" data-name="Path 2454" d="M457.736,241.5A1.766,1.766,0,0,0,456,243.291v92.471a1.766,1.766,0,0,0,1.736,1.791h67.5a1.766,1.766,0,0,0,1.736-1.791V243.291a1.766,1.766,0,0,0-1.736-1.791Z" transform="translate(-427.806 -216.417)" fill="#f7fcfa"/>
      <path id="Path_2455" data-name="Path 2455" d="M516.028,310.683a.779.779,0,0,0-.778.778v3.57a.779.779,0,0,0,.778.778h45.888a.779.779,0,0,0,.778-.778v-3.57a.779.779,0,0,0-.778-.778Z" transform="translate(-475.536 -272.148)" fill="#1e9a7d"/>
      <path id="Path_2456" data-name="Path 2456" d="M516.944,371.439a.2.2,0,0,0-.194.194v1.394a.2.2,0,0,0,.194.194H563.61a.2.2,0,0,0,.194-.194v-1.394a.2.2,0,0,0-.194-.194Z" transform="translate(-476.744 -321.091)" fill="#cfe9e3"/>
      <path id="Path_2457" data-name="Path 2457" d="M516.944,394.734a.2.2,0,0,0-.194.194v1.394a.2.2,0,0,0,.194.194H563.61a.2.2,0,0,0,.194-.194v-1.394a.2.2,0,0,0-.194-.194Z" transform="translate(-476.744 -339.856)" fill="#cfe9e3"/>
      <path id="Path_2458" data-name="Path 2458" d="M516.944,418.029a.2.2,0,0,0-.194.194v1.393a.2.2,0,0,0,.194.194H563.61a.2.2,0,0,0,.194-.194v-1.393a.2.2,0,0,0-.194-.194Z" transform="translate(-476.744 -358.622)" fill="#cfe9e3"/>
      <path id="Path_2459" data-name="Path 2459" d="M516.444,464.561a.2.2,0,0,0-.194.194v1.393a.2.2,0,0,0,.194.194H563.11a.2.2,0,0,0,.194-.194v-1.393a.2.2,0,0,0-.194-.194Z" transform="translate(-476.341 -396.106)" fill="#cfe9e3"/>
      <path id="Path_2460" data-name="Path 2460" d="M516.444,487.856a.2.2,0,0,0-.194.194v1.393a.2.2,0,0,0,.194.194H563.11a.2.2,0,0,0,.194-.194V488.05a.2.2,0,0,0-.194-.194Z" transform="translate(-476.341 -414.872)" fill="#cfe9e3"/>
      <path id="Path_2461" data-name="Path 2461" d="M516.444,511.15a.2.2,0,0,0-.194.194v1.394a.2.2,0,0,0,.194.194H563.11a.2.2,0,0,0,.194-.194v-1.394a.2.2,0,0,0-.194-.194Z" transform="translate(-476.341 -433.637)" fill="#cfe9e3"/>
      <path id="Path_2462" data-name="Path 2462" d="M516.444,534.561a.2.2,0,0,0-.194.194v1.394a.2.2,0,0,0,.194.194H563.11a.2.2,0,0,0,.194-.194v-1.394a.2.2,0,0,0-.194-.194Z" transform="translate(-476.341 -452.495)" fill="#cfe9e3"/>
      <path id="Path_2463" data-name="Path 2463" d="M516.444,557.855a.2.2,0,0,0-.194.194v1.394a.2.2,0,0,0,.194.194H563.11a.2.2,0,0,0,.194-.194V558.05a.2.2,0,0,0-.194-.194Z" transform="translate(-476.341 -471.261)" fill="#cfe9e3"/>
      <path id="Path_2464" data-name="Path 2464" d="M516.444,581.15a.2.2,0,0,0-.194.194v1.394a.2.2,0,0,0,.194.194H563.11a.2.2,0,0,0,.194-.194v-1.394a.2.2,0,0,0-.194-.194Z" transform="translate(-476.341 -490.026)" fill="#cfe9e3"/>
      <path id="Path_2465" data-name="Path 2465" d="M516.444,604.561a.2.2,0,0,0-.194.194v1.394a.2.2,0,0,0,.194.194H563.11a.2.2,0,0,0,.194-.194v-1.394a.2.2,0,0,0-.194-.194Z" transform="translate(-476.341 -508.884)" fill="#cfe9e3"/>
      <path id="Path_2466" data-name="Path 2466" d="M516.444,627.855a.2.2,0,0,0-.194.194v1.394a.2.2,0,0,0,.194.194H563.11a.2.2,0,0,0,.194-.194V628.05a.2.2,0,0,0-.194-.194Z" transform="translate(-476.341 -527.65)" fill="#cfe9e3"/>
      <path id="Path_2467" data-name="Path 2467" d="M516.444,651.15a.2.2,0,0,0-.194.194v1.394a.2.2,0,0,0,.194.194H563.11a.2.2,0,0,0,.194-.194v-1.394a.2.2,0,0,0-.194-.194Z" transform="translate(-476.341 -546.415)" fill="#cfe9e3"/>
      <path id="Path_2961" data-name="Path 2961" d="M14.019,0A14.019,14.019,0,1,1,0,14.019,14.019,14.019,0,0,1,14.019,0Z" transform="translate(84.232 103.117)" fill="#476285"/>
      <path id="Path_2468" data-name="Path 2468" d="M480.443,583.219l-4.249-5.462,2.471-1.922,2.012,2.586,6.8-7.173,2.272,2.153Z" transform="translate(-383.603 -460.175)" fill="#fff"/>
    </g>
  </g>
</svg>
