<svg xmlns="http://www.w3.org/2000/svg" width="157.637" height="147" viewBox="0 0 157.637 147">
  <g id="Group_2463" data-name="Group 2463" transform="translate(-1460.363 -2494)">
    <g id="Path_3117" data-name="Path 3117" transform="translate(1471 2494)" fill="#1e9a7d">
      <path d="M 73.5 146 C 63.71212005615234 146 54.21755981445313 144.0832672119141 45.2800407409668 140.3029937744141 C 40.98434066772461 138.4860534667969 36.84104156494141 136.2371673583984 32.96525955200195 133.6187133789063 C 29.12603950500488 131.0249938964844 25.51577949523926 128.0462646484375 22.23476028442383 124.7652435302734 C 18.95373916625977 121.4842224121094 15.97500038146973 117.8739624023438 13.38127994537354 114.0347366333008 C 10.76284027099609 110.1589584350586 8.51393985748291 106.0156631469727 6.697000026702881 101.7199630737305 C 2.916739940643311 92.78244018554688 1 83.28787994384766 1 73.5 C 1 63.71212005615234 2.916739940643311 54.21755981445313 6.697000026702881 45.2800407409668 C 8.51393985748291 40.98434066772461 10.76284027099609 36.84104156494141 13.38127994537354 32.96525955200195 C 15.97500038146973 29.12603950500488 18.95373916625977 25.51577949523926 22.23476028442383 22.23476028442383 C 25.51577949523926 18.95373916625977 29.12603950500488 15.97500038146973 32.96525955200195 13.38127994537354 C 36.84104156494141 10.76284027099609 40.98434066772461 8.51393985748291 45.2800407409668 6.697000026702881 C 54.21755981445313 2.916739940643311 63.71212005615234 1 73.5 1 C 83.28787994384766 1 92.78244018554688 2.916739940643311 101.7199630737305 6.697000026702881 C 106.0156631469727 8.51393985748291 110.1589584350586 10.76284027099609 114.0347366333008 13.38127994537354 C 117.8739624023438 15.97500038146973 121.4842224121094 18.95373916625977 124.7652435302734 22.23476028442383 C 128.0462646484375 25.51577949523926 131.0249938964844 29.12603950500488 133.6187133789063 32.96525955200195 C 136.2371673583984 36.84104156494141 138.4860534667969 40.98434066772461 140.3029937744141 45.2800407409668 C 144.0832672119141 54.21755981445313 146 63.71212005615234 146 73.5 C 146 80.76614379882813 144.9258270263672 87.93678283691406 142.8072967529297 94.81275939941406 C 140.7500457763672 101.4899597167969 137.7147827148438 107.8735809326172 133.7858581542969 113.7862777709961 C 127.3580169677734 123.4607162475586 118.5404815673828 131.5370635986328 108.2864990234375 137.1421966552734 C 103.0681228637695 139.9947204589844 97.50669860839844 142.1960144042969 91.75672149658203 143.6849365234375 C 85.82430267333984 145.2210998535156 79.68186187744141 146 73.5 146 Z" stroke="none"/>
      <path d="M 73.5 2 C 63.8466796875 2 54.48317718505859 3.890167236328125 45.66960144042969 7.617996215820313 C 41.43335723876953 9.409774780273438 37.34734344482422 11.62762451171875 33.52506256103516 14.20989990234375 C 29.73860168457031 16.76797485351563 26.17787933349609 19.70584106445313 22.94185638427734 22.94185638427734 C 19.70584106445313 26.17787933349609 16.76797485351563 29.73860168457031 14.20989990234375 33.52506256103516 C 11.62762451171875 37.34734344482422 9.409774780273438 41.43335723876953 7.617996215820313 45.66960144042969 C 3.890167236328125 54.48317718505859 2 63.8466796875 2 73.5 C 2 83.1533203125 3.890167236328125 92.51681518554688 7.617996215820313 101.3303985595703 C 9.409774780273438 105.5666351318359 11.62762451171875 109.6526641845703 14.20989990234375 113.4749450683594 C 16.76797485351563 117.2613983154297 19.70584106445313 120.8221206665039 22.94185638427734 124.0581359863281 C 26.17787933349609 127.2941589355469 29.73860168457031 130.2320251464844 33.52506256103516 132.7901000976563 C 37.34734344482422 135.3723754882813 41.43335723876953 137.5902252197266 45.66960144042969 139.3820037841797 C 54.48317718505859 143.1098327636719 63.8466796875 145 73.5 145 C 79.59734344482422 145 85.65544128417969 144.2318420410156 91.50604248046875 142.7168579101563 C 97.17631530761719 141.2485809326172 102.6607055664063 139.0777587890625 107.8068389892578 136.2647399902344 C 117.9191207885742 130.737060546875 126.6144790649414 122.7727966308594 132.9529571533203 113.2328414916992 C 136.8287048339844 107.4001617431641 139.8226623535156 101.1036987304688 141.8516387939453 94.51829528808594 C 143.9407348632813 87.73782348632813 145 80.66623687744141 145 73.5 C 145 63.8466796875 143.1098327636719 54.48317718505859 139.3820037841797 45.66960144042969 C 137.5902252197266 41.43335723876953 135.3723754882813 37.34734344482422 132.7901000976563 33.52506256103516 C 130.2320251464844 29.73860168457031 127.2941589355469 26.17787933349609 124.0581359863281 22.94185638427734 C 120.8221206665039 19.70584106445313 117.2613983154297 16.76797485351563 113.4749450683594 14.20989990234375 C 109.6526641845703 11.62762451171875 105.5666351318359 9.409774780273438 101.3303985595703 7.617996215820313 C 92.51681518554688 3.890167236328125 83.1533203125 2 73.5 2 M 73.5 0 C 114.0929183959961 0 147 32.90708160400391 147 73.5 C 147 88.51937866210938 142.4950256347656 102.4865798950195 134.6187438964844 114.3397216796875 C 121.5965805053711 133.9391784667969 99.07353973388672 147 73.5 147 C 32.90708160400391 147 0 114.0929183959961 0 73.5 C 0 32.90708160400391 32.90708160400391 0 73.5 0 Z" stroke="none" fill="#1e9a7d"/>
    </g>
    <g id="Group_2445" data-name="Group 2445" transform="translate(-32.756 -104.04)">
      <g id="Group_2258" data-name="Group 2258" transform="translate(1532.143 2610.936)">
        <path id="Subtraction_18" data-name="Subtraction 18" d="M84.506,116.847l-80.6-.062,0-.006a34.281,34.281,0,0,1-1.949-4.791A38.058,38.058,0,0,1,0,100.369l.231-87.7C.235,3.586.408.444,3.782.433L76.955.04C80.2,3,86.775,8.986,90.408,12.291c.132,1.361.2,2.77.2,4.188v83.89c0,1.025.012,2.019.023,2.98.046,3.77.085,7.025-.672,9.388a5.718,5.718,0,0,1-1.833,2.842A6.5,6.5,0,0,1,84.506,116.847Z" transform="translate(0.001)" fill="#e9f5f2"/>
        <g id="Group_2258-2" data-name="Group 2258" transform="translate(0 0)">
          <path id="Path_2252" data-name="Path 2252" d="M389.754,338.356a5.185,5.185,0,0,0-2.483,4.424v.763h.61v-.763a4.585,4.585,0,0,1,3.4-4.424Zm74.91-.763H392.457a5.193,5.193,0,0,0-5.186,5.186V449.253a5.194,5.194,0,0,0,5.186,5.186h80.237a5.194,5.194,0,0,0,5.187-5.186v-99.86Zm12.606,111.66a4.582,4.582,0,0,1-4.576,4.576H392.457a4.582,4.582,0,0,1-4.576-4.576V342.78a4.584,4.584,0,0,1,3.4-4.424,4.525,4.525,0,0,1,1.175-.153h71.975l12.838,11.462Zm-87.516-110.9a5.185,5.185,0,0,0-2.483,4.424v.763h.61v-.763a4.584,4.584,0,0,1,3.4-4.424Z" transform="translate(-387.27 -337.593)" fill="#e9f5f2"/>
          <path id="Path_2253" data-name="Path 2253" d="M652.694,349.8h-8.237a5.192,5.192,0,0,1-5.186-5.186V337.9a.305.305,0,1,1,.61,0v6.712a4.581,4.581,0,0,0,4.576,4.576h8.237a.305.305,0,1,1,0,.61Z" transform="translate(-562.389 -337.593)" fill="#3f3d56"/>
          <path id="Path_2254" data-name="Path 2254" d="M485.811,432.974H416.252a2.441,2.441,0,0,1,0-4.881h69.559a2.441,2.441,0,0,1,0,4.881Z" transform="translate(-405.714 -346.483)" fill="#56b39d"/>
          <path id="Path_2255" data-name="Path 2255" d="M450.727,398.975H416.252a2.441,2.441,0,1,1,0-4.881h34.474a2.441,2.441,0,0,1,0,4.881Z" transform="translate(-405.714 -322.856)" fill="#56b39d"/>
          <path id="Path_2256" data-name="Path 2256" d="M485.811,499.974H416.252a2.441,2.441,0,1,1,0-4.881h69.559a2.441,2.441,0,0,1,0,4.881Z" transform="translate(-405.714 -393.043)" fill="#56b39d"/>
          <path id="Path_2257" data-name="Path 2257" d="M450.727,465.974H416.252a2.441,2.441,0,0,1,0-4.881h34.474a2.441,2.441,0,0,1,0,4.881Z" transform="translate(-405.714 -369.415)" fill="#56b39d"/>
          <path id="Path_2956" data-name="Path 2956" d="M482.94,583.288H418.263a5.04,5.04,0,0,1-5.034-5.034V552.627a5.04,5.04,0,0,1,5.034-5.034H482.94a5.04,5.04,0,0,1,5.034,5.034v25.627A5.04,5.04,0,0,1,482.94,583.288Z" transform="translate(-405.31 -530.356)" fill="#3f3d56"/>
        </g>
        <path id="Path_2364" data-name="Path 2364" d="M604.549,116.808v8.156s1.111,3.5,3.933,3.972,4.021-2.759,4.039-3.1-3.275-8.349-3.275-8.349l-2.692-.676Z" transform="translate(-604.162 -12.411)" fill="#e9f5f2"/>
      </g>
      <path id="Path_2259" data-name="Path 2259" d="M151.887,577.1l-2.914-3.124,3.124-2.914,2.914,3.124Zm-2.449-3.108,2.465,2.643,2.643-2.465-2.465-2.643Z" transform="translate(1362.528 2049.322)" fill="#2f2e41"/>
      <path id="Path_2260" data-name="Path 2260" d="M151.887,577.1l-2.914-3.124,3.124-2.914,2.914,3.124Zm-2.449-3.108,2.465,2.643,2.643-2.465-2.465-2.643Z" transform="translate(1487.04 2156.718)" fill="#2f2e41"/>
      <circle id="Ellipse_218" data-name="Ellipse 218" cx="2.181" cy="2.181" r="2.181" transform="translate(1639.032 2610.936)" fill="#3f3d56"/>
      <circle id="Ellipse_219" data-name="Ellipse 219" cx="2.181" cy="2.181" r="2.181" transform="translate(1493.119 2687.065)" fill="#3f3d56"/>
    </g>
  </g>
</svg>
