<svg xmlns="http://www.w3.org/2000/svg" width="169.094" height="151" viewBox="0 0 169.094 151">
  <g id="Group_2458" data-name="Group 2458" transform="translate(-667.953 -1368)">
    <path id="Path_1725" data-name="Path 1725" d="M73.5,0A73.5,73.5,0,1,1,0,73.5,73.5,73.5,0,0,1,73.5,0Z" transform="translate(679 1368)" fill="#c6e5de"/>
    <g id="Group_2434" data-name="Group 2434" transform="translate(531.275 1358.824)">
      <g id="Group_2263" data-name="Group 2263" transform="translate(136.678 13.176)">
        <path id="Path_2066" data-name="Path 2066" d="M330.53,212.381v15.913a.556.556,0,0,1-.555.555h-.395v82.9a8.65,8.65,0,0,1-8.649,8.649h-51.8a8.647,8.647,0,0,1-8.647-8.649V231.756H260.2a.392.392,0,0,1-.392-.39V222.31a.392.392,0,0,1,.393-.392h.286v-3.411H260.2a.411.411,0,0,1-.409-.412v-8.933a.41.41,0,0,1,.409-.409h.288V204.1h-.293a.363.363,0,0,1-.363-.363v-4.875a.365.365,0,0,1,.363-.366h.293v-9.87a8.647,8.647,0,0,1,8.647-8.647h51.8a8.649,8.649,0,0,1,8.649,8.647v23.205h.395A.556.556,0,0,1,330.53,212.381Z" transform="translate(-208.501 -179.974)" fill="#3f3d56"/>
        <rect id="Rectangle_782" data-name="Rectangle 782" width="9.648" height="1.959" rx="0.98" transform="translate(79.959 4.435)" fill="#e6e8ec"/>
        <circle id="Ellipse_169" data-name="Ellipse 169" cx="1.111" cy="1.111" r="1.111" transform="translate(91.452 4.304)" fill="#e6e8ec"/>
        <path id="Path_2067" data-name="Path 2067" d="M341.362,205.562V327.692a5.488,5.488,0,0,1-5.488,5.485H286.292a5.478,5.478,0,0,1-5.488-5.485V205.562a5.487,5.487,0,0,1,5.488-5.488h7.421v.952a4.519,4.519,0,0,0,4.518,4.518h25.216a4.519,4.519,0,0,0,4.518-4.518v-.952h7.908A5.486,5.486,0,0,1,341.362,205.562Z" transform="translate(-224.409 -195.204)" fill="#56b39d"/>
        <rect id="Rectangle_783" data-name="Rectangle 783" width="56.209" height="27.378" transform="translate(58.84 44.907)" opacity="0.2"/>
        <rect id="Rectangle_785" data-name="Rectangle 785" width="56.209" height="27.378" transform="translate(58.84 91.578)" fill="#3f3d56"/>
        <ellipse id="Ellipse_170" data-name="Ellipse 170" cx="4.846" cy="4.846" rx="4.846" ry="4.846" transform="translate(105.615 14.932)" fill="#fff"/>
        <path id="Path_2068" data-name="Path 2068" d="M429.189,114.3h-2.025v-2.025h-.311V114.3h-2.025v.312h2.025v2.025h.311v-2.025h2.025Z" transform="translate(-316.583 -94.682)" fill="#3f3d56"/>
        <path id="Path_2076" data-name="Path 2076" d="M152.235,577.825l-3.262-3.5,3.5-3.262,3.262,3.5Zm-2.742-3.479,2.76,2.96,2.959-2.76-2.76-2.96Z" transform="translate(-127.552 -471.347)" fill="#2f2e41"/>
        <ellipse id="Ellipse_171" data-name="Ellipse 171" cx="2.442" cy="2.442" rx="2.442" ry="2.442" transform="translate(24.989 21.376)" fill="#3f3d56"/>
        <ellipse id="Ellipse_199" data-name="Ellipse 199" cx="2.442" cy="2.442" rx="2.442" ry="2.442" transform="translate(155.687 29.235)" fill="#3f3d56"/>
        <ellipse id="Ellipse_200" data-name="Ellipse 200" cx="2.442" cy="2.442" rx="2.442" ry="2.442" transform="translate(164.21 89.136)" fill="#3f3d56"/>
        <path id="Path_2077" data-name="Path 2077" d="M151.042,263.273a7.054,7.054,0,1,1,7.054-7.054A7.054,7.054,0,0,1,151.042,263.273Zm0-13.566a6.512,6.512,0,1,0,6.512,6.512,6.512,6.512,0,0,0-6.512-6.512Z" transform="translate(-123.792 -232.402)" fill="#2f2e41"/>
        <path id="Path_2178" data-name="Path 2178" d="M151.042,263.273a7.054,7.054,0,1,1,7.054-7.054A7.054,7.054,0,0,1,151.042,263.273Zm0-13.566a6.512,6.512,0,1,0,6.512,6.512,6.512,6.512,0,0,0-6.512-6.512Z" transform="translate(6.906 -224.542)" fill="#2f2e41"/>
        <path id="Path_2085" data-name="Path 2085" d="M0,0H0Z" transform="translate(0 147)" fill="#3f3d56"/>
        <rect id="Rectangle_788" data-name="Rectangle 788" width="56.209" height="27.378" transform="translate(71.867 40.546)" fill="#3f3d56"/>
        <path id="Path_2080" data-name="Path 2080" d="M503.439,398.3a.757.757,0,0,1-.7.427,1.118,1.118,0,0,1-.286-.038,3.859,3.859,0,0,1-1.96-1.855,4,4,0,0,1-.645-2.533,2.02,2.02,0,0,1,.27-.115,1.26,1.26,0,0,1,.148-.044,3.142,3.142,0,0,0,.53,2.517,3.56,3.56,0,0,0,1.745,1.691.474.474,0,0,0,.653-.378l.044.057.155.207Z" transform="translate(-389.039 -342.25)" fill="#3f3d56"/>
        <path id="Path_2081" data-name="Path 2081" d="M478.385,581.761l-.021-.014-.308-.193a3.476,3.476,0,0,0-1.205-2.127,3.708,3.708,0,0,0-2.08-1.155,1.863,1.863,0,0,1,.219-.219h0c.035-.03.071-.059.11-.087a4.542,4.542,0,0,1,1.993,1.213A3.438,3.438,0,0,1,478.385,581.761Z" transform="translate(-370.377 -476.577)" fill="#3f3d56"/>
      </g>
    </g>
  </g>
</svg>
