<svg xmlns="http://www.w3.org/2000/svg" width="157.547" height="147" viewBox="0 0 157.547 147">
  <g id="Group_2457" data-name="Group 2457" transform="translate(-87.368)">
    <path id="Path_2177" data-name="Path 2177" d="M73.5,0A73.5,73.5,0,1,1,0,73.5,73.5,73.5,0,0,1,73.5,0Z" transform="translate(91)" fill="#c6e5de"/>
    <g id="Group_2262" data-name="Group 2262" transform="translate(6062.959 645.345)">
      <path id="Path_2267" data-name="Path 2267" d="M393.207,263.38v91.4a1.742,1.742,0,0,1-1.558,1.88H237.216a1.435,1.435,0,0,1-1.1-.551,2.091,2.091,0,0,1-.455-1.329v-91.4a2.091,2.091,0,0,1,.455-1.329,1.435,1.435,0,0,1,1.1-.551H391.649A1.742,1.742,0,0,1,393.207,263.38Z" transform="translate(-6211.25 -882.192)" fill="#3f3d56"/>
      <path id="Path_2268" data-name="Path 2268" d="M393.207,262.754v4.221H235.66v-4.221a1.162,1.162,0,0,1,1.04-1.254H392.168A1.162,1.162,0,0,1,393.207,262.754Z" transform="translate(-6211.25 -882.192)" fill="#ecf6f4"/>
      <circle id="Ellipse_220" data-name="Ellipse 220" cx="1.304" cy="1.304" r="1.304" transform="translate(-5972.723 -619.389)" fill="#56b39d"/>
      <circle id="Ellipse_221" data-name="Ellipse 221" cx="1.304" cy="1.304" r="1.304" transform="translate(-5969.072 -619.389)" fill="#56b39d"/>
      <circle id="Ellipse_222" data-name="Ellipse 222" cx="1.304" cy="1.304" r="1.304" transform="translate(-5965.422 -619.389)" fill="#56b39d"/>
      <path id="Path_2269" data-name="Path 2269" d="M448.537,403.174v15.69l-96.62.07-.088-31.365c1.02,4.018,3.539,4.74,7.974-2.346,10.838-17.3,25.571-21.849,36.976-22.326,7.8-.329,15.591,1.825,23.023,6.1,3.087,1.781,15.285,3.7,23.335,4.552,3.03.319,5.368,3.693,5.375,7.754Z" transform="translate(-6297.132 -957.128)" fill="#d9eee9" opacity="0.609"/>
      <path id="Path_2270" data-name="Path 2270" d="M448.537,426.018V457.2H351.83v-6.779c2.765-.931,13.106-4.511,18.063-14.4,5.931-11.837,13.993-14.95,20.231-15.276,4.275-.227,8.53,1.241,12.593,4.172,4.57,3.3,13.379,7.272,20.071-4.271,7.4-12.762,18.774-2.245,21.657,1.622A31.262,31.262,0,0,0,448.537,426.018Z" transform="translate(-6297.132 -995.316)" fill="#ecf6f4"/>
      <path id="Path_2271" data-name="Path 2271" d="M265.83,251.28v63.763h96.707" transform="translate(-6211.132 -853.648)" fill="none" stroke="#56b39d" stroke-miterlimit="10" stroke-width="2"/>
      <g id="Group_2262-2" data-name="Group 2262" transform="translate(-5944.803 -594.354)">
        <line id="Line_383" data-name="Line 383" y1="38.871" transform="translate(0 16.877)" fill="none" stroke="#56b39d" stroke-miterlimit="10" stroke-width="1"/>
        <line id="Line_384" data-name="Line 384" y1="49.269" transform="translate(15.685 6.479)" fill="none" stroke="#56b39d" stroke-miterlimit="10" stroke-width="1"/>
        <line id="Line_385" data-name="Line 385" y1="54.215" transform="translate(31.371 1.533)" fill="none" stroke="#56b39d" stroke-miterlimit="10" stroke-width="1"/>
        <line id="Line_386" data-name="Line 386" y1="55.748" transform="translate(47.056)" fill="none" stroke="#56b39d" stroke-miterlimit="10" stroke-width="1"/>
        <line id="Line_387" data-name="Line 387" y1="54.043" transform="translate(62.741 1.705)" fill="none" stroke="#56b39d" stroke-miterlimit="10" stroke-width="1"/>
        <line id="Line_388" data-name="Line 388" y1="47.736" transform="translate(78.426 8.012)" fill="none" stroke="#56b39d" stroke-miterlimit="10" stroke-width="1"/>
        <line id="Line_389" data-name="Line 389" y1="44.498" transform="translate(94.111 11.25)" fill="none" stroke="#56b39d" stroke-miterlimit="10" stroke-width="1"/>
      </g>
      <circle id="Ellipse_224" data-name="Ellipse 224" cx="2.899" cy="2.899" r="2.899" transform="translate(-5932.78 -590.774)" fill="#56b39d"/>
      <circle id="Ellipse_225" data-name="Ellipse 225" cx="2.899" cy="2.899" r="2.899" transform="translate(-5915.863 -595.548)" fill="#56b39d"/>
      <circle id="Ellipse_226" data-name="Ellipse 226" cx="2.899" cy="2.899" r="2.899" transform="translate(-5900.948 -597.253)" fill="#56b39d"/>
      <circle id="Ellipse_227" data-name="Ellipse 227" cx="2.899" cy="2.899" r="2.899" transform="translate(-5885.031 -595.548)" fill="#56b39d"/>
      <circle id="Ellipse_228" data-name="Ellipse 228" cx="2.899" cy="2.899" r="2.899" transform="translate(-5869.114 -590.774)" fill="#56b39d"/>
      <circle id="Ellipse_229" data-name="Ellipse 229" cx="2.899" cy="2.899" r="2.899" transform="translate(-5853.591 -587.875)" fill="#56b39d"/>
    </g>
  </g>
</svg>
