<svg xmlns="http://www.w3.org/2000/svg" xmlns:xlink="http://www.w3.org/1999/xlink" width="187.884" height="147" viewBox="0 0 187.884 147">
  <defs>
    <clipPath id="clip-path">
      <circle id="Ellipse_238" data-name="Ellipse 238" cx="23" cy="23" r="23" transform="translate(1217 1454)" fill="#fff" stroke="#707070" stroke-width="1"/>
    </clipPath>
  </defs>
  <g id="Group_2459" data-name="Group 2459" transform="translate(-98.558)">
    <rect id="Rectangle_1040" data-name="Rectangle 1040" width="155" height="106" rx="2" transform="translate(99 21)" fill="#3f3d56"/>
    <rect id="Rectangle_1041" data-name="Rectangle 1041" width="155" height="9" rx="1" transform="translate(99 21)" fill="#605e7e"/>
    <g id="Group_2457" data-name="Group 2457" transform="translate(18)">
      <path id="Path_2177" data-name="Path 2177" d="M73.5,0A73.5,73.5,0,1,1,0,73.5,73.5,73.5,0,0,1,73.5,0Z" transform="translate(91)" fill="#c6e5de"/>
      <g id="Group_2262" data-name="Group 2262" transform="translate(6062.959 645.345)">
        <path id="Path_2267" data-name="Path 2267" d="M393.207,263.38v91.4a1.742,1.742,0,0,1-1.558,1.88H237.216a1.435,1.435,0,0,1-1.1-.551,2.091,2.091,0,0,1-.455-1.329v-91.4a2.091,2.091,0,0,1,.455-1.329,1.435,1.435,0,0,1,1.1-.551H391.649A1.742,1.742,0,0,1,393.207,263.38Z" transform="translate(-6211.25 -882.192)" fill="#3f3d56"/>
        <path id="Path_2268" data-name="Path 2268" d="M393.207,262.754v4.221H235.66v-4.221a1.162,1.162,0,0,1,1.04-1.254H392.168A1.162,1.162,0,0,1,393.207,262.754Z" transform="translate(-6211.25 -882.192)" fill="#ecf6f4"/>
        <circle id="Ellipse_220" data-name="Ellipse 220" cx="1.304" cy="1.304" r="1.304" transform="translate(-5972.723 -619.389)" fill="#56b39d"/>
        <circle id="Ellipse_221" data-name="Ellipse 221" cx="1.304" cy="1.304" r="1.304" transform="translate(-5969.072 -619.389)" fill="#56b39d"/>
        <circle id="Ellipse_222" data-name="Ellipse 222" cx="1.304" cy="1.304" r="1.304" transform="translate(-5965.422 -619.389)" fill="#56b39d"/>
        <path id="Path_2269" data-name="Path 2269" d="M448.537,403.174v15.69l-96.62.07-.088-31.365c1.02,4.018,3.539,4.74,7.974-2.346,10.838-17.3,25.571-21.849,36.976-22.326,7.8-.329,15.591,1.825,23.023,6.1,3.087,1.781,15.285,3.7,23.335,4.552,3.03.319,5.368,3.693,5.375,7.754Z" transform="translate(-6297.132 -957.128)" fill="#d9eee9" opacity="0.609"/>
        <path id="Path_2270" data-name="Path 2270" d="M448.537,426.018V457.2H351.83v-6.779c2.765-.931,13.106-4.511,18.063-14.4,5.931-11.837,13.993-14.95,20.231-15.276,4.275-.227,8.53,1.241,12.593,4.172,4.57,3.3,13.379,7.272,20.071-4.271,7.4-12.762,18.774-2.245,21.657,1.622A31.262,31.262,0,0,0,448.537,426.018Z" transform="translate(-6297.132 -995.316)" fill="#ecf6f4"/>
        <path id="Path_2271" data-name="Path 2271" d="M265.83,251.28v63.763h96.707" transform="translate(-6211.132 -853.648)" fill="none" stroke="#56b39d" stroke-miterlimit="10" stroke-width="2"/>
        <g id="Group_2262-2" data-name="Group 2262" transform="translate(-5944.803 -594.354)">
          <line id="Line_383" data-name="Line 383" y1="38.871" transform="translate(0 16.877)" fill="none" stroke="#56b39d" stroke-miterlimit="10" stroke-width="1"/>
          <line id="Line_384" data-name="Line 384" y1="49.269" transform="translate(15.685 6.479)" fill="none" stroke="#56b39d" stroke-miterlimit="10" stroke-width="1"/>
          <line id="Line_385" data-name="Line 385" y1="54.215" transform="translate(31.371 1.533)" fill="none" stroke="#56b39d" stroke-miterlimit="10" stroke-width="1"/>
          <line id="Line_386" data-name="Line 386" y1="55.748" transform="translate(47.056)" fill="none" stroke="#56b39d" stroke-miterlimit="10" stroke-width="1"/>
          <line id="Line_387" data-name="Line 387" y1="54.043" transform="translate(62.741 1.705)" fill="none" stroke="#56b39d" stroke-miterlimit="10" stroke-width="1"/>
          <line id="Line_388" data-name="Line 388" y1="47.736" transform="translate(78.426 8.012)" fill="none" stroke="#56b39d" stroke-miterlimit="10" stroke-width="1"/>
          <line id="Line_389" data-name="Line 389" y1="44.498" transform="translate(94.111 11.25)" fill="none" stroke="#56b39d" stroke-miterlimit="10" stroke-width="1"/>
        </g>
        <circle id="Ellipse_224" data-name="Ellipse 224" cx="2.899" cy="2.899" r="2.899" transform="translate(-5932.78 -590.774)" fill="#56b39d"/>
        <circle id="Ellipse_225" data-name="Ellipse 225" cx="2.899" cy="2.899" r="2.899" transform="translate(-5915.863 -595.548)" fill="#56b39d"/>
        <circle id="Ellipse_226" data-name="Ellipse 226" cx="2.899" cy="2.899" r="2.899" transform="translate(-5900.948 -597.253)" fill="#56b39d"/>
        <circle id="Ellipse_227" data-name="Ellipse 227" cx="2.899" cy="2.899" r="2.899" transform="translate(-5885.031 -595.548)" fill="#56b39d"/>
        <circle id="Ellipse_228" data-name="Ellipse 228" cx="2.899" cy="2.899" r="2.899" transform="translate(-5869.114 -590.774)" fill="#56b39d"/>
        <circle id="Ellipse_229" data-name="Ellipse 229" cx="2.899" cy="2.899" r="2.899" transform="translate(-5853.591 -587.875)" fill="#56b39d"/>
      </g>
    </g>
    <g id="Group_2264" data-name="Group 2264" transform="translate(-988 -1368)">
      <g id="Group_2264-2" data-name="Group 2264" transform="translate(1086.558 1388.543)">
        <path id="Path_2273" data-name="Path 2273" d="M830.056,270.3a25.3,25.3,0,0,1,3.031,6.684,21.966,21.966,0,0,1,.759,6.487,28.143,28.143,0,0,1-3.686,12.808,40.5,40.5,0,0,1-6.11,8.165q-1.743,1.181-3.487,2.307c-.008,0-.016.011-.024.014-.056.036-.112.072-.164.108l-.718.462s.259.127.119.07l-.127-.051a22.192,22.192,0,0,0-16.436-24.268c.169-.242.351-.473.54-.7a23.412,23.412,0,0,1,3.865,1.462,22.941,22.941,0,0,1,10.373,10,23.455,23.455,0,0,1,2.554,12.871c.2-.18.4-.364.59-.546a41.126,41.126,0,0,0,9.144-11.892,26.182,26.182,0,0,0,2.742-12.387,23.663,23.663,0,0,0-4.744-12.787A54.8,54.8,0,0,0,817.887,258.4a62.272,62.272,0,0,0-12.92-7.976.448.448,0,0,1-.225-.575.381.381,0,0,1,.187-.221.332.332,0,0,1,.288.012c.57.262,1.136.528,1.7.806a62.98,62.98,0,0,1,13.012,8.583A50.7,50.7,0,0,1,830.056,270.3Z" transform="translate(-645.973 -236.964)" fill="#fff"/>
        <rect id="Rectangle_816" data-name="Rectangle 816" width="155.359" height="0.623" transform="translate(0.311 8.731)" fill="#56b39d"/>
        <circle id="Ellipse_234" data-name="Ellipse 234" cx="1.868" cy="1.868" r="1.868" transform="translate(3.736 2.804)" fill="#56b39d"/>
        <circle id="Ellipse_235" data-name="Ellipse 235" cx="1.868" cy="1.868" r="1.868" transform="translate(9.106 2.804)" fill="#56b39d"/>
        <circle id="Ellipse_236" data-name="Ellipse 236" cx="1.868" cy="1.868" r="1.868" transform="translate(14.477 2.804)" fill="#56b39d"/>
        <path id="Path_2281" data-name="Path 2281" d="M455.683,352.152H367.507a2,2,0,1,1,0-4h88.176a2,2,0,0,1,0,4Z" transform="translate(-333.66 -307.285)" fill="#c6e5de" opacity="0.936"/>
        <path id="Path_2282" data-name="Path 2282" d="M455.683,427.14H367.507a2,2,0,1,1,0-4h88.176a2,2,0,0,1,0,4Z" transform="translate(-333.66 -360.79)" fill="#c6e5de" opacity="0.936"/>
        <path id="Path_2283" data-name="Path 2283" d="M455.683,455.915H367.507a2,2,0,1,1,0-4h88.176a2,2,0,0,1,0,4Z" transform="translate(-333.66 -381.322)" fill="#c6e5de" opacity="0.936"/>
        <path id="Path_2284" data-name="Path 2284" d="M477.094,322.506h-59.45a2,2,0,1,1,0-4h59.45a2,2,0,1,1,0,4Z" transform="translate(-369.434 -286.131)" fill="#c6e5de" opacity="0.936"/>
        <path id="Path_2285" data-name="Path 2285" d="M398.872,398.366H367.9a2,2,0,1,1,0-4h30.974a2,2,0,1,1,0,4Z" transform="translate(-333.939 -340.259)" fill="#c6e5de" opacity="0.936"/>
        <path id="Path_2286" data-name="Path 2286" d="M598.549,398.366H567.575a2,2,0,0,1,0-4h30.974a2,2,0,1,1,0,4Z" transform="translate(-476.414 -340.259)" fill="#c6e5de" opacity="0.936"/>
        <path id="Path_2287" data-name="Path 2287" d="M408.133,205.485H256.509a2.181,2.181,0,0,0-2.177,2.18V310.408a2.18,2.18,0,0,0,2.177,2.177l153.8-.622c-.029-.206-.052-.415-.075-.622l-153.73.622a1.557,1.557,0,0,1-1.556-1.556V207.665a1.559,1.559,0,0,1,1.556-1.558H408.133a1.56,1.56,0,0,1,1.558,1.558v62.97c.206.014.415.032.622.052V207.665A2.181,2.181,0,0,0,408.133,205.485Z" transform="translate(-254.332 -205.485)" fill="#56b39d"/>
      </g>
      <g id="Path_2288" data-name="Path 2288" transform="translate(1216 1452)" fill="#fff">
        <path d="M 24 47.75 C 20.79365921020508 47.75 17.68335914611816 47.12208938598633 14.7555103302002 45.88370895385742 C 11.92739963531494 44.68751907348633 9.387459754943848 42.97502136230469 7.206220149993896 40.79378128051758 C 5.024980068206787 38.61254119873047 3.312479972839355 36.07260131835938 2.116290092468262 33.24449157714844 C 0.8779100179672241 30.31664085388184 0.25 27.20634078979492 0.25 24 C 0.25 20.79365921020508 0.8779100179672241 17.68335914611816 2.116290092468262 14.7555103302002 C 3.312479972839355 11.92739963531494 5.024980068206787 9.387459754943848 7.206220149993896 7.206220149993896 C 9.387459754943848 5.024980068206787 11.92739963531494 3.312479972839355 14.7555103302002 2.116290092468262 C 17.68335914611816 0.8779100179672241 20.79365921020508 0.25 24 0.25 C 27.20634078979492 0.25 30.31664085388184 0.8779100179672241 33.24449157714844 2.116290092468262 C 36.07260131835938 3.312479972839355 38.61254119873047 5.024980068206787 40.79378128051758 7.206220149993896 C 42.97502136230469 9.387459754943848 44.68751907348633 11.92739963531494 45.88370895385742 14.7555103302002 C 47.12208938598633 17.68335914611816 47.75 20.79365921020508 47.75 24 C 47.75 27.20634078979492 47.12208938598633 30.31664085388184 45.88370895385742 33.24449157714844 C 44.68751907348633 36.07260131835938 42.97502136230469 38.61254119873047 40.79378128051758 40.79378128051758 C 38.61254119873047 42.97502136230469 36.07260131835938 44.68751907348633 33.24449157714844 45.88370895385742 C 30.31664085388184 47.12208938598633 27.20634078979492 47.75 24 47.75 Z" stroke="none"/>
        <path d="M 24 0.5 C 20.82729911804199 0.5 17.74976921081543 1.121269226074219 14.85289001464844 2.346538543701172 C 12.05458831787109 3.530120849609375 9.541351318359375 5.224628448486328 7.382991790771484 7.382991790771484 C 5.224628448486328 9.541351318359375 3.530120849609375 12.05458831787109 2.346538543701172 14.85289001464844 C 1.121269226074219 17.74976921081543 0.5 20.82729911804199 0.5 24 C 0.5 27.17270088195801 1.121269226074219 30.25023078918457 2.346538543701172 33.14710998535156 C 3.530120849609375 35.94541168212891 5.224628448486328 38.45864868164063 7.382991790771484 40.61701202392578 C 9.541351318359375 42.77537155151367 12.05458831787109 44.46987915039063 14.85289001464844 45.65346145629883 C 17.74976921081543 46.87873077392578 20.82729911804199 47.5 24 47.5 C 27.17270088195801 47.5 30.25023078918457 46.87873077392578 33.14710998535156 45.65346145629883 C 35.94541168212891 44.46987915039063 38.45864868164063 42.77537155151367 40.61701202392578 40.61701202392578 C 42.77537155151367 38.45864868164063 44.46987915039063 35.94541168212891 45.65346145629883 33.14710998535156 C 46.87873077392578 30.25023078918457 47.5 27.17270088195801 47.5 24 C 47.5 20.82729911804199 46.87873077392578 17.74976921081543 45.65346145629883 14.85289001464844 C 44.46987915039063 12.05458831787109 42.77537155151367 9.541351318359375 40.61701202392578 7.382991790771484 C 38.45864868164063 5.224628448486328 35.94541168212891 3.530120849609375 33.14710998535156 2.346538543701172 C 30.25023078918457 1.121269226074219 27.17270088195801 0.5 24 0.5 M 24 0 C 37.25482940673828 0 48 10.74517059326172 48 24 C 48 37.25482940673828 37.25482940673828 48 24 48 C 10.74517059326172 48 0 37.25482940673828 0 24 C 0 10.74517059326172 10.74517059326172 0 24 0 Z" stroke="none" fill="#56b39d"/>
      </g>
      <g id="Mask_Group_6" data-name="Mask Group 6" clip-path="url(#clip-path)">
        <g id="Group_2265" data-name="Group 2265" transform="translate(89.937 62.37)">
          <path id="Path_2289" data-name="Path 2289" d="M770.781,593.774l.05-.526,1.484-15.439a9.456,9.456,0,0,1,1.56-.992,9.2,9.2,0,0,1,7.6-.166,8.3,8.3,0,0,1,1.221.6l.868,16,.029.526Z" transform="translate(372.691 843.856)" fill="#1e9a7d"/>
          <circle id="Ellipse_237" data-name="Ellipse 237" cx="6.462" cy="6.462" r="6.462" transform="translate(1143.96 1404.631)" fill="#ffb8b8"/>
          <path id="Path_2290" data-name="Path 2290" d="M779.106,517.952a3.593,3.593,0,0,0,.879-3.864,3.518,3.518,0,0,0-3.326-2.073,9.915,9.915,0,0,0-2.588.664,8.56,8.56,0,0,1-4.022.362,5.37,5.37,0,0,1-3.425-2.022,3.935,3.935,0,0,1-.484-3.859c.652-1.427,2.175-2.213,3.608-2.852a6.592,6.592,0,0,1,1.832-.6,2.349,2.349,0,0,1,1.822.459c.4.346.639.867,1.077,1.167a3.616,3.616,0,0,0,1.729.389,6.632,6.632,0,0,1,5.745,4.882c.714,2.663.4,5.739-1.834,7.349Z" transform="translate(376.336 897.082)" fill="#d0b892"/>
          <path id="Path_2291" data-name="Path 2291" d="M749.3,580.554l-.963-2.673-.06-.167a.554.554,0,0,0-.828-.273l-1.093.729s-7.012,0-7.575,4.207c-.008.066-.018.139-.026.218a.041.041,0,0,1,0,.01c-.071.276-1.394,5.391-2.531,11.706-.031.174-.063.35-.095.526h15.237C751.864,588.495,751.586,582.6,749.3,580.554Z" transform="translate(398.225 842.792)" fill="#2f2e41"/>
          <path id="Path_2292" data-name="Path 2292" d="M813.726,594.313c-.831-6.478-2.021-11.716-2.021-11.716-.011-.079-.021-.153-.029-.218-.56-4.207-7.572-4.207-7.572-4.207l-1.093-.729a.554.554,0,0,0-.828.273l-1.023,2.839c-2.281,2.043-2.559,7.941-2.063,14.284h14.695C813.771,594.663,813.747,594.487,813.726,594.313Z" transform="translate(351.979 842.791)" fill="#2f2e41"/>
        </g>
      </g>
    </g>
  </g>
</svg>
