<svg xmlns="http://www.w3.org/2000/svg" width="67.677" height="67.677" viewBox="0 0 67.677 67.677">
  <g id="Icon_feather-settings" data-name="Icon feather-settings" transform="translate(0.5 0.5)">
    <path id="Path_2086" data-name="Path 2086" d="M30.866,22.183A8.683,8.683,0,1,1,22.183,13.5,8.683,8.683,0,0,1,30.866,22.183Z" transform="translate(11.155 11.155)" fill="none" stroke="#4d4d4d" stroke-linecap="round" stroke-linejoin="round" stroke-width="4"/>
    <path id="Path_2087" data-name="Path 2087" d="M54.757,42.022a4.776,4.776,0,0,0,.955,5.268l.174.174a5.792,5.792,0,1,1-8.191,8.191l-.174-.174A4.815,4.815,0,0,0,39.359,58.9v.492a5.789,5.789,0,1,1-11.578,0v-.26a4.776,4.776,0,0,0-3.126-4.371,4.776,4.776,0,0,0-5.268.955l-.174.174a5.792,5.792,0,1,1-8.191-8.191l.174-.174a4.815,4.815,0,0,0-3.415-8.162H7.289a5.789,5.789,0,1,1,0-11.578h.26a4.776,4.776,0,0,0,4.371-3.126,4.776,4.776,0,0,0-.955-5.268l-.174-.174a5.792,5.792,0,1,1,8.191-8.191l.174.174a4.776,4.776,0,0,0,5.268.955h.232A4.776,4.776,0,0,0,27.55,7.781V7.289a5.789,5.789,0,0,1,11.578,0v.26a4.815,4.815,0,0,0,8.162,3.415l.174-.174a5.792,5.792,0,1,1,8.191,8.191l-.174.174a4.776,4.776,0,0,0-.955,5.268v.232A4.776,4.776,0,0,0,58.9,27.55h.492a5.789,5.789,0,0,1,0,11.578h-.26a4.776,4.776,0,0,0-4.371,2.894Z" fill="none" stroke="#4d4d4d" stroke-linecap="round" stroke-linejoin="round" stroke-width="4"/>
  </g>
</svg>
