<svg xmlns="http://www.w3.org/2000/svg" width="379.153" height="325.44" viewBox="0 0 379.153 325.44">
  <g id="Group_2310" data-name="Group 2310" transform="translate(-669.77 -439.154)">
    <path id="Path_2550" data-name="Path 2550" d="M219.1,31.619c-14.569-9.737-27.511-23.46-44.327-28.664C158.266-2.154,140.4.02,123.712,4.487c-24.472,6.552-48,18.193-66.2,36.126-25.378,25-38.589,60.132-47.468,94.971C2,167.131-3.123,200.157,2.145,232.307,4.562,247.054,9.42,261.9,19.357,272.889,29.819,284.457,45,290.648,60.25,293.005s30.787,1.23,46.181.225c46.362-3.027,92.9-4.9,139.262-1.952,16.723,1.062,33.966,2.686,49.855-2.743,17.716-6.053,31.921-20.588,40.309-37.624s11.382-36.407,11.4-55.472c.023-29.074-6.894-58.529-22.377-82.936-11.932-18.811-28.584-33.825-46.612-46.366C260.72,53.933,241.272,45.053,223,34.1Q221.029,32.914,219.1,31.619Z" transform="translate(691.881 461.193)" fill="#77bcac" opacity="0.995"/>
    <g id="Group_2308" data-name="Group 2308" transform="translate(669.77 439.154)">
      <g id="Group_2306" data-name="Group 2306" transform="translate(305.739 107.679)">
        <rect id="Rectangle_764" data-name="Rectangle 764" width="59.019" height="11.516" rx="5.758" transform="translate(14.396 0)" fill="#c6e5de"/>
        <rect id="Rectangle_765" data-name="Rectangle 765" width="59.019" height="11.516" rx="5.758" transform="translate(0 11.516)" fill="#c6e5de"/>
        <rect id="Rectangle_766" data-name="Rectangle 766" width="59.019" height="11.516" rx="5.758" transform="translate(14.396 23.032)" fill="#c6e5de"/>
      </g>
      <g id="Group_2307" data-name="Group 2307" transform="translate(0 199.224)">
        <rect id="Rectangle_764-2" data-name="Rectangle 764" width="59.019" height="11.516" rx="5.758" transform="translate(14.396 0)" fill="#c6e5de"/>
        <rect id="Rectangle_765-2" data-name="Rectangle 765" width="59.019" height="11.516" rx="5.758" transform="translate(0 11.516)" fill="#c6e5de"/>
        <rect id="Rectangle_766-2" data-name="Rectangle 766" width="59.019" height="11.516" rx="5.758" transform="translate(14.396 23.032)" fill="#c6e5de"/>
      </g>
      <circle id="Ellipse_281" data-name="Ellipse 281" cx="33.832" cy="33.832" r="33.832" transform="translate(57.618)" fill="#c6e5de"/>
      <path id="Path_2528" data-name="Path 2528" d="M594.544,87.188H553.963V50.3Z" transform="translate(-305.539 -43.492)" fill="#3f3d56"/>
      <path id="Path_2549" data-name="Path 2549" d="M0,0H204.151V282.046H0Z" transform="translate(89.595 42.488)" fill="#effcf9"/>
      <rect id="Rectangle_858" data-name="Rectangle 858" width="24.018" height="50.609" transform="translate(181.119 274.039)" fill="#3f3d56"/>
      <g id="Group_2304" data-name="Group 2304" transform="translate(108.038 62.264)">
        <rect id="Rectangle_852" data-name="Rectangle 852" width="24.018" height="50.609" transform="translate(3.166)" fill="#7bc3b2"/>
        <rect id="Rectangle_853" data-name="Rectangle 853" width="24.018" height="50.609" transform="translate(40.318)" fill="#7bc3b2"/>
        <rect id="Rectangle_854" data-name="Rectangle 854" width="24.018" height="50.609" transform="translate(0 71.731)" fill="#7bc3b2"/>
        <rect id="Rectangle_855" data-name="Rectangle 855" width="24.018" height="50.609" transform="translate(40.318 71.731)" fill="#7bc3b2"/>
        <rect id="Rectangle_856" data-name="Rectangle 856" width="24.018" height="50.609" transform="translate(0 138.102)" fill="#7bc3b2"/>
        <rect id="Rectangle_857" data-name="Rectangle 857" width="24.018" height="50.609" transform="translate(39.412 137.197)" fill="#7bc3b2"/>
        <rect id="Rectangle_859" data-name="Rectangle 859" width="24.018" height="50.609" transform="translate(109.368 137.197)" fill="#7bc3b2"/>
        <rect id="Rectangle_860" data-name="Rectangle 860" width="24.018" height="50.609" transform="translate(149.682 137.197)" fill="#7bc3b2"/>
        <rect id="Rectangle_861" data-name="Rectangle 861" width="24.018" height="50.609" transform="translate(111.513 71.195)" fill="#7bc3b2"/>
        <rect id="Rectangle_862" data-name="Rectangle 862" width="24.018" height="50.609" transform="translate(151.828 71.195)" fill="#7bc3b2"/>
        <rect id="Rectangle_863" data-name="Rectangle 863" width="24.018" height="50.609" transform="translate(111.513)" fill="#7bc3b2"/>
        <rect id="Rectangle_864" data-name="Rectangle 864" width="24.018" height="50.609" transform="translate(151.828)" fill="#7bc3b2"/>
      </g>
      <rect id="Rectangle_865" data-name="Rectangle 865" width="204.151" height="7.72" transform="translate(89.595 107.679)" fill="#3f3d56"/>
      <rect id="Rectangle_866" data-name="Rectangle 866" width="204.151" height="4.289" transform="translate(89.595 167.723)" fill="#3f3d56"/>
      <rect id="Rectangle_867" data-name="Rectangle 867" width="204.151" height="4.289" transform="translate(89.595 153.999)" fill="#3f3d56"/>
      <rect id="Rectangle_868" data-name="Rectangle 868" width="34.311" height="4.289" transform="translate(109.756 220.048) rotate(90)" fill="#3f3d56"/>
      <rect id="Rectangle_869" data-name="Rectangle 869" width="34.311" height="4.289" transform="translate(133.772 220.048) rotate(90)" fill="#3f3d56"/>
      <rect id="Rectangle_870" data-name="Rectangle 870" width="34.311" height="4.289" transform="translate(157.791 220.048) rotate(90)" fill="#3f3d56"/>
      <rect id="Rectangle_871" data-name="Rectangle 871" width="34.311" height="4.289" transform="translate(181.807 220.048) rotate(90)" fill="#3f3d56"/>
      <rect id="Rectangle_872" data-name="Rectangle 872" width="34.311" height="4.289" transform="translate(205.826 220.048) rotate(90)" fill="#3f3d56"/>
      <rect id="Rectangle_873" data-name="Rectangle 873" width="34.311" height="4.289" transform="translate(229.844 220.048) rotate(90)" fill="#3f3d56"/>
      <rect id="Rectangle_874" data-name="Rectangle 874" width="34.311" height="4.289" transform="translate(253.861 220.048) rotate(90)" fill="#3f3d56"/>
      <rect id="Rectangle_875" data-name="Rectangle 875" width="34.311" height="4.289" transform="translate(277.879 220.048) rotate(90)" fill="#3f3d56"/>
      <rect id="Rectangle_876" data-name="Rectangle 876" width="34.311" height="4.289" transform="translate(110.183 154.857) rotate(90)" fill="#3f3d56"/>
      <rect id="Rectangle_877" data-name="Rectangle 877" width="34.311" height="4.289" transform="translate(134.201 154.857) rotate(90)" fill="#3f3d56"/>
      <rect id="Rectangle_878" data-name="Rectangle 878" width="34.311" height="4.289" transform="translate(158.22 154.857) rotate(90)" fill="#3f3d56"/>
      <rect id="Rectangle_879" data-name="Rectangle 879" width="34.311" height="4.289" transform="translate(182.236 154.857) rotate(90)" fill="#3f3d56"/>
      <rect id="Rectangle_880" data-name="Rectangle 880" width="34.311" height="4.289" transform="translate(206.255 154.857) rotate(90)" fill="#3f3d56"/>
      <rect id="Rectangle_881" data-name="Rectangle 881" width="34.311" height="4.289" transform="translate(230.273 154.857) rotate(90)" fill="#3f3d56"/>
      <rect id="Rectangle_882" data-name="Rectangle 882" width="34.311" height="4.289" transform="translate(254.29 154.857) rotate(90)" fill="#3f3d56"/>
      <rect id="Rectangle_883" data-name="Rectangle 883" width="34.311" height="4.289" transform="translate(278.308 154.857) rotate(90)" fill="#3f3d56"/>
      <rect id="Rectangle_884" data-name="Rectangle 884" width="34.311" height="4.289" transform="translate(110.183 78.514) rotate(90)" fill="#3f3d56"/>
      <rect id="Rectangle_885" data-name="Rectangle 885" width="34.311" height="4.289" transform="translate(134.201 78.514) rotate(90)" fill="#3f3d56"/>
      <rect id="Rectangle_886" data-name="Rectangle 886" width="34.311" height="4.289" transform="translate(158.22 78.514) rotate(90)" fill="#3f3d56"/>
      <rect id="Rectangle_887" data-name="Rectangle 887" width="34.311" height="4.289" transform="translate(182.236 78.514) rotate(90)" fill="#3f3d56"/>
      <rect id="Rectangle_888" data-name="Rectangle 888" width="34.311" height="4.289" transform="translate(206.255 78.514) rotate(90)" fill="#3f3d56"/>
      <rect id="Rectangle_889" data-name="Rectangle 889" width="34.311" height="4.289" transform="translate(230.273 78.514) rotate(90)" fill="#3f3d56"/>
      <rect id="Rectangle_890" data-name="Rectangle 890" width="34.311" height="4.289" transform="translate(254.29 78.514) rotate(90)" fill="#3f3d56"/>
      <rect id="Rectangle_891" data-name="Rectangle 891" width="34.311" height="4.289" transform="translate(278.308 78.514) rotate(90)" fill="#3f3d56"/>
      <rect id="Rectangle_892" data-name="Rectangle 892" width="204.151" height="4.289" transform="translate(89.595 90.523)" fill="#3f3d56"/>
      <rect id="Rectangle_893" data-name="Rectangle 893" width="204.151" height="4.289" transform="translate(89.595 76.799)" fill="#3f3d56"/>
      <rect id="Rectangle_894" data-name="Rectangle 894" width="204.151" height="7.72" transform="translate(89.595 182.306)" fill="#3f3d56"/>
      <rect id="Rectangle_895" data-name="Rectangle 895" width="222.939" height="11.504" transform="translate(80.204 39.315)" fill="#3f3d56"/>
      <g id="Group_2305" data-name="Group 2305" transform="translate(120.895 274.038)">
        <path id="Path_2529" data-name="Path 2529" d="M319.752,579.542V568.6H306.62v10.943h13.132Z" transform="translate(-306.62 -568.599)" fill="#7bc3b2"/>
        <path id="Path_2530" data-name="Path 2530" d="M318.658,606.8H306.62v10.944h13.132V606.8Z" transform="translate(-306.62 -587.105)" fill="#7bc3b2"/>
        <rect id="Rectangle_896" data-name="Rectangle 896" width="13.132" height="10.943" transform="translate(21.886 0)" fill="#7bc3b2"/>
        <rect id="Rectangle_897" data-name="Rectangle 897" width="13.132" height="10.943" transform="translate(21.886 19.698)" fill="#7bc3b2"/>
      </g>
      <path id="Path_2531" data-name="Path 2531" d="M527.485,579.542V568.6H514.353v10.943h13.132Z" transform="translate(-286.352 -294.561)" fill="#7bc3b2"/>
      <path id="Path_2532" data-name="Path 2532" d="M526.391,606.8H514.353v10.944h13.132V606.8Z" transform="translate(-286.352 -313.067)" fill="#7bc3b2"/>
      <rect id="Rectangle_898" data-name="Rectangle 898" width="13.132" height="10.943" transform="translate(249.887 274.039)" fill="#7bc3b2"/>
      <rect id="Rectangle_899" data-name="Rectangle 899" width="13.132" height="10.943" transform="translate(249.887 293.736)" fill="#7bc3b2"/>
      <rect id="Rectangle_900" data-name="Rectangle 900" width="204.151" height="7.72" transform="translate(89.595 247.496)" fill="#3f3d56"/>
      <rect id="Rectangle_901" data-name="Rectangle 901" width="204.151" height="4.289" transform="translate(89.595 233.772)" fill="#3f3d56"/>
      <rect id="Rectangle_902" data-name="Rectangle 902" width="204.151" height="4.289" transform="translate(89.595 220.048)" fill="#3f3d56"/>
      <path id="Path_2533" data-name="Path 2533" d="M495.958,730.664q0-.358-.01-.713c-.183-6.323-6.456-8.038-9.819-5.045a5.833,5.833,0,0,0-7.649,0c-3.377-2.946-9.525-1.353-9.728,4.9q-.011.354-.012.712a36.677,36.677,0,0,0,.241,3.934H495.72A36.287,36.287,0,0,0,495.958,730.664Z" transform="translate(-344.556 -409.806)" fill="#4db6ac"/>
      <path id="Path_2534" data-name="Path 2534" d="M702.068,730.664q0-.358-.01-.713c-.183-6.323-6.456-8.038-9.819-5.045a5.833,5.833,0,0,0-7.65,0c-3.377-2.946-9.525-1.353-9.728,4.9q-.012.354-.012.712a36.589,36.589,0,0,0,.241,3.934H701.83A36.287,36.287,0,0,0,702.068,730.664Z" transform="translate(-444.397 -409.806)" fill="#4db6ac"/>
      <rect id="Rectangle_906" data-name="Rectangle 906" width="294.258" height="0.862" transform="translate(44.57 324.577)" fill="#3f3d56"/>
      <circle id="Ellipse_282" data-name="Ellipse 282" cx="30.218" cy="30.218" r="30.218" transform="translate(268.951 215.334)" fill="#c6e5de"/>
      <text id="_" data-name="$" transform="translate(297.726 256.889)" fill="#3f3d56" font-size="39" font-family="Lato-Bold, Lato" font-weight="700"><tspan x="-11.31" y="0">$</tspan></text>
    </g>
  </g>
</svg>
