<svg xmlns="http://www.w3.org/2000/svg" width="34.601" height="30.816" viewBox="0 0 34.601 30.816">
  <g id="Group_2458" data-name="Group 2458" transform="translate(-657 -206)">
    <g id="Component_12_16" data-name="Component 12 – 16" transform="translate(657.736 207.184)">
      <path id="Icon_awesome-connectdevelop" data-name="Icon awesome-connectdevelop" d="M34.1,15.015,31.009,9.657a.993.993,0,0,0,.116-.446.943.943,0,0,0-.909-.926l-3.423-5.92a.965.965,0,0,0,.066-.3.94.94,0,0,0-1.67-.6H18.608a.9.9,0,0,0-1.422,0H10.638a.94.94,0,0,0-1.67.6.87.87,0,0,0,.066.3l-3.456,6a.924.924,0,0,0-.562.843c0,.033.017.066.017.1L1.741,15a.941.941,0,0,0-.777.926.955.955,0,0,0,.744.926l3.406,5.887a.864.864,0,0,0-.05.3.923.923,0,0,0,.744.909L9,29.484a1.068,1.068,0,0,0-.066.331.942.942,0,0,0,.943.943.913.913,0,0,0,.711-.331h6.6a.93.93,0,0,0,1.422,0h6.614a.924.924,0,0,0,.678.3.942.942,0,0,0,.943-.943.685.685,0,0,0-.05-.265l3.191-5.572a.923.923,0,0,0,.744-.909.936.936,0,0,0-.05-.3l3.39-5.887a.942.942,0,0,0,.761-.926.925.925,0,0,0-.728-.909ZM9.6,27.962l-2.7-4.68H9.6Zm0-5.176H6.9a1.016,1.016,0,0,0-.083-.2L9.6,19.661Zm0-3.853L6.487,22.224a1.545,1.545,0,0,0-.248-.1L2.8,16.172a.644.644,0,0,0,.033-.248.873.873,0,0,0-.017-.215l3.208-5.556a1.042,1.042,0,0,0,.48-.165L9.6,13.2v5.738Zm0-6.317L6.768,9.69A.9.9,0,0,0,6.9,9.211c0-.017-.017-.05-.017-.066L9.6,8.169v4.448Zm0-4.977-2.7.976L9.6,3.953Zm20.157,2.414.05.083L27.62,20.455,23.684,16.3l6.052-6.267.017.017Zm-11.625,12,.711.728H17.434Zm-.017-.694L12.969,16.09l4.911-5.209,5.126,5.407Zm.331.364,4.895-5.076,4.167,4.4-.364,1.736H19.484ZM25.453,2.878a.829.829,0,0,0,.215.083L29.24,9.178v.033a.9.9,0,0,0,.132.479l-6.019,6.25-5.126-5.407Zm-.562-.132L17.88,10.17,14.358,6.449l10.269-3.7Zm-7.623,0a.879.879,0,0,0,1.257,0h4.63L13.994,6.053,10.853,2.745h6.416Zm-7.176.347.066-.132q.084-.021.165-.05l3.158,3.324-3.39,1.224Zm0,4.895,3.754-1.356,3.687,3.9-4.911,5.192-2.53-2.6V7.987Zm0,5.721,2.249,2.332L10.092,18.4v-4.7Zm0,5.424,2.6-2.745L17.8,21.7l-1.058,1.091H10.092V19.132Zm.43,10a.888.888,0,0,0-.364-.215l-.066-.1V23.283H16.26L10.6,29.136h-.083Zm8.02,0a.918.918,0,0,0-1.29,0H11.3l5.655-5.854h2.365l5.655,5.854H18.542Zm7.408-.728-.265.463a.831.831,0,0,0-.215.083l-5.506-5.672h7.061L25.95,28.409Zm.794-1.372.794-3.754h1.356l-2.15,3.754Zm2.15-4.25H27.636l.281-1.306L28.975,22.6a.612.612,0,0,0-.083.182Zm4.084-6.631-3.423,5.969a1.668,1.668,0,0,0-.248.116l-1.273-1.356,2.133-10.12,2.828,4.895a1.256,1.256,0,0,0-.05.265,1.116,1.116,0,0,0,.033.231Z" transform="translate(-0.964 -1.125)" fill="#dadada"/>
    </g>
    <circle id="Ellipse_104" data-name="Ellipse 104" cx="2" cy="2" r="2" transform="translate(673 215)" fill="#dadada"/>
    <circle id="Ellipse_105" data-name="Ellipse 105" cx="3" cy="3" r="3" transform="translate(672 224)" fill="#dadada"/>
    <circle id="Ellipse_106" data-name="Ellipse 106" cx="1.5" cy="1.5" r="1.5" transform="translate(679 221)" fill="#dadada"/>
    <circle id="Ellipse_108" data-name="Ellipse 108" cx="2.5" cy="2.5" r="2.5" transform="translate(680 206)" fill="#dadada"/>
    <circle id="Ellipse_107" data-name="Ellipse 107" cx="3" cy="3" r="3" transform="translate(657 219)" fill="#dadada"/>
  </g>
</svg>
