<svg xmlns="http://www.w3.org/2000/svg" width="11.767" height="15.483" viewBox="0 0 11.767 15.483">
  <g id="Icon_ionic-ios-document" data-name="Icon ionic-ios-document" transform="translate(-7.313 -3.938)">
    <path id="Path_1261" data-name="Path 1261" d="M21.337,7.773h3.522a.192.192,0,0,0,.194-.194h0a1.146,1.146,0,0,0-.414-.886L21.685,4.231a1.243,1.243,0,0,0-.8-.286h0a.286.286,0,0,0-.286.286V7.037A.735.735,0,0,0,21.337,7.773Z" transform="translate(-5.973 -0.003)" fill="#1e9a7d"/>
    <path id="Path_1262" data-name="Path 1262" d="M13.622,7.034v-3.1H8.551A1.242,1.242,0,0,0,7.313,5.176V18.182a1.242,1.242,0,0,0,1.239,1.239h9.29a1.242,1.242,0,0,0,1.239-1.239V8.776H15.364A1.744,1.744,0,0,1,13.622,7.034Z" fill="#1e9a7d"/>
  </g>
</svg>
