<svg xmlns="http://www.w3.org/2000/svg" width="24.127" height="29.632" viewBox="0 0 24.127 29.632">
  <g id="Group_2103" data-name="Group 2103" transform="translate(101 -35)">
    <path id="Icon_awesome-mobile-alt" data-name="Icon awesome-mobile-alt" d="M15.742,0H2.778A2.779,2.779,0,0,0,0,2.778V26.854a2.779,2.779,0,0,0,2.778,2.778H15.742a2.779,2.779,0,0,0,2.778-2.778V2.778A2.779,2.779,0,0,0,15.742,0ZM9.26,27.78a1.852,1.852,0,1,1,1.852-1.852A1.85,1.85,0,0,1,9.26,27.78Zm6.482-6.25a.7.7,0,0,1-.694.694H3.472a.7.7,0,0,1-.694-.694V3.472a.7.7,0,0,1,.694-.694H15.047a.7.7,0,0,1,.694.694Z" transform="translate(-101 35)" fill="#dadada"/>
    <g id="Icon_awesome-hand-pointer" data-name="Icon awesome-hand-pointer" transform="translate(-92.734 41.793)" fill="#dadada">
      <path d="M 12.47271251678467 17.48412132263184 L 5.572912216186523 17.48412132263184 C 4.990432262420654 17.48412132263184 4.438122272491455 17.20289039611816 4.09547233581543 16.73183059692383 L -0.1505076289176941 10.89347076416016 C -0.7429676055908203 10.07879066467285 -0.562217652797699 8.933980941772461 0.2524223625659943 8.341500282287598 C 0.566822350025177 8.11284065246582 0.9380123615264893 7.99198055267334 1.325862407684326 7.99198055267334 C 1.909032344818115 7.99198055267334 2.461772441864014 8.273281097412109 2.804432392120361 8.744461059570313 L 2.949902296066284 8.944488525390625 L 2.949902296066284 1.326880693435669 C 2.949902296066284 0.3195306658744812 3.769432306289673 -0.4999993443489075 4.776782512664795 -0.4999993443489075 C 5.784132480621338 -0.4999993443489075 6.603662490844727 0.3195306658744812 6.603662490844727 1.326880693435669 L 6.603662490844727 5.170879364013672 C 6.90852689743042 4.942787170410156 7.286757946014404 4.807540893554688 7.695932388305664 4.807540893554688 C 8.423346519470215 4.807540893554688 9.052841186523438 5.234911918640137 9.346522331237793 5.851720333099365 C 9.675372123718262 5.533985614776611 10.12277221679688 5.338290691375732 10.61507225036621 5.338290691375732 C 11.41639041900635 5.338290691375732 12.09884262084961 5.856805324554443 12.3444938659668 6.575989246368408 C 12.66436386108398 6.300895690917969 13.08022594451904 6.134420871734619 13.53422260284424 6.134420871734619 C 14.54157257080078 6.134420871734619 15.36110210418701 6.95396089553833 15.36110210418701 7.961310863494873 L 15.36110210418701 11.14583110809326 C 15.36110210418701 11.28664112091064 15.34476280212402 11.42744064331055 15.31254196166992 11.5643310546875 L 14.25104236602783 16.07567977905273 C 14.05594253540039 16.90494155883789 13.32466220855713 17.48412132263184 12.47271251678467 17.48412132263184 Z" stroke="none"/>
      <path d="M 4.776782035827637 0 C 4.043942451477051 0 3.449902534484863 0.5940799713134766 3.449902534484863 1.32688045501709 L 3.449902534484863 10.48212051391602 L 2.400062561035156 9.038540840148926 C 2.14039421081543 8.681482315063477 1.735991477966309 8.49196720123291 1.325858116149902 8.491982460021973 C 1.05524730682373 8.491991996765137 0.7821159362792969 8.574512481689453 0.5465126037597656 8.745861053466797 C -0.04610729217529297 9.176870346069336 -0.1771373748779297 10.0067310333252 0.2538623809814453 10.59939002990723 L 4.499822616577148 16.43770980834961 C 4.749542236328125 16.7810115814209 5.148442268371582 16.98412132263184 5.572912216186523 16.98412132263184 L 12.47271251678467 16.98412132263184 C 13.08845233917236 16.98412132263184 13.62332248687744 16.56051063537598 13.76433277130127 15.96116065979004 L 14.82584190368652 11.44975090026855 C 14.84929275512695 11.35014057159424 14.86110210418701 11.24813079833984 14.86110210418701 11.14583015441895 L 14.86110210418701 7.961310386657715 C 14.86110210418701 7.228500366210938 14.26706218719482 6.634420394897461 13.53422260284424 6.634420394897461 C 12.80138206481934 6.634420394897461 12.20733261108398 7.228500366210938 12.20733261108398 7.961310386657715 L 11.94196224212646 7.961310386657715 L 11.94196224212646 7.165180206298828 C 11.94196224212646 6.432370185852051 11.3479118347168 5.838290214538574 10.61507225036621 5.838290214538574 C 9.882232666015625 5.838290214538574 9.288192749023438 6.432370185852051 9.288192749023438 7.165180206298828 L 9.288192749023438 7.961310386657715 L 9.022811889648438 7.961310386657715 L 9.022811889648438 6.634420394897461 C 9.022811889648438 5.901620864868164 8.42877197265625 5.307540893554688 7.695932388305664 5.307540893554688 C 6.96309232711792 5.307540893554688 6.36904239654541 5.901620864868164 6.36904239654541 6.634420394897461 L 6.36904239654541 7.961310386657715 L 6.103662490844727 7.961310386657715 L 6.103662490844727 1.32688045501709 C 6.103662490844727 0.5940799713134766 5.509622573852539 0 4.776782035827637 0 M 4.776782035827637 -1 C 6.059832572937012 -1 7.103662490844727 0.04383087158203125 7.103662490844727 1.32688045501709 L 7.103662490844727 4.383903503417969 C 7.292856693267822 4.334067344665527 7.491305351257324 4.307540893554688 7.695932388305664 4.307540893554688 C 8.409111976623535 4.307540893554688 9.048380851745605 4.630049705505371 9.475557327270508 5.136883735656738 C 9.812554359436035 4.946797370910645 10.20135498046875 4.838290214538574 10.61507225036621 4.838290214538574 C 11.41392421722412 4.838290214538574 12.12005043029785 5.242949485778809 12.53923416137695 5.85804271697998 C 12.841064453125 5.71468448638916 13.17845439910889 5.634420394897461 13.53422260284424 5.634420394897461 C 14.8172721862793 5.634420394897461 15.86110210418701 6.678260803222656 15.86110210418701 7.961310386657715 L 15.86110210418701 11.14583015441895 C 15.86110210418701 11.32517051696777 15.84028244018555 11.50452041625977 15.79923248291016 11.67890071868896 L 14.73775196075439 16.19020080566406 C 14.4892520904541 17.24641990661621 13.55783271789551 17.98412132263184 12.47271251678467 17.98412132263184 L 5.572912216186523 17.98412132263184 C 4.831032752990723 17.98412132263184 4.127562522888184 17.62593078613281 3.691142082214355 17.02595138549805 L -0.5548772811889648 11.18755054473877 C -1.309497833251953 10.14990043640137 -1.079267501831055 8.691770553588867 -0.04166793823242188 7.937130928039551 C 0.3587226867675781 7.645930290222168 0.8315925598144531 7.492000579833984 1.325822830200195 7.49198055267334 C 1.723285675048828 7.491970062255859 2.109685897827148 7.594610214233398 2.449902534484863 7.782022476196289 L 2.449902534484863 1.32688045501709 C 2.449902534484863 0.04383087158203125 3.493732452392578 -1 4.776782035827637 -1 Z" stroke="none" fill="#fff"/>
    </g>
  </g>
</svg>
