<svg xmlns="http://www.w3.org/2000/svg" width="74.758" height="52.331" viewBox="0 0 74.758 52.331">
  <path id="Path_1290" data-name="Path 1290" d="M11.214,54.428a7.476,7.476,0,1,0-7.476-7.476A7.483,7.483,0,0,0,11.214,54.428Zm52.331,0a7.476,7.476,0,1,0-7.476-7.476A7.483,7.483,0,0,0,63.545,54.428Zm3.738,3.738H59.807a7.454,7.454,0,0,0-5.268,2.173,17.086,17.086,0,0,1,8.772,12.779H71.02a3.734,3.734,0,0,0,3.738-3.738V65.641A7.483,7.483,0,0,0,67.283,58.165Zm-29.9,0A13.083,13.083,0,1,0,24.3,45.083,13.076,13.076,0,0,0,37.379,58.165ZM46.35,61.9h-.97a18.063,18.063,0,0,1-16,0h-.97A13.46,13.46,0,0,0,14.952,75.36v3.364a5.608,5.608,0,0,0,5.607,5.607H54.2a5.608,5.608,0,0,0,5.607-5.607V75.36A13.46,13.46,0,0,0,46.35,61.9ZM20.22,60.338a7.454,7.454,0,0,0-5.268-2.173H7.476A7.483,7.483,0,0,0,0,65.641v3.738a3.734,3.734,0,0,0,3.738,3.738h7.7A17.129,17.129,0,0,1,20.22,60.338Z" transform="translate(0 -32)" fill="#1e9a7d"/>
</svg>
