<svg xmlns="http://www.w3.org/2000/svg" width="23.549" height="15.424" viewBox="0 0 23.549 15.424">
  <path id="Icon_payment-credit-card" data-name="Icon payment-credit-card" d="M28.152,16.35a1.672,1.672,0,0,1,1.618,1.618V30.156a1.672,1.672,0,0,1-1.618,1.618H7.838a1.473,1.473,0,0,1-1.129-.489,1.472,1.472,0,0,1-.489-1.129V17.967a1.472,1.472,0,0,1,.489-1.129,1.474,1.474,0,0,1,1.129-.489H28.152ZM7.838,17.629q-.188,0-.226.113a.325.325,0,0,0-.113.226v2.257H28.49V17.967a.325.325,0,0,0-.113-.226q-.038-.113-.226-.113H7.838ZM28.152,30.5q.188,0,.226-.113a.325.325,0,0,0,.113-.226V24.062H7.5v6.094a.325.325,0,0,0,.113.226q.037.113.226.113H28.152ZM8.779,29.216V27.9h2.6v1.317Zm3.875,0V27.9h3.837v1.317Z" transform="translate(-6.221 -16.35)" fill="#1e9a7d"/>
</svg>
