<svg xmlns="http://www.w3.org/2000/svg" width="13.016" height="13.007" viewBox="0 0 13.016 13.007">
  <path id="Path_219" data-name="Path 219" d="M318.04,4390.4a.63.63,0,0,1-.193.552l-1.832,1.818a1.036,1.036,0,0,1-.324.234,1.335,1.335,0,0,1-.392.125c-.009,0-.037,0-.083.006a1.776,1.776,0,0,1-.179.007,6.2,6.2,0,0,1-.847-.089,6.382,6.382,0,0,1-1.433-.441,11.972,11.972,0,0,1-1.922-1.054,14.328,14.328,0,0,1-2.287-1.929,15.09,15.09,0,0,1-1.6-1.818,12.865,12.865,0,0,1-1.019-1.606,8.58,8.58,0,0,1-.579-1.336,7.013,7.013,0,0,1-.262-1.034,3.447,3.447,0,0,1-.056-.681c.01-.166.014-.258.014-.276a1.351,1.351,0,0,1,.124-.393,1.047,1.047,0,0,1,.234-.324l1.833-1.832a.6.6,0,0,1,.44-.192.516.516,0,0,1,.317.1.974.974,0,0,1,.234.256l1.474,2.8a.671.671,0,0,1,.069.482.866.866,0,0,1-.234.44l-.676.675a.232.232,0,0,0-.048.09.346.346,0,0,0-.021.1,2.455,2.455,0,0,0,.248.661,6.113,6.113,0,0,0,.51.807,8.86,8.86,0,0,0,.978,1.1,9.228,9.228,0,0,0,1.1.985,6.412,6.412,0,0,0,.806.517,2.153,2.153,0,0,0,.5.2l.173.035a.366.366,0,0,0,.089-.02.23.23,0,0,0,.09-.049l.786-.8a.842.842,0,0,1,.578-.22.736.736,0,0,1,.373.082h.014l2.659,1.571A.694.694,0,0,1,318.04,4390.4Z" transform="translate(-305.03 -4380.14)" fill="#1e9a7d"/>
</svg>
