<svg xmlns="http://www.w3.org/2000/svg" width="138" height="169.84" viewBox="0 0 138 169.84">
  <g id="Group_2457" data-name="Group 2457" transform="translate(-1497 -740.811)">
    <path id="Path_2126" data-name="Path 2126" d="M69,0A69,69,0,1,1,0,69,69,69,0,0,1,69,0Z" transform="translate(1497 768)" fill="#c6e5de"/>
    <g id="Group_2202" data-name="Group 2202" transform="translate(-4596.517 1601.895)">
      <path id="Path_2089" data-name="Path 2089" d="M528.839,135.663H485.772V110.706a1.99,1.99,0,0,1,1.988-1.988h39.092a1.99,1.99,0,0,1,1.988,1.988Zm-42.626-.442H528.4V110.706a1.548,1.548,0,0,0-1.546-1.546H487.759a1.548,1.548,0,0,0-1.546,1.546Z" transform="translate(5654.429 -960.084)" fill="#1e9a7d"/>
      <path id="Path_2091" data-name="Path 2091" d="M525.827,74.878h-9.055V65.823a1.106,1.106,0,0,1,1.1-1.1h6.847a1.106,1.106,0,0,1,1.1,1.1Zm-8.613-.442h8.172V65.823a.663.663,0,0,0-.662-.663h-6.847a.663.663,0,0,0-.663.663Z" transform="translate(5630.275 -925.802)" fill="#1e9a7d"/>
      <path id="Path_2104" data-name="Path 2104" d="M351.041,230.927l.164.322a.977.977,0,0,1,.11.451v8.724h7.73V231.7a.977.977,0,0,1,.11-.451l.163-.322Zm7.562.773v8.282h-6.847V231.7a1.388,1.388,0,0,0-.04-.331h6.926A1.385,1.385,0,0,0,358.6,231.7Zm2.156-.773.163.322a.977.977,0,0,1,.11.451v8.724h7.73V231.7a.977.977,0,0,1,.11-.451l.163-.322Zm7.562.773v8.282h-6.847V231.7a1.39,1.39,0,0,0-.04-.331h6.926A1.385,1.385,0,0,0,368.321,231.7Zm2.155-.773.164.322a.977.977,0,0,1,.11.451v8.724h7.73V231.7a.978.978,0,0,1,.11-.451l.163-.322Zm7.562.773v8.282h-6.847V231.7a1.386,1.386,0,0,0-.04-.331h6.926A1.388,1.388,0,0,0,378.038,231.7Zm2.156-.773.163.322a.977.977,0,0,1,.11.451v8.724h7.73V231.7a.977.977,0,0,1,.11-.451l.163-.322Zm7.562.773v8.282H380.91V231.7a1.385,1.385,0,0,0-.04-.331H387.8A1.383,1.383,0,0,0,387.756,231.7Zm2.156-.773.163.322a.977.977,0,0,1,.11.451v8.724h7.73V231.7a.978.978,0,0,1,.11-.451l.163-.322Zm7.562.773v8.282h-6.847V231.7a1.385,1.385,0,0,0-.04-.331h6.926a1.385,1.385,0,0,0-.04.331Zm2.156-.773.163.322a.977.977,0,0,1,.11.451v8.724h7.73V231.7a.978.978,0,0,1,.11-.451l.164-.322Zm7.562.773v8.282h-6.847V231.7a1.383,1.383,0,0,0-.04-.331h6.926A1.385,1.385,0,0,0,407.192,231.7Zm2.156-.773.163.322a.977.977,0,0,1,.11.451v8.724h7.73V231.7a.978.978,0,0,1,.11-.451l.163-.322Zm7.562.773v8.282h-6.847V231.7a1.386,1.386,0,0,0-.04-.331h6.926A1.386,1.386,0,0,0,416.909,231.7Zm2.156-.773.163.322a.977.977,0,0,1,.11.451v8.724h7.73V231.7a.977.977,0,0,1,.11-.451l.163-.322Zm7.562.773v8.282h-6.847V231.7a1.385,1.385,0,0,0-.04-.331h6.926A1.388,1.388,0,0,0,426.627,231.7Zm2.156-.773.163.322a.977.977,0,0,1,.11.451v8.724h7.73V231.7a.977.977,0,0,1,.11-.451l.164-.322Zm7.562.773v8.282H429.5V231.7a1.385,1.385,0,0,0-.04-.331h6.926A1.391,1.391,0,0,0,436.345,231.7Zm-7.562-.773.163.322a.977.977,0,0,1,.11.451v8.724h7.73V231.7a.977.977,0,0,1,.11-.451l.164-.322Zm7.562.773v8.282H429.5V231.7a1.385,1.385,0,0,0-.04-.331h6.926A1.391,1.391,0,0,0,436.345,231.7Zm-17.28-.773.163.322a.977.977,0,0,1,.11.451v8.724h7.73V231.7a.977.977,0,0,1,.11-.451l.163-.322Zm7.562.773v8.282h-6.847V231.7a1.385,1.385,0,0,0-.04-.331h6.926A1.388,1.388,0,0,0,426.627,231.7Zm-17.28-.773.163.322a.977.977,0,0,1,.11.451v8.724h7.73V231.7a.978.978,0,0,1,.11-.451l.163-.322Zm7.562.773v8.282h-6.847V231.7a1.386,1.386,0,0,0-.04-.331h6.926A1.386,1.386,0,0,0,416.909,231.7Zm-17.28-.773.163.322a.977.977,0,0,1,.11.451v8.724h7.73V231.7a.978.978,0,0,1,.11-.451l.164-.322Zm7.562.773v8.282h-6.847V231.7a1.383,1.383,0,0,0-.04-.331h6.926A1.385,1.385,0,0,0,407.192,231.7Zm-17.28-.773.163.322a.977.977,0,0,1,.11.451v8.724h7.73V231.7a.978.978,0,0,1,.11-.451l.163-.322Zm7.562.773v8.282h-6.847V231.7a1.385,1.385,0,0,0-.04-.331h6.926a1.385,1.385,0,0,0-.04.331Zm-17.28-.773.163.322a.977.977,0,0,1,.11.451v8.724h7.73V231.7a.977.977,0,0,1,.11-.451l.163-.322Zm7.562.773v8.282H380.91V231.7a1.385,1.385,0,0,0-.04-.331H387.8A1.383,1.383,0,0,0,387.756,231.7Zm-17.28-.773.164.322a.977.977,0,0,1,.11.451v8.724h7.73V231.7a.978.978,0,0,1,.11-.451l.163-.322Zm7.562.773v8.282h-6.847V231.7a1.386,1.386,0,0,0-.04-.331h6.926A1.388,1.388,0,0,0,378.038,231.7Zm-17.28-.773.163.322a.977.977,0,0,1,.11.451v8.724h7.73V231.7a.977.977,0,0,1,.11-.451l.163-.322Zm7.562.773v8.282h-6.847V231.7a1.39,1.39,0,0,0-.04-.331h6.926A1.385,1.385,0,0,0,368.321,231.7Zm-17.28-.773.164.322a.977.977,0,0,1,.11.451v8.724h7.73V231.7a.977.977,0,0,1,.11-.451l.163-.322Zm7.562.773v8.282h-6.847V231.7a1.388,1.388,0,0,0-.04-.331h6.926A1.385,1.385,0,0,0,358.6,231.7Zm70.18-.773.163.322a.977.977,0,0,1,.11.451v8.724h7.73V231.7a.977.977,0,0,1,.11-.451l.164-.322Zm7.562.773v8.282H429.5V231.7a1.385,1.385,0,0,0-.04-.331h6.926A1.391,1.391,0,0,0,436.345,231.7Zm-17.28-.773.163.322a.977.977,0,0,1,.11.451v8.724h7.73V231.7a.977.977,0,0,1,.11-.451l.163-.322Zm7.562.773v8.282h-6.847V231.7a1.385,1.385,0,0,0-.04-.331h6.926A1.388,1.388,0,0,0,426.627,231.7Zm-17.28-.773.163.322a.977.977,0,0,1,.11.451v8.724h7.73V231.7a.978.978,0,0,1,.11-.451l.163-.322Zm7.562.773v8.282h-6.847V231.7a1.386,1.386,0,0,0-.04-.331h6.926A1.386,1.386,0,0,0,416.909,231.7Zm-17.28-.773.163.322a.977.977,0,0,1,.11.451v8.724h7.73V231.7a.978.978,0,0,1,.11-.451l.164-.322Zm7.562.773v8.282h-6.847V231.7a1.383,1.383,0,0,0-.04-.331h6.926A1.385,1.385,0,0,0,407.192,231.7Zm-17.28-.773.163.322a.977.977,0,0,1,.11.451v8.724h7.73V231.7a.978.978,0,0,1,.11-.451l.163-.322Zm7.562.773v8.282h-6.847V231.7a1.385,1.385,0,0,0-.04-.331h6.926a1.385,1.385,0,0,0-.04.331Zm-17.28-.773.163.322a.977.977,0,0,1,.11.451v8.724h7.73V231.7a.977.977,0,0,1,.11-.451l.163-.322Zm7.562.773v8.282H380.91V231.7a1.385,1.385,0,0,0-.04-.331H387.8A1.383,1.383,0,0,0,387.756,231.7Zm-17.28-.773.164.322a.977.977,0,0,1,.11.451v8.724h7.73V231.7a.978.978,0,0,1,.11-.451l.163-.322Zm7.562.773v8.282h-6.847V231.7a1.386,1.386,0,0,0-.04-.331h6.926A1.388,1.388,0,0,0,378.038,231.7Zm-17.28-.773.163.322a.977.977,0,0,1,.11.451v8.724h7.73V231.7a.977.977,0,0,1,.11-.451l.163-.322Zm7.562.773v8.282h-6.847V231.7a1.39,1.39,0,0,0-.04-.331h6.926A1.385,1.385,0,0,0,368.321,231.7Zm-17.28-.773.164.322a.977.977,0,0,1,.11.451v8.724h7.73V231.7a.977.977,0,0,1,.11-.451l.163-.322Zm7.562.773v8.282h-6.847V231.7a1.388,1.388,0,0,0-.04-.331h6.926A1.385,1.385,0,0,0,358.6,231.7Zm70.18-.773.163.322a.977.977,0,0,1,.11.451v8.724h7.73V231.7a.977.977,0,0,1,.11-.451l.164-.322Zm7.562.773v8.282H429.5V231.7a1.385,1.385,0,0,0-.04-.331h6.926A1.391,1.391,0,0,0,436.345,231.7Zm-17.28-.773.163.322a.977.977,0,0,1,.11.451v8.724h7.73V231.7a.977.977,0,0,1,.11-.451l.163-.322Zm7.562.773v8.282h-6.847V231.7a1.385,1.385,0,0,0-.04-.331h6.926A1.388,1.388,0,0,0,426.627,231.7Zm-17.28-.773.163.322a.977.977,0,0,1,.11.451v8.724h7.73V231.7a.978.978,0,0,1,.11-.451l.163-.322Zm7.562.773v8.282h-6.847V231.7a1.386,1.386,0,0,0-.04-.331h6.926A1.386,1.386,0,0,0,416.909,231.7Zm-17.28-.773.163.322a.977.977,0,0,1,.11.451v8.724h7.73V231.7a.978.978,0,0,1,.11-.451l.164-.322Zm7.562.773v8.282h-6.847V231.7a1.383,1.383,0,0,0-.04-.331h6.926A1.385,1.385,0,0,0,407.192,231.7Zm-17.28-.773.163.322a.977.977,0,0,1,.11.451v8.724h7.73V231.7a.978.978,0,0,1,.11-.451l.163-.322Zm7.562.773v8.282h-6.847V231.7a1.385,1.385,0,0,0-.04-.331h6.926a1.385,1.385,0,0,0-.04.331Zm-17.28-.773.163.322a.977.977,0,0,1,.11.451v8.724h7.73V231.7a.977.977,0,0,1,.11-.451l.163-.322Zm7.562.773v8.282H380.91V231.7a1.385,1.385,0,0,0-.04-.331H387.8A1.383,1.383,0,0,0,387.756,231.7Zm-17.28-.773.164.322a.977.977,0,0,1,.11.451v8.724h7.73V231.7a.978.978,0,0,1,.11-.451l.163-.322Zm7.562.773v8.282h-6.847V231.7a1.386,1.386,0,0,0-.04-.331h6.926A1.388,1.388,0,0,0,378.038,231.7Zm-17.28-.773.163.322a.977.977,0,0,1,.11.451v8.724h7.73V231.7a.977.977,0,0,1,.11-.451l.163-.322Zm7.562.773v8.282h-6.847V231.7a1.39,1.39,0,0,0-.04-.331h6.926A1.385,1.385,0,0,0,368.321,231.7Zm-17.28-.773.164.322a.977.977,0,0,1,.11.451v8.724h7.73V231.7a.977.977,0,0,1,.11-.451l.163-.322Zm7.562.773v8.282h-6.847V231.7a1.388,1.388,0,0,0-.04-.331h6.926A1.385,1.385,0,0,0,358.6,231.7Zm70.18-.773.163.322a.977.977,0,0,1,.11.451v8.724h7.73V231.7a.977.977,0,0,1,.11-.451l.164-.322Zm7.562.773v8.282H429.5V231.7a1.385,1.385,0,0,0-.04-.331h6.926A1.391,1.391,0,0,0,436.345,231.7Zm-17.28-.773.163.322a.977.977,0,0,1,.11.451v8.724h7.73V231.7a.977.977,0,0,1,.11-.451l.163-.322Zm7.562.773v8.282h-6.847V231.7a1.385,1.385,0,0,0-.04-.331h6.926A1.388,1.388,0,0,0,426.627,231.7Zm-17.28-.773.163.322a.977.977,0,0,1,.11.451v8.724h7.73V231.7a.978.978,0,0,1,.11-.451l.163-.322Zm7.562.773v8.282h-6.847V231.7a1.386,1.386,0,0,0-.04-.331h6.926A1.386,1.386,0,0,0,416.909,231.7Zm-17.28-.773.163.322a.977.977,0,0,1,.11.451v8.724h7.73V231.7a.978.978,0,0,1,.11-.451l.164-.322Zm7.562.773v8.282h-6.847V231.7a1.383,1.383,0,0,0-.04-.331h6.926A1.385,1.385,0,0,0,407.192,231.7Zm-17.28-.773.163.322a.977.977,0,0,1,.11.451v8.724h7.73V231.7a.978.978,0,0,1,.11-.451l.163-.322Zm7.562.773v8.282h-6.847V231.7a1.385,1.385,0,0,0-.04-.331h6.926a1.385,1.385,0,0,0-.04.331Zm-17.28-.773.163.322a.977.977,0,0,1,.11.451v8.724h7.73V231.7a.977.977,0,0,1,.11-.451l.163-.322Zm7.562.773v8.282H380.91V231.7a1.385,1.385,0,0,0-.04-.331H387.8A1.383,1.383,0,0,0,387.756,231.7Zm-17.28-.773.164.322a.977.977,0,0,1,.11.451v8.724h7.73V231.7a.978.978,0,0,1,.11-.451l.163-.322Zm7.562.773v8.282h-6.847V231.7a1.386,1.386,0,0,0-.04-.331h6.926A1.388,1.388,0,0,0,378.038,231.7Zm-17.28-.773.163.322a.977.977,0,0,1,.11.451v8.724h7.73V231.7a.977.977,0,0,1,.11-.451l.163-.322Zm7.562.773v8.282h-6.847V231.7a1.39,1.39,0,0,0-.04-.331h6.926A1.385,1.385,0,0,0,368.321,231.7Zm-17.28-.773.164.322a.977.977,0,0,1,.11.451v8.724h7.73V231.7a.977.977,0,0,1,.11-.451l.163-.322Zm7.562.773v8.282h-6.847V231.7a1.388,1.388,0,0,0-.04-.331h6.926A1.385,1.385,0,0,0,358.6,231.7Zm70.18-.773.163.322a.977.977,0,0,1,.11.451v8.724h7.73V231.7a.977.977,0,0,1,.11-.451l.164-.322Zm7.562.773v8.282H429.5V231.7a1.385,1.385,0,0,0-.04-.331h6.926A1.391,1.391,0,0,0,436.345,231.7Zm-17.117-.451a.977.977,0,0,1,.11.451v8.724h7.73V231.7a.977.977,0,0,1,.11-.451l.163-.322h-8.278Zm7.439.119a1.388,1.388,0,0,0-.04.331v8.282h-6.847V231.7a1.385,1.385,0,0,0-.04-.331Zm-17.156-.119a.977.977,0,0,1,.11.451v8.724h7.73V231.7a.978.978,0,0,1,.11-.451l.163-.322h-8.278Zm7.439.119a1.386,1.386,0,0,0-.04.331v8.282h-6.847V231.7a1.386,1.386,0,0,0-.04-.331Zm-17.156-.119a.977.977,0,0,1,.11.451v8.724h7.73V231.7a.978.978,0,0,1,.11-.451l.164-.322h-8.278Zm7.439.119a1.385,1.385,0,0,0-.04.331v8.282h-6.847V231.7a1.383,1.383,0,0,0-.04-.331Zm-17.156-.119a.977.977,0,0,1,.11.451v8.724h7.73V231.7a.978.978,0,0,1,.11-.451l.163-.322h-8.278Zm7.439.119a1.385,1.385,0,0,0-.04.331v8.282h-6.847V231.7a1.385,1.385,0,0,0-.04-.331Zm-17.156-.119a.977.977,0,0,1,.11.451v8.724h7.73V231.7a.977.977,0,0,1,.11-.451l.163-.322h-8.278Zm7.439.119a1.383,1.383,0,0,0-.04.331v8.282H380.91V231.7a1.385,1.385,0,0,0-.04-.331Zm-17.156-.119a.977.977,0,0,1,.11.451v8.724h7.73V231.7a.978.978,0,0,1,.11-.451l.163-.322h-8.278Zm7.439.119a1.388,1.388,0,0,0-.04.331v8.282h-6.847V231.7a1.386,1.386,0,0,0-.04-.331Zm-17.156-.119a.977.977,0,0,1,.11.451v8.724h7.73V231.7a.977.977,0,0,1,.11-.451l.163-.322h-8.278Zm7.439.119a1.385,1.385,0,0,0-.04.331v8.282h-6.847V231.7a1.39,1.39,0,0,0-.04-.331Zm-17.156-.119a.977.977,0,0,1,.11.451v8.724h7.73V231.7a.977.977,0,0,1,.11-.451l.163-.322h-8.278Zm7.439.119a1.385,1.385,0,0,0-.04.331v8.282h-6.847V231.7a1.388,1.388,0,0,0-.04-.331Zm70.3-.119a.977.977,0,0,1,.11.451v8.724h7.73V231.7a.977.977,0,0,1,.11-.451l.164-.322h-8.278Zm7.439.119a1.391,1.391,0,0,0-.04.331v8.282H429.5V231.7a1.385,1.385,0,0,0-.04-.331Zm-17.156-.119a.977.977,0,0,1,.11.451v8.724h7.73V231.7a.977.977,0,0,1,.11-.451l.163-.322h-8.278Zm7.439.119a1.388,1.388,0,0,0-.04.331v8.282h-6.847V231.7a1.385,1.385,0,0,0-.04-.331Zm-17.156-.119a.977.977,0,0,1,.11.451v8.724h7.73V231.7a.978.978,0,0,1,.11-.451l.163-.322h-8.278Zm7.439.119a1.386,1.386,0,0,0-.04.331v8.282h-6.847V231.7a1.386,1.386,0,0,0-.04-.331Zm-17.156-.119a.977.977,0,0,1,.11.451v8.724h7.73V231.7a.978.978,0,0,1,.11-.451l.164-.322h-8.278Zm7.439.119a1.385,1.385,0,0,0-.04.331v8.282h-6.847V231.7a1.383,1.383,0,0,0-.04-.331Zm-17.156-.119a.977.977,0,0,1,.11.451v8.724h7.73V231.7a.978.978,0,0,1,.11-.451l.163-.322h-8.278Zm7.439.119a1.385,1.385,0,0,0-.04.331v8.282h-6.847V231.7a1.385,1.385,0,0,0-.04-.331Zm-17.156-.119a.977.977,0,0,1,.11.451v8.724h7.73V231.7a.977.977,0,0,1,.11-.451l.163-.322h-8.278Zm7.439.119a1.383,1.383,0,0,0-.04.331v8.282H380.91V231.7a1.385,1.385,0,0,0-.04-.331Zm-17.156-.119a.977.977,0,0,1,.11.451v8.724h7.73V231.7a.978.978,0,0,1,.11-.451l.163-.322h-8.278Zm7.439.119a1.388,1.388,0,0,0-.04.331v8.282h-6.847V231.7a1.386,1.386,0,0,0-.04-.331Zm-17.156-.119a.977.977,0,0,1,.11.451v8.724h7.73V231.7a.977.977,0,0,1,.11-.451l.163-.322h-8.278Zm7.439.119a1.385,1.385,0,0,0-.04.331v8.282h-6.847V231.7a1.39,1.39,0,0,0-.04-.331Zm-17.156-.119a.977.977,0,0,1,.11.451v8.724h7.73V231.7a.977.977,0,0,1,.11-.451l.163-.322h-8.278Zm7.439.119a1.385,1.385,0,0,0-.04.331v8.282h-6.847V231.7a1.388,1.388,0,0,0-.04-.331Zm86.978,10.38h-2.633a2.436,2.436,0,0,0-2.337-1.767h-1.436V231.7a1.38,1.38,0,0,0-.1-.519,1.323,1.323,0,0,0-.674-2.463H349.658a1.323,1.323,0,0,0-.674,2.463,1.38,1.38,0,0,0-.1.519v8.282H347.45a2.436,2.436,0,0,0-2.337,1.767h-2.854a1.991,1.991,0,0,0-1.988,1.988V360.35a1.992,1.992,0,0,0,1.988,1.988H445.621a1.991,1.991,0,0,0,1.988-1.988V243.737A1.991,1.991,0,0,0,445.621,241.749Zm1.546,118.6a1.547,1.547,0,0,1-1.009,1.449,1.486,1.486,0,0,1-.537.1H342.259a1.486,1.486,0,0,1-.537-.1,1.547,1.547,0,0,1-1.009-1.449V243.737a1.548,1.548,0,0,1,1.546-1.546h3.207l.035-.177a2,2,0,0,1,1.948-1.59h1.877V231.7a.993.993,0,0,1,.141-.51l.137-.227-.25-.093a.881.881,0,0,1,.3-1.709h88.785a.881.881,0,0,1,.3,1.709l-.25.093.137.227a.991.991,0,0,1,.141.51v8.724h1.877a2,2,0,0,1,1.948,1.59l.035.177h2.986a1.548,1.548,0,0,1,1.546,1.546ZM351.041,230.927l.164.322a.977.977,0,0,1,.11.451v8.724h7.73V231.7a.977.977,0,0,1,.11-.451l.163-.322Zm7.562.773v8.282h-6.847V231.7a1.388,1.388,0,0,0-.04-.331h6.926A1.385,1.385,0,0,0,358.6,231.7Zm2.156-.773.163.322a.977.977,0,0,1,.11.451v8.724h7.73V231.7a.977.977,0,0,1,.11-.451l.163-.322Zm7.562.773v8.282h-6.847V231.7a1.39,1.39,0,0,0-.04-.331h6.926A1.385,1.385,0,0,0,368.321,231.7Zm2.155-.773.164.322a.977.977,0,0,1,.11.451v8.724h7.73V231.7a.978.978,0,0,1,.11-.451l.163-.322Zm7.562.773v8.282h-6.847V231.7a1.386,1.386,0,0,0-.04-.331h6.926A1.388,1.388,0,0,0,378.038,231.7Zm2.156-.773.163.322a.977.977,0,0,1,.11.451v8.724h7.73V231.7a.977.977,0,0,1,.11-.451l.163-.322Zm7.562.773v8.282H380.91V231.7a1.385,1.385,0,0,0-.04-.331H387.8A1.383,1.383,0,0,0,387.756,231.7Zm2.156-.773.163.322a.977.977,0,0,1,.11.451v8.724h7.73V231.7a.978.978,0,0,1,.11-.451l.163-.322Zm7.562.773v8.282h-6.847V231.7a1.385,1.385,0,0,0-.04-.331h6.926a1.385,1.385,0,0,0-.04.331Zm2.156-.773.163.322a.977.977,0,0,1,.11.451v8.724h7.73V231.7a.978.978,0,0,1,.11-.451l.164-.322Zm7.562.773v8.282h-6.847V231.7a1.383,1.383,0,0,0-.04-.331h6.926A1.385,1.385,0,0,0,407.192,231.7Zm2.156-.773.163.322a.977.977,0,0,1,.11.451v8.724h7.73V231.7a.978.978,0,0,1,.11-.451l.163-.322Zm7.562.773v8.282h-6.847V231.7a1.386,1.386,0,0,0-.04-.331h6.926A1.386,1.386,0,0,0,416.909,231.7Zm2.156-.773.163.322a.977.977,0,0,1,.11.451v8.724h7.73V231.7a.977.977,0,0,1,.11-.451l.163-.322Zm7.562.773v8.282h-6.847V231.7a1.385,1.385,0,0,0-.04-.331h6.926A1.388,1.388,0,0,0,426.627,231.7Zm2.156-.773.163.322a.977.977,0,0,1,.11.451v8.724h7.73V231.7a.977.977,0,0,1,.11-.451l.164-.322Zm7.562.773v8.282H429.5V231.7a1.385,1.385,0,0,0-.04-.331h6.926A1.391,1.391,0,0,0,436.345,231.7Zm-85.3-.773.164.322a.977.977,0,0,1,.11.451v8.724h7.73V231.7a.977.977,0,0,1,.11-.451l.163-.322Zm7.562.773v8.282h-6.847V231.7a1.388,1.388,0,0,0-.04-.331h6.926A1.385,1.385,0,0,0,358.6,231.7Zm2.156-.773.163.322a.977.977,0,0,1,.11.451v8.724h7.73V231.7a.977.977,0,0,1,.11-.451l.163-.322Zm7.562.773v8.282h-6.847V231.7a1.39,1.39,0,0,0-.04-.331h6.926A1.385,1.385,0,0,0,368.321,231.7Zm2.155-.773.164.322a.977.977,0,0,1,.11.451v8.724h7.73V231.7a.978.978,0,0,1,.11-.451l.163-.322Zm7.562.773v8.282h-6.847V231.7a1.386,1.386,0,0,0-.04-.331h6.926A1.388,1.388,0,0,0,378.038,231.7Zm2.156-.773.163.322a.977.977,0,0,1,.11.451v8.724h7.73V231.7a.977.977,0,0,1,.11-.451l.163-.322Zm7.562.773v8.282H380.91V231.7a1.385,1.385,0,0,0-.04-.331H387.8A1.383,1.383,0,0,0,387.756,231.7Zm2.156-.773.163.322a.977.977,0,0,1,.11.451v8.724h7.73V231.7a.978.978,0,0,1,.11-.451l.163-.322Zm7.562.773v8.282h-6.847V231.7a1.385,1.385,0,0,0-.04-.331h6.926a1.385,1.385,0,0,0-.04.331Zm2.156-.773.163.322a.977.977,0,0,1,.11.451v8.724h7.73V231.7a.978.978,0,0,1,.11-.451l.164-.322Zm7.562.773v8.282h-6.847V231.7a1.383,1.383,0,0,0-.04-.331h6.926A1.385,1.385,0,0,0,407.192,231.7Zm2.156-.773.163.322a.977.977,0,0,1,.11.451v8.724h7.73V231.7a.978.978,0,0,1,.11-.451l.163-.322Zm7.562.773v8.282h-6.847V231.7a1.386,1.386,0,0,0-.04-.331h6.926A1.386,1.386,0,0,0,416.909,231.7Zm2.156-.773.163.322a.977.977,0,0,1,.11.451v8.724h7.73V231.7a.977.977,0,0,1,.11-.451l.163-.322Zm7.562.773v8.282h-6.847V231.7a1.385,1.385,0,0,0-.04-.331h6.926A1.388,1.388,0,0,0,426.627,231.7Zm2.156-.773.163.322a.977.977,0,0,1,.11.451v8.724h7.73V231.7a.977.977,0,0,1,.11-.451l.164-.322Zm7.562.773v8.282H429.5V231.7a1.385,1.385,0,0,0-.04-.331h6.926A1.391,1.391,0,0,0,436.345,231.7Zm-85.3-.773.164.322a.977.977,0,0,1,.11.451v8.724h7.73V231.7a.977.977,0,0,1,.11-.451l.163-.322Zm7.562.773v8.282h-6.847V231.7a1.388,1.388,0,0,0-.04-.331h6.926A1.385,1.385,0,0,0,358.6,231.7Zm2.156-.773.163.322a.977.977,0,0,1,.11.451v8.724h7.73V231.7a.977.977,0,0,1,.11-.451l.163-.322Zm7.562.773v8.282h-6.847V231.7a1.39,1.39,0,0,0-.04-.331h6.926A1.385,1.385,0,0,0,368.321,231.7Zm2.155-.773.164.322a.977.977,0,0,1,.11.451v8.724h7.73V231.7a.978.978,0,0,1,.11-.451l.163-.322Zm7.562.773v8.282h-6.847V231.7a1.386,1.386,0,0,0-.04-.331h6.926A1.388,1.388,0,0,0,378.038,231.7Zm2.156-.773.163.322a.977.977,0,0,1,.11.451v8.724h7.73V231.7a.977.977,0,0,1,.11-.451l.163-.322Zm7.562.773v8.282H380.91V231.7a1.385,1.385,0,0,0-.04-.331H387.8A1.383,1.383,0,0,0,387.756,231.7Zm2.156-.773.163.322a.977.977,0,0,1,.11.451v8.724h7.73V231.7a.978.978,0,0,1,.11-.451l.163-.322Zm7.562.773v8.282h-6.847V231.7a1.385,1.385,0,0,0-.04-.331h6.926a1.385,1.385,0,0,0-.04.331Zm2.156-.773.163.322a.977.977,0,0,1,.11.451v8.724h7.73V231.7a.978.978,0,0,1,.11-.451l.164-.322Zm7.562.773v8.282h-6.847V231.7a1.383,1.383,0,0,0-.04-.331h6.926A1.385,1.385,0,0,0,407.192,231.7Zm2.156-.773.163.322a.977.977,0,0,1,.11.451v8.724h7.73V231.7a.978.978,0,0,1,.11-.451l.163-.322Zm7.562.773v8.282h-6.847V231.7a1.386,1.386,0,0,0-.04-.331h6.926A1.386,1.386,0,0,0,416.909,231.7Zm2.156-.773.163.322a.977.977,0,0,1,.11.451v8.724h7.73V231.7a.977.977,0,0,1,.11-.451l.163-.322Zm7.562.773v8.282h-6.847V231.7a1.385,1.385,0,0,0-.04-.331h6.926A1.388,1.388,0,0,0,426.627,231.7Zm2.156-.773.163.322a.977.977,0,0,1,.11.451v8.724h7.73V231.7a.977.977,0,0,1,.11-.451l.164-.322Zm7.562.773v8.282H429.5V231.7a1.385,1.385,0,0,0-.04-.331h6.926A1.391,1.391,0,0,0,436.345,231.7Zm-85.3-.773.164.322a.977.977,0,0,1,.11.451v8.724h7.73V231.7a.977.977,0,0,1,.11-.451l.163-.322Zm7.562.773v8.282h-6.847V231.7a1.388,1.388,0,0,0-.04-.331h6.926A1.385,1.385,0,0,0,358.6,231.7Zm2.156-.773.163.322a.977.977,0,0,1,.11.451v8.724h7.73V231.7a.977.977,0,0,1,.11-.451l.163-.322Zm7.562.773v8.282h-6.847V231.7a1.39,1.39,0,0,0-.04-.331h6.926A1.385,1.385,0,0,0,368.321,231.7Zm2.155-.773.164.322a.977.977,0,0,1,.11.451v8.724h7.73V231.7a.978.978,0,0,1,.11-.451l.163-.322Zm7.562.773v8.282h-6.847V231.7a1.386,1.386,0,0,0-.04-.331h6.926A1.388,1.388,0,0,0,378.038,231.7Zm2.156-.773.163.322a.977.977,0,0,1,.11.451v8.724h7.73V231.7a.977.977,0,0,1,.11-.451l.163-.322Zm7.562.773v8.282H380.91V231.7a1.385,1.385,0,0,0-.04-.331H387.8A1.383,1.383,0,0,0,387.756,231.7Zm2.156-.773.163.322a.977.977,0,0,1,.11.451v8.724h7.73V231.7a.978.978,0,0,1,.11-.451l.163-.322Zm7.562.773v8.282h-6.847V231.7a1.385,1.385,0,0,0-.04-.331h6.926a1.385,1.385,0,0,0-.04.331Zm2.156-.773.163.322a.977.977,0,0,1,.11.451v8.724h7.73V231.7a.978.978,0,0,1,.11-.451l.164-.322Zm7.562.773v8.282h-6.847V231.7a1.383,1.383,0,0,0-.04-.331h6.926A1.385,1.385,0,0,0,407.192,231.7Zm2.156-.773.163.322a.977.977,0,0,1,.11.451v8.724h7.73V231.7a.978.978,0,0,1,.11-.451l.163-.322Zm7.562.773v8.282h-6.847V231.7a1.386,1.386,0,0,0-.04-.331h6.926A1.386,1.386,0,0,0,416.909,231.7Zm2.156-.773.163.322a.977.977,0,0,1,.11.451v8.724h7.73V231.7a.977.977,0,0,1,.11-.451l.163-.322Zm7.562.773v8.282h-6.847V231.7a1.385,1.385,0,0,0-.04-.331h6.926A1.388,1.388,0,0,0,426.627,231.7Zm2.156-.773.163.322a.977.977,0,0,1,.11.451v8.724h7.73V231.7a.977.977,0,0,1,.11-.451l.164-.322Zm7.562.773v8.282H429.5V231.7a1.385,1.385,0,0,0-.04-.331h6.926A1.391,1.391,0,0,0,436.345,231.7Z" transform="translate(5767.794 -1053.581)" fill="#1e9a7d"/>
      <path id="Path_2105" data-name="Path 2105" d="M445.9,373.982H429.616a1.3,1.3,0,0,1-1.294-1.294v-8.676a1.3,1.3,0,0,1,1.294-1.294H445.9a1.3,1.3,0,0,1,1.294,1.294v8.676A1.3,1.3,0,0,1,445.9,373.982Z" transform="translate(5699.19 -1157.986)" fill="#1e9a7d"/>
      <path id="Path_2106" data-name="Path 2106" d="M558.122,373.982H541.836a1.3,1.3,0,0,1-1.294-1.294v-8.676a1.3,1.3,0,0,1,1.294-1.294h16.287a1.3,1.3,0,0,1,1.294,1.294v8.676A1.3,1.3,0,0,1,558.122,373.982Z" transform="translate(5611.755 -1157.986)" fill="#1e9a7d"/>
      <path id="Path_2107" data-name="Path 2107" d="M670.342,373.982H654.055a1.3,1.3,0,0,1-1.294-1.294v-8.676a1.3,1.3,0,0,1,1.294-1.294h16.287a1.3,1.3,0,0,1,1.294,1.294v8.676a1.3,1.3,0,0,1-1.294,1.294Z" transform="translate(5524.32 -1157.986)" fill="#1e9a7d"/>
      <path id="Path_2108" data-name="Path 2108" d="M445.9,504.982H429.616a1.3,1.3,0,0,1-1.294-1.294v-8.676a1.3,1.3,0,0,1,1.294-1.294H445.9a1.3,1.3,0,0,1,1.294,1.294v8.676a1.3,1.3,0,0,1-1.294,1.294Z" transform="translate(5699.19 -1260.054)" fill="#1e9a7d"/>
      <path id="Path_2109" data-name="Path 2109" d="M558.122,504.982H541.836a1.3,1.3,0,0,1-1.294-1.294v-8.676a1.3,1.3,0,0,1,1.294-1.294h16.287a1.3,1.3,0,0,1,1.294,1.294v8.676A1.3,1.3,0,0,1,558.122,504.982Z" transform="translate(5611.755 -1260.054)" fill="#1e9a7d"/>
      <path id="Path_2110" data-name="Path 2110" d="M670.342,504.982H654.055a1.3,1.3,0,0,1-1.294-1.294v-8.676a1.3,1.3,0,0,1,1.294-1.294h16.287a1.3,1.3,0,0,1,1.294,1.294v8.676a1.3,1.3,0,0,1-1.294,1.294Z" transform="translate(5524.32 -1260.054)" fill="#1e9a7d"/>
      <path id="Path_2111" data-name="Path 2111" d="M445.9,635.982H429.616a1.3,1.3,0,0,1-1.294-1.294v-8.676a1.3,1.3,0,0,1,1.294-1.294H445.9a1.3,1.3,0,0,1,1.294,1.294v8.676A1.3,1.3,0,0,1,445.9,635.982Z" transform="translate(5699.19 -1362.121)" fill="#1e9a7d"/>
      <path id="Path_2112" data-name="Path 2112" d="M558.122,635.982H541.836a1.3,1.3,0,0,1-1.294-1.294v-8.676a1.3,1.3,0,0,1,1.294-1.294h16.287a1.3,1.3,0,0,1,1.294,1.294v8.676A1.3,1.3,0,0,1,558.122,635.982Z" transform="translate(5611.755 -1362.121)" fill="#1e9a7d"/>
      <path id="Path_2113" data-name="Path 2113" d="M670.342,635.982H654.055a1.3,1.3,0,0,1-1.294-1.294v-8.676a1.3,1.3,0,0,1,1.294-1.294h16.287a1.3,1.3,0,0,1,1.294,1.294v8.676a1.3,1.3,0,0,1-1.294,1.294Z" transform="translate(5524.32 -1362.121)" fill="#1e9a7d"/>
      <path id="Path_2114" data-name="Path 2114" d="M423.359,371.168H404.491a1.722,1.722,0,0,1-1.72-1.72V359.4a1.722,1.722,0,0,1,1.72-1.72h18.867a1.722,1.722,0,0,1,1.72,1.72v10.051A1.722,1.722,0,0,1,423.359,371.168Zm-18.867-13.049a1.28,1.28,0,0,0-1.278,1.278v10.051a1.279,1.279,0,0,0,1.278,1.278h18.867a1.279,1.279,0,0,0,1.278-1.278V359.4a1.279,1.279,0,0,0-1.278-1.278Z" transform="translate(5719.097 -1154.059)" fill="#3f3d56"/>
      <path id="Path_2115" data-name="Path 2115" d="M553.359,371.168H534.491a1.722,1.722,0,0,1-1.72-1.72V359.4a1.722,1.722,0,0,1,1.72-1.72h18.867a1.722,1.722,0,0,1,1.72,1.72v10.051A1.722,1.722,0,0,1,553.359,371.168ZM534.491,358.12a1.279,1.279,0,0,0-1.278,1.278v10.051a1.279,1.279,0,0,0,1.278,1.278h18.867a1.279,1.279,0,0,0,1.278-1.278V359.4a1.279,1.279,0,0,0-1.278-1.278Z" transform="translate(5617.809 -1154.059)" fill="#3f3d56"/>
      <path id="Path_2116" data-name="Path 2116" d="M683.359,371.168H664.491a1.722,1.722,0,0,1-1.72-1.72V359.4a1.722,1.722,0,0,1,1.72-1.72h18.867a1.722,1.722,0,0,1,1.72,1.72v10.051A1.722,1.722,0,0,1,683.359,371.168ZM664.491,358.12a1.279,1.279,0,0,0-1.278,1.278v10.051a1.279,1.279,0,0,0,1.278,1.278h18.867a1.279,1.279,0,0,0,1.278-1.278V359.4a1.279,1.279,0,0,0-1.278-1.278Z" transform="translate(5516.521 -1154.059)" fill="#3f3d56"/>
      <path id="Path_2117" data-name="Path 2117" d="M423.359,502.168H404.491a1.722,1.722,0,0,1-1.72-1.72V490.4a1.722,1.722,0,0,1,1.72-1.72h18.867a1.722,1.722,0,0,1,1.72,1.72v10.051A1.722,1.722,0,0,1,423.359,502.168Zm-18.867-13.049a1.279,1.279,0,0,0-1.278,1.278v10.051a1.279,1.279,0,0,0,1.278,1.278h18.867a1.279,1.279,0,0,0,1.278-1.278V490.4a1.279,1.279,0,0,0-1.278-1.278Z" transform="translate(5719.097 -1256.127)" fill="#3f3d56"/>
      <path id="Path_2118" data-name="Path 2118" d="M553.359,502.168H534.491a1.722,1.722,0,0,1-1.72-1.72V490.4a1.722,1.722,0,0,1,1.72-1.72h18.867a1.722,1.722,0,0,1,1.72,1.72v10.051A1.722,1.722,0,0,1,553.359,502.168Zm-18.867-13.049a1.279,1.279,0,0,0-1.278,1.278v10.051a1.279,1.279,0,0,0,1.278,1.278h18.867a1.279,1.279,0,0,0,1.278-1.278V490.4a1.279,1.279,0,0,0-1.278-1.278Z" transform="translate(5617.809 -1256.127)" fill="#3f3d56"/>
      <path id="Path_2119" data-name="Path 2119" d="M683.359,502.168H664.491a1.722,1.722,0,0,1-1.72-1.72V490.4a1.722,1.722,0,0,1,1.72-1.72h18.867a1.722,1.722,0,0,1,1.72,1.72v10.051A1.722,1.722,0,0,1,683.359,502.168Zm-18.867-13.049a1.279,1.279,0,0,0-1.278,1.278v10.051a1.279,1.279,0,0,0,1.278,1.278h18.867a1.279,1.279,0,0,0,1.278-1.278V490.4a1.279,1.279,0,0,0-1.278-1.278Z" transform="translate(5516.521 -1256.127)" fill="#3f3d56"/>
      <path id="Path_2120" data-name="Path 2120" d="M423.359,633.168H404.491a1.722,1.722,0,0,1-1.72-1.72V621.4a1.722,1.722,0,0,1,1.72-1.72h18.867a1.722,1.722,0,0,1,1.72,1.72v10.051A1.722,1.722,0,0,1,423.359,633.168ZM404.491,620.12a1.279,1.279,0,0,0-1.278,1.278v10.051a1.279,1.279,0,0,0,1.278,1.278h18.867a1.279,1.279,0,0,0,1.278-1.278V621.4a1.279,1.279,0,0,0-1.278-1.278Z" transform="translate(5719.097 -1358.194)" fill="#3f3d56"/>
      <path id="Path_2121" data-name="Path 2121" d="M553.359,633.168H534.491a1.722,1.722,0,0,1-1.72-1.72V621.4a1.722,1.722,0,0,1,1.72-1.72h18.867a1.722,1.722,0,0,1,1.72,1.72v10.051A1.722,1.722,0,0,1,553.359,633.168ZM534.491,620.12a1.279,1.279,0,0,0-1.278,1.278v10.051a1.279,1.279,0,0,0,1.278,1.278h18.867a1.279,1.279,0,0,0,1.278-1.278V621.4a1.279,1.279,0,0,0-1.278-1.278Z" transform="translate(5617.809 -1358.194)" fill="#3f3d56"/>
      <path id="Path_2122" data-name="Path 2122" d="M683.359,633.168H664.491a1.722,1.722,0,0,1-1.72-1.72V621.4a1.722,1.722,0,0,1,1.72-1.72h18.867a1.722,1.722,0,0,1,1.72,1.72v10.051A1.722,1.722,0,0,1,683.359,633.168ZM664.491,620.12a1.279,1.279,0,0,0-1.278,1.278v10.051a1.279,1.279,0,0,0,1.278,1.278h18.867a1.279,1.279,0,0,0,1.278-1.278V621.4a1.279,1.279,0,0,0-1.278-1.278Z" transform="translate(5516.521 -1358.194)" fill="#3f3d56"/>
      <path id="Path_2124" data-name="Path 2124" d="M594.425,731.642a1.9,1.9,0,0,0-1.877-1.924h-9.276v22.859h11.153Z" transform="translate(5578.463 -1443.931)" fill="#3f3d56"/>
      <path id="Path_2125" data-name="Path 2125" d="M543.367,751.967h-11.6v-20.65a2.1,2.1,0,0,1,2.1-2.1h9.5Zm-11.153-.442h10.712V729.66H533.87a1.658,1.658,0,0,0-1.656,1.656Z" transform="translate(5618.588 -1443.542)" fill="#3f3d56"/>
      <circle id="Ellipse_183" data-name="Ellipse 183" cx="0.663" cy="0.663" r="0.663" transform="translate(6151.133 -702.728)" fill="#3f3d56"/>
    </g>
  </g>
</svg>
