<svg xmlns="http://www.w3.org/2000/svg" width="150" height="138" viewBox="0 0 150 138">
  <g id="Group_2457" data-name="Group 2457" transform="translate(-91 -59)">
    <circle id="Ellipse_168" data-name="Ellipse 168" cx="69" cy="69" r="69" transform="translate(97 59)" fill="#c6e5de"/>
    <g id="Group_2189" data-name="Group 2189" transform="translate(90.805 78.624)">
      <g id="Group_2109" data-name="Group 2109" transform="translate(0.195 -0.698)">
        <rect id="Rectangle_624" data-name="Rectangle 624" width="150" height="98" transform="translate(0 0.074)" fill="#d9eee9"/>
        <rect id="Rectangle_574" data-name="Rectangle 574" width="146.398" height="84.123" transform="translate(1.786 11.689)" fill="#fff"/>
        <rect id="Rectangle_575" data-name="Rectangle 575" width="146.398" height="9.617" transform="translate(1.786 2.072)" fill="#56b39d"/>
        <rect id="Rectangle_576" data-name="Rectangle 576" width="142.664" height="73.386" transform="translate(3.84 17.758)" fill="#ecf6f4"/>
        <rect id="Rectangle_577" data-name="Rectangle 577" width="17.179" height="13.725" transform="translate(5.614 19.065)" fill="#b3ddd3" opacity="0.5"/>
        <rect id="Rectangle_578" data-name="Rectangle 578" width="17.179" height="13.725" transform="translate(22.98 19.065)" fill="#fff"/>
        <rect id="Rectangle_579" data-name="Rectangle 579" width="17.179" height="13.725" transform="translate(40.346 19.065)" fill="#d9eee9" opacity="0.2"/>
        <rect id="Rectangle_580" data-name="Rectangle 580" width="17.179" height="13.725" transform="translate(57.712 19.065)" fill="#fff"/>
        <rect id="Rectangle_581" data-name="Rectangle 581" width="17.179" height="13.725" transform="translate(75.078 19.065)" fill="#fff"/>
        <rect id="Rectangle_582" data-name="Rectangle 582" width="17.179" height="13.725" transform="translate(92.444 19.065)" fill="#b3ddd3" opacity="0.5"/>
        <rect id="Rectangle_583" data-name="Rectangle 583" width="17.179" height="13.725" transform="translate(109.811 19.065)" fill="#fff"/>
        <rect id="Rectangle_584" data-name="Rectangle 584" width="17.179" height="13.725" transform="translate(127.177 19.065)" fill="#d9eee9" opacity="0.2"/>
        <rect id="Rectangle_585" data-name="Rectangle 585" width="17.179" height="13.725" transform="translate(5.614 33.07)" fill="#b3ddd3" opacity="0.2"/>
        <rect id="Rectangle_586" data-name="Rectangle 586" width="17.179" height="13.725" transform="translate(22.98 33.07)" fill="#b3ddd3" opacity="0.2"/>
        <rect id="Rectangle_587" data-name="Rectangle 587" width="17.179" height="13.725" transform="translate(40.346 33.07)" fill="#fff"/>
        <rect id="Rectangle_588" data-name="Rectangle 588" width="17.179" height="13.725" transform="translate(57.712 33.07)" fill="#b3ddd3" opacity="0.5"/>
        <rect id="Rectangle_589" data-name="Rectangle 589" width="17.179" height="13.725" transform="translate(75.078 33.07)" fill="#fff"/>
        <rect id="Rectangle_590" data-name="Rectangle 590" width="17.179" height="13.725" transform="translate(92.444 33.07)" fill="#d9eee9" opacity="0.2"/>
        <rect id="Rectangle_591" data-name="Rectangle 591" width="17.179" height="13.725" transform="translate(109.811 33.07)" fill="#b3ddd3" opacity="0.5"/>
        <rect id="Rectangle_592" data-name="Rectangle 592" width="17.179" height="13.725" transform="translate(127.177 33.07)" fill="#fff"/>
        <rect id="Rectangle_593" data-name="Rectangle 593" width="17.179" height="13.725" transform="translate(5.614 46.888)" fill="#fff"/>
        <rect id="Rectangle_594" data-name="Rectangle 594" width="17.179" height="13.725" transform="translate(22.98 46.888)" fill="#fff"/>
        <rect id="Rectangle_595" data-name="Rectangle 595" width="17.179" height="13.725" transform="translate(40.346 46.888)" fill="#b3ddd3" opacity="0.2"/>
        <rect id="Rectangle_596" data-name="Rectangle 596" width="17.179" height="13.725" transform="translate(57.712 46.888)" fill="#fff"/>
        <rect id="Rectangle_597" data-name="Rectangle 597" width="17.179" height="13.725" transform="translate(75.078 46.888)" fill="#b3ddd3" opacity="0.2"/>
        <rect id="Rectangle_598" data-name="Rectangle 598" width="17.179" height="13.725" transform="translate(92.444 46.888)" fill="#fff"/>
        <rect id="Rectangle_599" data-name="Rectangle 599" width="17.179" height="13.725" transform="translate(109.811 46.888)" fill="#fff"/>
        <rect id="Rectangle_600" data-name="Rectangle 600" width="17.179" height="13.725" transform="translate(127.177 46.888)" fill="#b3ddd3" opacity="0.2"/>
        <rect id="Rectangle_601" data-name="Rectangle 601" width="17.179" height="13.725" transform="translate(5.614 60.706)" fill="#fff"/>
        <rect id="Rectangle_602" data-name="Rectangle 602" width="17.179" height="13.725" transform="translate(22.98 60.706)" fill="#d9eee9" opacity="0.5"/>
        <rect id="Rectangle_603" data-name="Rectangle 603" width="17.179" height="13.725" transform="translate(40.346 60.706)" fill="#b3ddd3" opacity="0.5"/>
        <rect id="Rectangle_604" data-name="Rectangle 604" width="17.179" height="13.725" transform="translate(57.712 60.706)" fill="#fff"/>
        <rect id="Rectangle_605" data-name="Rectangle 605" width="17.179" height="13.725" transform="translate(75.078 60.706)" fill="#fff"/>
        <rect id="Rectangle_606" data-name="Rectangle 606" width="17.179" height="13.725" transform="translate(92.444 60.706)" fill="#b3ddd3" opacity="0.5"/>
        <rect id="Rectangle_607" data-name="Rectangle 607" width="17.179" height="13.725" transform="translate(109.811 60.706)" fill="#fff"/>
        <rect id="Rectangle_608" data-name="Rectangle 608" width="17.179" height="13.725" transform="translate(127.177 60.706)" fill="#cee3de" opacity="0.5"/>
        <rect id="Rectangle_609" data-name="Rectangle 609" width="17.179" height="13.725" transform="translate(5.614 74.711)" fill="#cfe9e3" opacity="0.5"/>
        <path id="Path_1753" data-name="Path 1753" d="M0,0H17.179V13.725H0Z" transform="translate(22.98 74.711)" fill="#e1f1ed" opacity="0.2"/>
        <rect id="Rectangle_611" data-name="Rectangle 611" width="17.179" height="13.725" transform="translate(40.346 74.711)" fill="#fff"/>
        <rect id="Rectangle_612" data-name="Rectangle 612" width="17.179" height="13.725" transform="translate(57.712 74.711)" fill="#b3ddd3" opacity="0.5"/>
        <rect id="Rectangle_613" data-name="Rectangle 613" width="17.179" height="13.725" transform="translate(75.078 74.711)" fill="#b3ddd3" opacity="0.2"/>
        <rect id="Rectangle_614" data-name="Rectangle 614" width="17.179" height="13.725" transform="translate(92.444 74.711)" fill="#fff"/>
        <rect id="Rectangle_615" data-name="Rectangle 615" width="17.179" height="13.725" transform="translate(109.811 74.711)" fill="#b3ddd3" opacity="0.2"/>
        <rect id="Rectangle_616" data-name="Rectangle 616" width="17.179" height="13.725" transform="translate(127.177 74.711)" fill="#fff"/>
        <rect id="Rectangle_617" data-name="Rectangle 617" width="5.229" height="5.229" transform="translate(7.014 48.195)" fill="#56b39d"/>
        <rect id="Rectangle_618" data-name="Rectangle 618" width="5.229" height="5.229" transform="translate(58.926 20.559)" fill="#56b39d"/>
        <rect id="Rectangle_619" data-name="Rectangle 619" width="5.229" height="5.229" transform="translate(58.366 48.195)" fill="#56b39d"/>
        <rect id="Rectangle_620" data-name="Rectangle 620" width="5.229" height="5.229" transform="translate(76.105 61.453)" fill="#56b39d"/>
        <rect id="Rectangle_621" data-name="Rectangle 621" width="5.229" height="5.229" transform="translate(110.651 48.195)" fill="#56b39d"/>
        <line id="Line_368" data-name="Line 368" x1="8.226" y2="19.48" transform="translate(26.08 71.757)" fill="#6c63ff"/>
      </g>
    </g>
  </g>
</svg>
