<svg xmlns="http://www.w3.org/2000/svg" width="182.492" height="138.443" viewBox="0 0 182.492 138.443">
  <g id="Group_2459" data-name="Group 2459" transform="translate(-1066.787 -768)">
    <circle id="Ellipse_168" data-name="Ellipse 168" cx="69" cy="69" r="69" transform="translate(1094 768)" fill="#c6e5de"/>
    <g id="Group_2458" data-name="Group 2458">
      <path id="Path_2065" data-name="Path 2065" d="M861.013,601.689a2.047,2.047,0,1,1,2.047-2.047A2.047,2.047,0,0,1,861.013,601.689Zm0-3.752a1.705,1.705,0,1,0,1.705,1.705A1.705,1.705,0,0,0,861.013,597.937Z" transform="translate(343.232 259.234)" fill="#2f2e41"/>
      <path id="Path_2066" data-name="Path 2066" d="M309.585,202.786v11.2a.392.392,0,0,1-.391.391h-.278v58.351a6.089,6.089,0,0,1-6.088,6.088H266.367a6.087,6.087,0,0,1-6.087-6.088V216.424h-.2a.276.276,0,0,1-.276-.275v-6.375a.276.276,0,0,1,.276-.276h.2v-2.4h-.2a.289.289,0,0,1-.288-.29V200.52a.289.289,0,0,1,.288-.288h.2v-3.278h-.206a.255.255,0,0,1-.256-.256v-3.431a.257.257,0,0,1,.256-.258h.206v-6.948a6.087,6.087,0,0,1,6.086-6.087h36.461a6.088,6.088,0,0,1,6.088,6.087V202.4h.278A.392.392,0,0,1,309.585,202.786Z" transform="translate(840.223 605.634)" fill="#3f3d56"/>
      <rect id="Rectangle_782" data-name="Rectangle 782" width="6.792" height="1.379" rx="0.69" transform="translate(1120.219 788.73)" fill="#e6e8ec"/>
      <circle id="Ellipse_169" data-name="Ellipse 169" cx="0.782" cy="0.782" r="0.782" transform="translate(1128.037 788.637)" fill="#e6e8ec"/>
      <path id="Path_2067" data-name="Path 2067" d="M323.432,203.937v85.969a3.863,3.863,0,0,1-3.863,3.861h-34.9a3.856,3.856,0,0,1-3.863-3.861V203.937a3.863,3.863,0,0,1,3.863-3.863h5.224v.67a3.181,3.181,0,0,0,3.181,3.181h17.75A3.181,3.181,0,0,0,314,200.744v-.67h5.567A3.862,3.862,0,0,1,323.432,203.937Z" transform="translate(822.792 588.961)" fill="#56b39d"/>
      <rect id="Rectangle_783" data-name="Rectangle 783" width="39.566" height="19.271" transform="translate(1105.3 817.218)" opacity="0.2"/>
      <rect id="Rectangle_784" data-name="Rectangle 784" width="39.566" height="19.271" transform="translate(1167.378 795.218)" fill="#f2f2f2"/>
      <rect id="Rectangle_785" data-name="Rectangle 785" width="39.566" height="19.271" transform="translate(1105.3 846.429)" fill="#3f3d56"/>
      <ellipse id="Ellipse_170" data-name="Ellipse 170" cx="3.411" cy="3.411" rx="3.411" ry="3.411" transform="translate(1137.362 796.118)" fill="#fff"/>
      <path id="Path_2068" data-name="Path 2068" d="M427.9,113.7h-1.425v-1.425h-.219V113.7h-1.425v.219h1.425v1.425h.219v-1.425H427.9Z" transform="translate(714.41 685.715)" fill="#3f3d56"/>
      <rect id="Rectangle_786" data-name="Rectangle 786" width="39.566" height="19.271" transform="translate(1162.944 792.66)" fill="#3f3d56"/>
      <path id="Path_2075" data-name="Path 2075" d="M664.42,460.512h-3.367v-3.367h3.367Zm-3.108-.259h2.849V457.4h-2.849Z" transform="translate(507.392 375.733)" fill="#3f3d56"/>
      <path id="Path_2076" data-name="Path 2076" d="M151.269,575.823l-2.3-2.462,2.462-2.3,2.3,2.462Zm-1.93-2.449,1.943,2.083,2.083-1.943-1.943-2.083Z" transform="translate(932.141 281.241)" fill="#2f2e41"/>
      <ellipse id="Ellipse_171" data-name="Ellipse 171" cx="1.719" cy="1.719" rx="1.719" ry="1.719" transform="translate(1083.51 800.655)" fill="#3f3d56"/>
      <path id="Path_2077" data-name="Path 2077" d="M148.954,259.1a4.966,4.966,0,1,1,4.966-4.966A4.966,4.966,0,0,1,148.954,259.1Zm0-9.549a4.584,4.584,0,1,0,4.584,4.584,4.584,4.584,0,0,0-4.584-4.584Z" transform="translate(936.275 548.243)" fill="#2f2e41"/>
      <path id="Path_2085" data-name="Path 2085" d="M0,0H0Z" transform="translate(1066.787 884.124)" fill="#3f3d56"/>
      <rect id="Rectangle_788" data-name="Rectangle 788" width="39.566" height="19.271" transform="translate(1113.827 814.148)" fill="#3f3d56"/>
      <path id="Path_2079" data-name="Path 2079" d="M525.433,439.285l-11.211,3.125-12.031,1.008L476.01,428.187h0l-.089-.055-.015-.01-.217-.136-2.6-1.636c0-.044.011-.087.02-.129a1.178,1.178,0,0,1,.267-.546,1.312,1.312,0,0,1,.154-.154h0c.025-.021.05-.042.077-.061a1,1,0,0,1,.085-.059,4.236,4.236,0,0,1,2.05-.524,9.758,9.758,0,0,1,4.92,1.067c3.069,1.552,9.665,4.607,10.694,2.736,1.349-2.452-13.978-29.795-13.978-29.795-1.262-3.243-.338-4.3.24-4.636l.05-.028a1.436,1.436,0,0,1,.19-.081.889.889,0,0,1,.1-.031l.028-.006,2.033,2.7.031.04.109.146.033.044,12.324,16.378C511.4,403.236,517.9,430.456,517.9,430.456Z" transform="translate(660.301 463.024)" fill="#fbbebe"/>
      <path id="Path_2080" data-name="Path 2080" d="M502.365,397.065a.533.533,0,0,1-.494.3.785.785,0,0,1-.2-.027,2.717,2.717,0,0,1-1.379-1.306,2.812,2.812,0,0,1-.454-1.783,1.423,1.423,0,0,1,.19-.081.877.877,0,0,1,.1-.031,2.212,2.212,0,0,0,.373,1.772,2.506,2.506,0,0,0,1.229,1.191.334.334,0,0,0,.46-.266l.031.04.109.146Z" transform="translate(641.135 427.994)" fill="#3f3d56"/>
      <path id="Path_2081" data-name="Path 2081" d="M477.315,580.637l-.015-.01-.217-.136a2.447,2.447,0,0,0-.848-1.5,2.61,2.61,0,0,0-1.464-.813,1.312,1.312,0,0,1,.154-.155h0c.025-.021.05-.042.077-.061a3.2,3.2,0,0,1,1.4.853A2.42,2.42,0,0,1,477.315,580.637Z" transform="translate(661.906 275.517)" fill="#3f3d56"/>
      <path id="Path_2082" data-name="Path 2082" d="M941.649,474.864a71.4,71.4,0,0,1,3.126,28.116,67.831,67.831,0,0,1-17.448-52.511A71.4,71.4,0,0,1,941.649,474.864Z" transform="translate(286.769 381.27)" fill="#56b39d"/>
      <path id="Path_2083" data-name="Path 2083" d="M1032.761,474.864a71.394,71.394,0,0,0-3.126,28.116,67.83,67.83,0,0,0,17.448-52.511A71.4,71.4,0,0,0,1032.761,474.864Z" transform="translate(201.908 381.27)" fill="#56b39d"/>
      <path id="Path_2084" data-name="Path 2084" d="M1003.312,460.509A71.4,71.4,0,0,1,998,488.294a67.831,67.831,0,0,1-1.169-55.321A71.4,71.4,0,0,1,1003.312,460.509Z" transform="translate(233.298 395.782)" fill="#3f3d56"/>
      <ellipse id="Ellipse_173" data-name="Ellipse 173" cx="1.496" cy="1.496" rx="1.496" ry="1.496" transform="translate(1229.217 841.294)" fill="#c6e5de"/>
      <ellipse id="Ellipse_174" data-name="Ellipse 174" cx="0.831" cy="0.831" rx="0.831" ry="0.831" transform="translate(1226.974 853.923)" fill="#c6e5de"/>
      <ellipse id="Ellipse_175" data-name="Ellipse 175" cx="0.831" cy="0.831" rx="0.831" ry="0.831" transform="translate(1216.838 845.698)" fill="#3f3d56"/>
      <ellipse id="Ellipse_176" data-name="Ellipse 176" cx="0.831" cy="0.831" rx="0.831" ry="0.831" transform="translate(1246.166 837.639)" fill="#3f3d56"/>
      <ellipse id="Ellipse_177" data-name="Ellipse 177" cx="0.831" cy="0.831" rx="0.831" ry="0.831" transform="translate(1221.158 853.508)" fill="#3f3d56"/>
      <ellipse id="Ellipse_178" data-name="Ellipse 178" cx="0.831" cy="0.831" rx="0.831" ry="0.831" transform="translate(1238.606 848.689)" fill="#3f3d56"/>
      <ellipse id="Ellipse_179" data-name="Ellipse 179" cx="0.831" cy="0.831" rx="0.831" ry="0.831" transform="translate(1221.657 865.721)" fill="#3f3d56"/>
      <ellipse id="Ellipse_180" data-name="Ellipse 180" cx="0.831" cy="0.831" rx="0.831" ry="0.831" transform="translate(1239.436 860.985)" fill="#3f3d56"/>
      <ellipse id="Ellipse_181" data-name="Ellipse 181" cx="0.831" cy="0.831" rx="0.831" ry="0.831" transform="translate(1231.377 861.816)" fill="#c6e5de"/>
    </g>
  </g>
</svg>
