<svg xmlns="http://www.w3.org/2000/svg" width="147" height="147" viewBox="0 0 147 147">
  <g id="Group_2465" data-name="Group 2465" transform="translate(-696 -6346)">
    <g id="Path_2311" data-name="Path 2311" transform="translate(696 6346)" fill="#1e9a7d">
      <path d="M 73.5 146 C 63.71212005615234 146 54.21755981445313 144.0832672119141 45.2800407409668 140.3029937744141 C 40.98434066772461 138.4860534667969 36.84104156494141 136.2371673583984 32.96525955200195 133.6187133789063 C 29.12603950500488 131.0249938964844 25.51577949523926 128.0462646484375 22.23476028442383 124.7652435302734 C 18.95373916625977 121.4842224121094 15.97500038146973 117.8739624023438 13.38127994537354 114.0347366333008 C 10.76284027099609 110.1589584350586 8.51393985748291 106.0156631469727 6.697000026702881 101.7199630737305 C 2.916739940643311 92.78244018554688 1 83.28787994384766 1 73.5 C 1 63.71212005615234 2.916739940643311 54.21755981445313 6.697000026702881 45.2800407409668 C 8.51393985748291 40.98434066772461 10.76284027099609 36.84104156494141 13.38127994537354 32.96525955200195 C 15.97500038146973 29.12603950500488 18.95373916625977 25.51577949523926 22.23476028442383 22.23476028442383 C 25.51577949523926 18.95373916625977 29.12603950500488 15.97500038146973 32.96525955200195 13.38127994537354 C 36.84104156494141 10.76284027099609 40.98434066772461 8.51393985748291 45.2800407409668 6.697000026702881 C 54.21755981445313 2.916739940643311 63.71212005615234 1 73.5 1 C 83.28787994384766 1 92.78244018554688 2.916739940643311 101.7199630737305 6.697000026702881 C 106.0156631469727 8.51393985748291 110.1589584350586 10.76284027099609 114.0347366333008 13.38127994537354 C 117.8739624023438 15.97500038146973 121.4842224121094 18.95373916625977 124.7652435302734 22.23476028442383 C 128.0462646484375 25.51577949523926 131.0249938964844 29.12603950500488 133.6187133789063 32.96525955200195 C 136.2371673583984 36.84104156494141 138.4860534667969 40.98434066772461 140.3029937744141 45.2800407409668 C 144.0832672119141 54.21755981445313 146 63.71212005615234 146 73.5 C 146 83.28787994384766 144.0832672119141 92.78244018554688 140.3029937744141 101.7199630737305 C 138.4860534667969 106.0156631469727 136.2371673583984 110.1589584350586 133.6187133789063 114.0347366333008 C 131.0249938964844 117.8739624023438 128.0462646484375 121.4842224121094 124.7652435302734 124.7652435302734 C 121.4842224121094 128.0462646484375 117.8739624023438 131.0249938964844 114.0347366333008 133.6187133789063 C 110.1589584350586 136.2371673583984 106.0156631469727 138.4860534667969 101.7199630737305 140.3029937744141 C 92.78244018554688 144.0832672119141 83.28787994384766 146 73.5 146 Z" stroke="none"/>
      <path d="M 73.5 2 C 63.8466796875 2 54.48317718505859 3.890167236328125 45.66960144042969 7.617996215820313 C 41.43335723876953 9.409774780273438 37.34734344482422 11.62762451171875 33.52506256103516 14.20989990234375 C 29.73860168457031 16.76797485351563 26.17787933349609 19.70584106445313 22.94185638427734 22.94185638427734 C 19.70584106445313 26.17787933349609 16.76797485351563 29.73860168457031 14.20989990234375 33.52506256103516 C 11.62762451171875 37.34734344482422 9.409774780273438 41.43335723876953 7.617996215820313 45.66960144042969 C 3.890167236328125 54.48317718505859 2 63.8466796875 2 73.5 C 2 83.1533203125 3.890167236328125 92.51681518554688 7.617996215820313 101.3303985595703 C 9.409774780273438 105.5666351318359 11.62762451171875 109.6526641845703 14.20989990234375 113.4749450683594 C 16.76797485351563 117.2613983154297 19.70584106445313 120.8221206665039 22.94185638427734 124.0581359863281 C 26.17787933349609 127.2941589355469 29.73860168457031 130.2320251464844 33.52506256103516 132.7901000976563 C 37.34734344482422 135.3723754882813 41.43335723876953 137.5902252197266 45.66960144042969 139.3820037841797 C 54.48317718505859 143.1098327636719 63.8466796875 145 73.5 145 C 83.1533203125 145 92.51681518554688 143.1098327636719 101.3303985595703 139.3820037841797 C 105.5666351318359 137.5902252197266 109.6526641845703 135.3723754882813 113.4749450683594 132.7901000976563 C 117.2613983154297 130.2320251464844 120.8221206665039 127.2941589355469 124.0581359863281 124.0581359863281 C 127.2941589355469 120.8221206665039 130.2320251464844 117.2613983154297 132.7901000976563 113.4749450683594 C 135.3723754882813 109.6526641845703 137.5902252197266 105.5666351318359 139.3820037841797 101.3303985595703 C 143.1098327636719 92.51681518554688 145 83.1533203125 145 73.5 C 145 63.8466796875 143.1098327636719 54.48317718505859 139.3820037841797 45.66960144042969 C 137.5902252197266 41.43335723876953 135.3723754882813 37.34734344482422 132.7901000976563 33.52506256103516 C 130.2320251464844 29.73860168457031 127.2941589355469 26.17787933349609 124.0581359863281 22.94185638427734 C 120.8221206665039 19.70584106445313 117.2613983154297 16.76797485351563 113.4749450683594 14.20989990234375 C 109.6526641845703 11.62762451171875 105.5666351318359 9.409774780273438 101.3303985595703 7.617996215820313 C 92.51681518554688 3.890167236328125 83.1533203125 2 73.5 2 M 73.5 0 C 114.0929183959961 0 147 32.90708160400391 147 73.5 C 147 114.0929183959961 114.0929183959961 147 73.5 147 C 32.90708160400391 147 0 114.0929183959961 0 73.5 C 0 32.90708160400391 32.90708160400391 0 73.5 0 Z" stroke="none" fill="#1e9a7d"/>
    </g>
    <g id="Group_2433" data-name="Group 2433" transform="translate(-4.346 -5.511)">
      <g id="Group_2428" data-name="Group 2428" transform="translate(721 6356)">
        <rect id="Rectangle_1039" data-name="Rectangle 1039" width="105" height="135" rx="8" transform="translate(0.346 -0.489)" fill="#476285"/>
        <rect id="Rectangle_1038" data-name="Rectangle 1038" width="91.699" height="106.527" transform="translate(6.997 13.804)" fill="#d9eee9"/>
        <circle id="Ellipse_322" data-name="Ellipse 322" cx="3.902" cy="3.902" r="3.902" transform="translate(48.944 123.452)" fill="#2a3e57"/>
        <circle id="Ellipse_323" data-name="Ellipse 323" cx="1.853" cy="1.853" r="1.853" transform="translate(50.993 6.292)" fill="#2a3e57"/>
      </g>
      <g id="Group_2432" data-name="Group 2432" transform="translate(737.194 6381.061)">
        <g id="Group_2426" data-name="Group 2426" transform="translate(0 0)">
          <path id="Path_2957" data-name="Path 2957" d="M6.333,0A6.333,6.333,0,1,1,0,6.333,6.333,6.333,0,0,1,6.333,0Z" fill="#56b39d"/>
          <path id="Path_2958" data-name="Path 2958" d="M763.614,407.168a.658.658,0,0,1-.4-.131l-.007-.005-1.488-1.139a.661.661,0,1,1,.8-1.05l.964.739,2.278-2.971a.661.661,0,0,1,.927-.122l-.014.019.014-.019a.662.662,0,0,1,.123.927l-2.68,3.495A.662.662,0,0,1,763.614,407.168Z" transform="translate(-757.909 -398.419)" fill="#fff"/>
          <path id="Path_2959" data-name="Path 2959" d="M630.975,405.916H585.691c-1.917,0-3.471-2.076-3.471-4.637s1.554-4.637,3.471-4.637h45.284c1.917,0,3.471,2.076,3.471,4.637s-1.554,4.637-3.471,4.637Z" transform="translate(-561.142 -395.491)" fill="#56b39d"/>
        </g>
        <g id="Group_2429" data-name="Group 2429" transform="translate(0 22.882)">
          <path id="Path_2957-2" data-name="Path 2957" d="M6.333,0A6.333,6.333,0,1,1,0,6.333,6.333,6.333,0,0,1,6.333,0Z" fill="#56b39d"/>
          <path id="Path_2958-2" data-name="Path 2958" d="M763.614,407.168a.658.658,0,0,1-.4-.131l-.007-.005-1.488-1.139a.661.661,0,1,1,.8-1.05l.964.739,2.278-2.971a.661.661,0,0,1,.927-.122l-.014.019.014-.019a.662.662,0,0,1,.123.927l-2.68,3.495A.662.662,0,0,1,763.614,407.168Z" transform="translate(-757.909 -398.419)" fill="#fff"/>
          <path id="Path_2959-2" data-name="Path 2959" d="M630.975,405.916H585.691c-1.917,0-3.471-2.076-3.471-4.637s1.554-4.637,3.471-4.637h45.284c1.917,0,3.471,2.076,3.471,4.637s-1.554,4.637-3.471,4.637Z" transform="translate(-561.142 -395.491)" fill="#56b39d"/>
        </g>
        <g id="Group_2430" data-name="Group 2430" transform="translate(0 46.853)">
          <path id="Path_2957-3" data-name="Path 2957" d="M6.333,0A6.333,6.333,0,1,1,0,6.333,6.333,6.333,0,0,1,6.333,0Z" fill="#56b39d"/>
          <path id="Path_2958-3" data-name="Path 2958" d="M763.614,407.168a.658.658,0,0,1-.4-.131l-.007-.005-1.488-1.139a.661.661,0,1,1,.8-1.05l.964.739,2.278-2.971a.661.661,0,0,1,.927-.122l-.014.019.014-.019a.662.662,0,0,1,.123.927l-2.68,3.495A.662.662,0,0,1,763.614,407.168Z" transform="translate(-757.909 -398.419)" fill="#fff"/>
          <path id="Path_2959-3" data-name="Path 2959" d="M630.975,405.916H585.691c-1.917,0-3.471-2.076-3.471-4.637s1.554-4.637,3.471-4.637h45.284c1.917,0,3.471,2.076,3.471,4.637s-1.554,4.637-3.471,4.637Z" transform="translate(-561.142 -395.491)" fill="#56b39d"/>
        </g>
        <g id="Group_2431" data-name="Group 2431" transform="translate(0 69.735)">
          <path id="Path_2957-4" data-name="Path 2957" d="M6.333,0A6.333,6.333,0,1,1,0,6.333,6.333,6.333,0,0,1,6.333,0Z" fill="#56b39d"/>
          <path id="Path_2958-4" data-name="Path 2958" d="M763.614,407.168a.658.658,0,0,1-.4-.131l-.007-.005-1.488-1.139a.661.661,0,1,1,.8-1.05l.964.739,2.278-2.971a.661.661,0,0,1,.927-.122l-.014.019.014-.019a.662.662,0,0,1,.123.927l-2.68,3.495A.662.662,0,0,1,763.614,407.168Z" transform="translate(-757.909 -398.419)" fill="#fff"/>
          <path id="Path_2959-4" data-name="Path 2959" d="M630.975,405.916H585.691c-1.917,0-3.471-2.076-3.471-4.637s1.554-4.637,3.471-4.637h45.284c1.917,0,3.471,2.076,3.471,4.637s-1.554,4.637-3.471,4.637Z" transform="translate(-561.142 -395.491)" fill="#56b39d"/>
        </g>
      </g>
    </g>
  </g>
</svg>
