<svg xmlns="http://www.w3.org/2000/svg" width="184.798" height="147" viewBox="0 0 184.798 147">
  <g id="Group_2466" data-name="Group 2466" transform="translate(-1095.377 -6346)">
    <g id="Ellipse_64" data-name="Ellipse 64" transform="translate(1111 6346)" fill="#1e9a7d" stroke="#1e9a7d" stroke-width="2">
      <circle cx="73.5" cy="73.5" r="73.5" stroke="none"/>
      <circle cx="73.5" cy="73.5" r="72.5" fill="none"/>
    </g>
    <path id="Path_2318" data-name="Path 2318" d="M478.6,553.7Z" transform="translate(727.763 5885.713)" fill="#7bc3b2"/>
    <g id="Group_2418" data-name="Group 2418" transform="translate(1095.892 6350.613)">
      <path id="Path_2926" data-name="Path 2926" d="M286.951,99.363,282,100.64l-61.031,15.739-4.954,1.277a9.379,9.379,0,0,0-6.732,11.411l21.481,83.3a9.379,9.379,0,0,0,11.411,6.732l.013,0L313.1,200.806l.013,0a9.379,9.379,0,0,0,6.732-11.411l-21.481-83.3A9.379,9.379,0,0,0,286.951,99.363Z" transform="translate(-208.978 -99.06)" fill="none" stroke="#3f3d56" stroke-width="1"/>
      <path id="Path_2927" data-name="Path 2927" d="M298.782,113.131l-5.867,1.513-59.2,15.268-5.867,1.513a6.679,6.679,0,0,0-4.794,8.126l21.481,83.3a6.679,6.679,0,0,0,8.126,4.794l.013,0,70.913-18.287.013,0a6.679,6.679,0,0,0,4.794-8.126l-21.48-83.3A6.679,6.679,0,0,0,298.782,113.131Z" transform="translate(-220.135 -110.217)" fill="#fff"/>
      <path id="Path_2928" data-name="Path 2928" d="M433.723,239.858l-35.873,9.251a1.56,1.56,0,0,1-.779-3.021l35.873-9.251a1.56,1.56,0,0,1,.779,3.021Z" transform="translate(-359.506 -209.97)" fill="#f2f2f2"/>
      <path id="Path_2929" data-name="Path 2929" d="M446.709,257.794l-42.1,10.858a1.56,1.56,0,0,1-.779-3.021l42.1-10.858a1.56,1.56,0,1,1,.779,3.021Z" transform="translate(-364.945 -224.415)" fill="#f2f2f2"/>
      <path id="Path_2930" data-name="Path 2930" d="M463.991,357.232l-35.873,9.251a1.56,1.56,0,1,1-.779-3.021l35.873-9.251a1.56,1.56,0,0,1,.779,3.021Z" transform="translate(-383.882 -304.494)" fill="#f2f2f2"/>
      <path id="Path_2931" data-name="Path 2931" d="M476.977,375.168l-42.1,10.858a1.56,1.56,0,0,1-.779-3.021l42.1-10.858a1.56,1.56,0,1,1,.779,3.021Z" transform="translate(-389.321 -318.938)" fill="#f2f2f2"/>
      <path id="Path_2932" data-name="Path 2932" d="M494.26,474.605l-35.873,9.251a1.56,1.56,0,0,1-.779-3.021l35.873-9.251a1.56,1.56,0,1,1,.779,3.021Z" transform="translate(-408.258 -399.018)" fill="#f2f2f2"/>
      <path id="Path_2933" data-name="Path 2933" d="M507.245,492.541,465.14,503.4a1.56,1.56,0,0,1-.779-3.021l42.1-10.858a1.56,1.56,0,0,1,.779,3.021Z" transform="translate(-413.697 -413.462)" fill="#f2f2f2"/>
      <path id="Path_2934" data-name="Path 2934" d="M306.019,295.97l-12.7,3.274a.749.749,0,0,1-.911-.538l-2.914-11.3a.749.749,0,0,1,.538-.911l12.7-3.274a.749.749,0,0,1,.911.538l2.914,11.3a.749.749,0,0,1-.538.911Z" transform="translate(-273.799 -247.345)" fill="#e6e6e6"/>
      <path id="Path_2935" data-name="Path 2935" d="M336.287,413.343l-12.7,3.274a.749.749,0,0,1-.911-.538l-2.914-11.3a.749.749,0,0,1,.538-.911l12.7-3.274a.749.749,0,0,1,.911.538l2.914,11.3a.749.749,0,0,1-.538.911Z" transform="translate(-298.175 -341.869)" fill="#e6e6e6"/>
      <path id="Path_2936" data-name="Path 2936" d="M366.555,530.717l-12.7,3.274a.749.749,0,0,1-.911-.538l-2.914-11.3a.749.749,0,0,1,.538-.911l12.7-3.274a.749.749,0,0,1,.911.538l2.914,11.3A.749.749,0,0,1,366.555,530.717Z" transform="translate(-322.551 -436.393)" fill="#e6e6e6"/>
      <path id="Path_2937" data-name="Path 2937" d="M521.821,209.052H448.562a9.379,9.379,0,0,0-9.369,9.369v86.022a9.379,9.379,0,0,0,9.369,9.369h73.259a9.379,9.379,0,0,0,9.369-9.369V218.42a9.379,9.379,0,0,0-9.369-9.369Z" transform="translate(-394.371 -187.634)" fill="none" stroke="#3f3d56" stroke-width="1"/>
      <path id="Path_2938" data-name="Path 2938" d="M532.978,222.906h-73.26a6.679,6.679,0,0,0-6.672,6.672V315.6a6.679,6.679,0,0,0,6.672,6.672h73.26a6.679,6.679,0,0,0,6.672-6.672V229.578A6.679,6.679,0,0,0,532.978,222.906Z" transform="translate(-405.528 -198.792)" fill="#fff"/>
      <path id="Path_2940" data-name="Path 2940" d="M647.292,452.808H610.245a1.56,1.56,0,0,1,0-3.12h37.047a1.56,1.56,0,0,1,0,3.12Z" transform="translate(-530.868 -381.424)" fill="#e6e6e6"/>
      <path id="Path_2941" data-name="Path 2941" d="M653.727,479.855H610.245a1.56,1.56,0,0,1,0-3.12h43.482a1.56,1.56,0,0,1,0,3.12Z" transform="translate(-530.868 -403.207)" fill="#e6e6e6"/>
      <path id="Path_2942" data-name="Path 2942" d="M647.292,574.021H610.245a1.56,1.56,0,1,1,0-3.12h37.047a1.56,1.56,0,1,1,0,3.12Z" transform="translate(-530.867 -479.041)" fill="#e6e6e6"/>
      <path id="Path_2943" data-name="Path 2943" d="M653.727,601.069H610.245a1.56,1.56,0,1,1,0-3.12h43.482a1.56,1.56,0,0,1,0,3.12Z" transform="translate(-530.867 -500.823)" fill="#e6e6e6"/>
      <path id="Path_2944" data-name="Path 2944" d="M516.74,450.575H503.63a.749.749,0,0,1-.748-.748v-11.67a.749.749,0,0,1,.748-.748h13.11a.749.749,0,0,1,.748.748v11.67A.749.749,0,0,1,516.74,450.575Z" transform="translate(-445.661 -371.536)" fill="#56b39d"/>
      <path id="Path_2945" data-name="Path 2945" d="M516.74,571.789H503.63a.749.749,0,0,1-.748-.748V559.37a.749.749,0,0,1,.748-.748h13.11a.749.749,0,0,1,.748.748v11.67A.749.749,0,0,1,516.74,571.789Z" transform="translate(-445.661 -469.153)" fill="#56b39d"/>
      <path id="Path_2946" data-name="Path 2946" d="M687.769,317.873H660.456a1.56,1.56,0,0,1,0-3.12h27.313a1.56,1.56,0,1,1,0,3.12Z" transform="translate(-571.304 -272.758)" fill="#ccc"/>
      <path id="Path_2947" data-name="Path 2947" d="M694.2,344.921H660.456a1.56,1.56,0,0,1,0-3.12H694.2a1.56,1.56,0,1,1,0,3.12Z" transform="translate(-571.304 -294.54)" fill="#ccc"/>
      <path id="Path_2948" data-name="Path 2948" d="M528.6,303.122h-25.18a.749.749,0,0,1-.748-.748V282.722a.749.749,0,0,1,.748-.748H528.6a.749.749,0,0,1,.748.748v19.652a.749.749,0,0,1-.748.748Z" transform="translate(-445.491 -246.361)" fill="#56b39d"/>
    </g>
    <g id="Group_2422" data-name="Group 2422" transform="translate(1195.365 6400.786)">
      <circle id="Ellipse_317" data-name="Ellipse 317" cx="24.743" cy="24.743" r="24.743" transform="translate(4.874 4.873)" fill="#fff" opacity="0.2"/>
      <path id="Path_2949" data-name="Path 2949" d="M2957.385,859.04a24.744,24.744,0,0,0,4.309-5.792l5.617,3.023a.673.673,0,0,1,.269.923,32.007,32.007,0,0,1-12.041,12.041.673.673,0,0,1-.923-.269l-3.023-5.617A24.74,24.74,0,0,0,2957.385,859.04Z" transform="translate(-2910.272 -811.928)" fill="#253345"/>
      <g id="Group_2419" data-name="Group 2419" transform="translate(4.874 4.873)">
        <circle id="Ellipse_318" data-name="Ellipse 318" cx="24.743" cy="24.743" r="24.743" transform="translate(0 0)" fill="#fff" opacity="0.3"/>
      </g>
      <path id="Path_2950" data-name="Path 2950" d="M2927.961,135.814a29.616,29.616,0,1,1,0,41.883A29.616,29.616,0,0,1,2927.961,135.814Zm3.446,38.437a24.743,24.743,0,1,0,0-34.991A24.743,24.743,0,0,0,2931.408,174.252Z" transform="translate(-2919.287 -127.14)" fill="#3a506b"/>
      <rect id="Rectangle_1034" data-name="Rectangle 1034" width="6.329" height="4.556" transform="translate(59.239 54.763) rotate(135)" fill="#8b98ab"/>
      <path id="Rectangle_1035" data-name="Rectangle 1035" d="M4.315,0h0A4.315,4.315,0,0,1,8.629,4.315V5.6a0,0,0,0,1,0,0H0a0,0,0,0,1,0,0V4.315A4.315,4.315,0,0,1,4.315,0Z" transform="translate(57.565 51.463) rotate(135)" fill="#253345"/>
      <path id="Path_2951" data-name="Path 2951" d="M2470.014,1068.717l5.173-5.172a.657.657,0,0,1,.929,0l11.572,11.586h.015l12.377,12.377a.657.657,0,0,1,0,.929l-5.173,5.172a.657.657,0,0,1-.929,0l-18.331-18.345h-.015l-5.618-5.618A.658.658,0,0,1,2470.014,1068.717Z" transform="translate(-2415.462 -1010.076)" fill="#476285"/>
      <circle id="Ellipse_319" data-name="Ellipse 319" cx="3.001" cy="3.001" r="3.001" transform="translate(21.196 8.529)" fill="#fff" opacity="0.2"/>
      <g id="Group_2420" data-name="Group 2420" transform="translate(26.64 34.61)" opacity="0.2">
        <path id="Path_2952" data-name="Path 2952" d="M3085.732,752.4a22.056,22.056,0,0,0,20.04-12.837,2.976,2.976,0,1,0-5.406-2.49,16.1,16.1,0,0,1-14.634,9.375,2.976,2.976,0,0,0,0,5.952Z" transform="translate(-3082.756 -735.341)" fill="#fff"/>
      </g>
      <g id="Group_2421" data-name="Group 2421" transform="translate(7.564 12.867)" opacity="0.2">
        <path id="Path_2953" data-name="Path 2953" d="M3624.315,381.392a2.977,2.977,0,0,0,2.668-4.292,16.116,16.116,0,0,1,3.313-18.729,2.976,2.976,0,1,0-4.119-4.3,22.068,22.068,0,0,0-4.533,25.656A2.976,2.976,0,0,0,3624.315,381.392Z" transform="translate(-3619.384 -353.247)" fill="#fff"/>
      </g>
    </g>
  </g>
</svg>
