<svg xmlns="http://www.w3.org/2000/svg" width="178.694" height="155.346" viewBox="0 0 178.694 155.346">
  <g id="Group_2467" data-name="Group 2467" transform="translate(-1486.153 -6346)">
    <g id="Ellipse_65" data-name="Ellipse 65" transform="translate(1502 6346)" fill="#1e9a7d" stroke="#1e9a7d" stroke-width="2">
      <circle cx="73.5" cy="73.5" r="73.5" stroke="none"/>
      <circle cx="73.5" cy="73.5" r="72.5" fill="none"/>
    </g>
    <path id="Icon_metro-qrcode" data-name="Icon metro-qrcode" d="M17.407,4.9H5.538V16.764H17.407Zm2.967-2.967v17.8H2.571V1.928ZM8.505,7.862h5.934V13.8H8.505ZM47.078,4.9H35.21V16.764H47.078V4.9Zm2.967-2.967v17.8h-17.8V1.928h17.8ZM38.177,7.862h5.934V13.8H38.177Zm-20.77,26.7H5.538V46.436H17.407ZM20.374,31.6V49.4H2.571V31.6ZM8.505,37.534h5.934v5.934H8.505ZM23.341,1.928h2.967V4.9H23.341ZM26.308,4.9h2.967V7.862H26.308ZM23.341,7.862h2.967V10.83H23.341Zm2.967,2.967h2.967V13.8H26.308ZM23.341,13.8h2.967v2.967H23.341Zm2.967,2.967h2.967v2.967H26.308Zm-2.967,2.967h2.967V22.7H23.341Zm0,5.934h2.967v2.967H23.341Zm2.967,2.967h2.967V31.6H26.308ZM23.341,31.6h2.967v2.967H23.341Zm2.967,2.967h2.967v2.967H26.308Zm-2.967,2.967h2.967V40.5H23.341ZM26.308,40.5h2.967v2.967H26.308Zm-2.967,2.967h2.967v2.967H23.341Zm2.967,2.967h2.967V49.4H26.308Zm20.77-20.77h2.967v2.967H47.078Zm-41.54,0H8.505v2.967H5.538ZM8.505,22.7h2.967v2.967H8.505Zm-5.934,0H5.538v2.967H2.571Zm11.869,0h2.967v2.967H14.439Zm2.967,2.967h2.967v2.967H17.407ZM20.374,22.7h2.967v2.967H20.374Zm8.9,2.967h2.967v2.967H29.275ZM32.242,22.7H35.21v2.967H32.242Zm2.967,2.967h2.967v2.967H35.21ZM38.177,22.7h2.967v2.967H38.177Zm2.967,2.967h2.967v2.967H41.144ZM44.111,22.7h2.967v2.967H44.111Zm2.967,8.9h2.967v2.967H47.078Zm-17.8,0h2.967v2.967H29.275Zm2.967-2.967H35.21V31.6H32.242ZM35.21,31.6h2.967v2.967H35.21Zm5.934,0h2.967v2.967H41.144Zm2.967-2.967h2.967V31.6H44.111Zm2.967,8.9h2.967V40.5H47.078Zm-17.8,0h2.967V40.5H29.275Zm2.967-2.967H35.21v2.967H32.242Zm5.934,0h2.967v2.967H38.177Zm2.967,2.967h2.967V40.5H41.144Zm2.967-2.967h2.967v2.967H44.111Zm2.967,8.9h2.967v2.967H47.078ZM32.242,40.5H35.21v2.967H32.242Zm2.967,2.967h2.967v2.967H35.21ZM38.177,40.5h2.967v2.967H38.177Zm2.967,2.967h2.967v2.967H41.144Zm-8.9,2.967H35.21V49.4H32.242Zm5.934,0h2.967V49.4H38.177Zm5.934,0h2.967V49.4H44.111Z" transform="translate(1549.429 6394.072)" fill="#fff"/>
    <g id="Group_2273" data-name="Group 2273" transform="translate(1486.153 6346)">
      <path id="Path_2066" data-name="Path 2066" d="M334.546,214.221v16.816a.588.588,0,0,1-.586.586h-.417v87.6a9.141,9.141,0,0,1-9.14,9.14H269.664a9.138,9.138,0,0,1-9.138-9.14V234.7h-.3a.414.414,0,0,1-.415-.412v-9.571a.415.415,0,0,1,.415-.415h.3v-3.605h-.3a.434.434,0,0,1-.433-.435v-9.44a.434.434,0,0,1,.433-.433h.3v-4.921h-.31a.383.383,0,0,1-.384-.384v-5.151a.386.386,0,0,1,.384-.387h.31V189.112a9.138,9.138,0,0,1,9.137-9.138H324.4a9.14,9.14,0,0,1,9.14,9.138v24.523h.417A.588.588,0,0,1,334.546,214.221Z" transform="translate(-205.589 -179.974)" fill="#476285"/>
      <rect id="Rectangle_782" data-name="Rectangle 782" width="10.196" height="2.07" rx="1.035" transform="translate(84.499 4.687)" fill="#e6e8ec"/>
      <ellipse id="Ellipse_169" data-name="Ellipse 169" cx="1.174" cy="1.174" rx="1.174" ry="1.174" transform="translate(96.644 4.548)" fill="#e6e8ec"/>
      <path id="Path_2067" data-name="Path 2067" d="M344.8,205.873V334.938a5.8,5.8,0,0,1-5.8,5.8H286.6a5.789,5.789,0,0,1-5.8-5.8V205.873a5.8,5.8,0,0,1,5.8-5.8h7.842v1.006a4.775,4.775,0,0,0,4.775,4.775h26.648a4.775,4.775,0,0,0,4.775-4.775v-1.006H339A5.8,5.8,0,0,1,344.8,205.873Z" transform="translate(-221.208 -194.928)" fill="#d9eee9"/>
      <path id="Path_2076" data-name="Path 2076" d="M152.421,578.209l-3.448-3.7,3.7-3.448,3.448,3.7Zm-2.9-3.677,2.917,3.128,3.128-2.917-2.917-3.128Z" transform="translate(-126.336 -465.686)" fill="#d9eee9"/>
      <ellipse id="Ellipse_171" data-name="Ellipse 171" cx="2.58" cy="2.58" rx="2.58" ry="2.58" transform="translate(26.407 22.59)" fill="#d9eee9"/>
      <ellipse id="Ellipse_199" data-name="Ellipse 199" cx="2.58" cy="2.58" rx="2.58" ry="2.58" transform="translate(137.757 44.984)" fill="#d9eee9"/>
      <ellipse id="Ellipse_200" data-name="Ellipse 200" cx="2.58" cy="2.58" rx="2.58" ry="2.58" transform="translate(173.533 94.197)" fill="#d9eee9"/>
      <path id="Path_2077" data-name="Path 2077" d="M151.443,264.075a7.455,7.455,0,1,1,7.455-7.455A7.455,7.455,0,0,1,151.443,264.075Zm0-14.336a6.881,6.881,0,1,0,6.881,6.881,6.881,6.881,0,0,0-6.881-6.881Z" transform="translate(-122.646 -231.45)" fill="#d9eee9"/>
      <path id="Path_2085" data-name="Path 2085" d="M0,0H0Z" transform="translate(0 155.346)" fill="#3f3d56"/>
      <path id="Path_2360" data-name="Path 2360" d="M152.421,578.209l-3.448-3.7,3.7-3.448,3.448,3.7Zm-2.9-3.677,2.917,3.128,3.128-2.917-2.917-3.128Z" transform="translate(21.593 -481.183)" fill="#d9eee9"/>
    </g>
    <path id="Icon_metro-qrcode-2" data-name="Icon metro-qrcode" d="M16.152,4.644H5.287V15.51H16.152Zm2.716-2.716v16.3H2.571V1.928ZM8,7.361h5.433v5.433H8ZM43.316,4.644H32.45V15.51H43.316Zm2.716-2.716v16.3h-16.3V1.928h16.3ZM35.167,7.361H40.6v5.433H35.167ZM16.152,31.808H5.287V42.673H16.152Zm2.716-2.716v16.3H2.571v-16.3ZM8,34.524h5.433v5.433H8Zm13.582-32.6H24.3V4.644H21.585ZM24.3,4.644h2.716V7.361H24.3ZM21.585,7.361H24.3v2.716H21.585ZM24.3,10.077h2.716v2.716H24.3Zm-2.716,2.716H24.3V15.51H21.585ZM24.3,15.51h2.716v2.716H24.3Zm-2.716,2.716H24.3v2.716H21.585Zm0,5.433H24.3v2.716H21.585ZM24.3,26.375h2.716v2.716H24.3Zm-2.716,2.716H24.3v2.716H21.585ZM24.3,31.808h2.716v2.716H24.3Zm-2.716,2.716H24.3V37.24H21.585ZM24.3,37.24h2.716v2.716H24.3Zm-2.716,2.716H24.3v2.716H21.585ZM24.3,42.673h2.716v2.716H24.3ZM43.316,23.659h2.716v2.716H43.316Zm-38.029,0H8v2.716H5.287ZM8,20.942H10.72v2.716H8Zm-5.433,0H5.287v2.716H2.571Zm10.865,0h2.716v2.716H13.436Zm2.716,2.716h2.716v2.716H16.152Zm2.716-2.716h2.716v2.716H18.869Zm8.149,2.716h2.716v2.716H27.018Zm2.716-2.716H32.45v2.716H29.734Zm2.716,2.716h2.716v2.716H32.45Zm2.716-2.716h2.716v2.716H35.167Zm2.716,2.716H40.6v2.716H37.883ZM40.6,20.942h2.716v2.716H40.6Zm2.716,8.149h2.716v2.716H43.316Zm-16.3,0h2.716v2.716H27.018Zm2.716-2.716H32.45v2.716H29.734Zm2.716,2.716h2.716v2.716H32.45Zm5.433,0H40.6v2.716H37.883ZM40.6,26.375h2.716v2.716H40.6Zm2.716,8.149h2.716V37.24H43.316Zm-16.3,0h2.716V37.24H27.018Zm2.716-2.716H32.45v2.716H29.734Zm5.433,0h2.716v2.716H35.167Zm2.716,2.716H40.6V37.24H37.883ZM40.6,31.808h2.716v2.716H40.6Zm2.716,8.149h2.716v2.716H43.316ZM29.734,37.24H32.45v2.716H29.734Zm2.716,2.716h2.716v2.716H32.45Zm2.716-2.716h2.716v2.716H35.167Zm2.716,2.716H40.6v2.716H37.883Zm-8.149,2.716H32.45v2.716H29.734Zm5.433,0h2.716v2.716H35.167Zm5.433,0h2.716v2.716H40.6Z" transform="translate(1551.198 6392.726)" fill="#1e9a7d"/>
  </g>
</svg>
