<svg xmlns="http://www.w3.org/2000/svg" width="592.722" height="685.955" viewBox="0 0 592.722 685.955">
  <g id="Group_2150" data-name="Group 2150" transform="translate(-266.078 -241.997)" opacity="0.583">
    <path id="Path_218" data-name="Path 218" d="M563.1,242,266.078,413.49V756.465L563.1,927.952,858.8,756.7V413.724ZM539.342,850.9c0,3.7-2.626,5.215-5.831,3.366L497.648,833.56a12.932,12.932,0,0,1-5.838-10.1V653.7L341.854,740.247a6.478,6.478,0,0,1-5.831,0L318.085,729.89a6.471,6.471,0,0,1-2.916-5.055v-20.7a6.472,6.472,0,0,1,2.916-5.055l149.956-86.545L321.007,527.645a12.932,12.932,0,0,1-5.838-10.1V476.13c0-3.7,2.626-5.221,5.838-3.365l212.5,122.686a12.962,12.962,0,0,1,5.831,10.109Zm17.925-296.614-212.522-122.7c-3.212-1.849-3.212-4.882,0-6.731L380.6,404.145a12.929,12.929,0,0,1,11.668,0L539.336,489.05V315.868a6.468,6.468,0,0,1,2.916-5.048l17.931-10.356a6.486,6.486,0,0,1,5.837,0l17.925,10.349a6.47,6.47,0,0,1,2.922,5.054V489.05l147.059-84.906a12.93,12.93,0,0,1,11.668,0l35.863,20.706c3.212,1.849,3.212,4.882,0,6.731l-212.522,122.7A12.963,12.963,0,0,1,557.267,554.286Zm253.773,174.4L774.289,749.9c0-70.2-31.412-99.779-70.167-80.806s-70.16,60.884-70.16,161.828l-46.4,26.79V692.832L811.04,563.18Zm0-207.19L587.558,650.514V599.093L811.04,469.442Z" transform="translate(0 0)" fill="#d9eee9"/>
  </g>
</svg>
