<svg xmlns="http://www.w3.org/2000/svg" width="150" height="147" viewBox="0 0 150 147">
  <g id="Group_2458" data-name="Group 2458" transform="translate(-122)">
    <g id="Group_2457" data-name="Group 2457" transform="translate(24)">
      <path id="Path_2177" data-name="Path 2177" d="M73.5,0A73.5,73.5,0,1,1,0,73.5,73.5,73.5,0,0,1,73.5,0Z" transform="translate(101)" fill="#c6e5de"/>
      <g id="Group_2254" data-name="Group 2254" transform="translate(4 -8)">
        <path id="Path_2066" data-name="Path 2066" d="M309.585,202.786v11.2a.392.392,0,0,1-.391.391h-.278v58.351a6.089,6.089,0,0,1-6.088,6.088H266.367a6.087,6.087,0,0,1-6.087-6.088V216.424h-.2a.276.276,0,0,1-.276-.275v-6.375a.276.276,0,0,1,.276-.276h.2v-2.4h-.2a.289.289,0,0,1-.288-.29V200.52a.289.289,0,0,1,.288-.288h.2v-3.278h-.206a.255.255,0,0,1-.256-.256v-3.431a.257.257,0,0,1,.256-.258h.206v-6.948a6.087,6.087,0,0,1,6.086-6.087h36.461a6.088,6.088,0,0,1,6.088,6.087V202.4h.278A.392.392,0,0,1,309.585,202.786Z" transform="translate(-122.687 -160.366)" fill="#3f3d56"/>
        <rect id="Rectangle_782" data-name="Rectangle 782" width="6.792" height="1.379" rx="0.69" transform="translate(157.284 22.73)" fill="#e6e8ec"/>
        <circle id="Ellipse_169" data-name="Ellipse 169" cx="0.782" cy="0.782" r="0.782" transform="translate(165.374 22.637)" fill="#e6e8ec"/>
        <path id="Path_2067" data-name="Path 2067" d="M323.432,203.937v85.969a3.863,3.863,0,0,1-3.863,3.861h-34.9a3.856,3.856,0,0,1-3.863-3.861V203.937a3.863,3.863,0,0,1,3.863-3.863h5.224v.67a3.181,3.181,0,0,0,3.181,3.181h17.75A3.181,3.181,0,0,0,314,200.744v-.67h5.567A3.862,3.862,0,0,1,323.432,203.937Z" transform="translate(-140.107 -177.039)" fill="#56b39d"/>
        <rect id="Rectangle_783" data-name="Rectangle 783" width="39.566" height="19.271" transform="translate(142.418 51.218)" opacity="0.2"/>
        <rect id="Rectangle_785" data-name="Rectangle 785" width="39.566" height="19.271" transform="translate(142.418 84.071)" fill="#3f3d56"/>
        <ellipse id="Ellipse_170" data-name="Ellipse 170" cx="3.411" cy="3.411" rx="3.411" ry="3.411" transform="translate(175.344 30.118)" fill="#fff"/>
        <path id="Path_2068" data-name="Path 2068" d="M427.9,113.7h-1.425v-1.425h-.219V113.7h-1.425v.219h1.425v1.425h.219v-1.425H427.9Z" transform="translate(-247.633 -80.285)" fill="#3f3d56"/>
        <path id="Path_2076" data-name="Path 2076" d="M151.269,575.823l-2.3-2.462,2.462-2.3,2.3,2.462Zm-1.93-2.449,1.943,2.083,2.083-1.943-1.943-2.083Z" transform="translate(-32.895 -481.265)" fill="#2f2e41"/>
        <ellipse id="Ellipse_171" data-name="Ellipse 171" cx="1.719" cy="1.719" rx="1.719" ry="1.719" transform="translate(118.59 34.655)" fill="#3f3d56"/>
        <ellipse id="Ellipse_199" data-name="Ellipse 199" cx="1.719" cy="1.719" rx="1.719" ry="1.719" transform="translate(210.59 40.187)" fill="#3f3d56"/>
        <ellipse id="Ellipse_200" data-name="Ellipse 200" cx="1.719" cy="1.719" rx="1.719" ry="1.719" transform="translate(216.59 82.352)" fill="#3f3d56"/>
        <path id="Path_2077" data-name="Path 2077" d="M148.954,259.1a4.966,4.966,0,1,1,4.966-4.966A4.966,4.966,0,0,1,148.954,259.1Zm0-9.549a4.584,4.584,0,1,0,4.584,4.584,4.584,4.584,0,0,0-4.584-4.584Z" transform="translate(-28.772 -217.757)" fill="#2f2e41"/>
        <path id="Path_2178" data-name="Path 2178" d="M148.954,259.1a4.966,4.966,0,1,1,4.966-4.966A4.966,4.966,0,0,1,148.954,259.1Zm0-9.549a4.584,4.584,0,1,0,4.584,4.584,4.584,4.584,0,0,0-4.584-4.584Z" transform="translate(63.228 -212.225)" fill="#2f2e41"/>
        <path id="Path_2085" data-name="Path 2085" d="M0,0H0Z" transform="translate(101 123.083)" fill="#3f3d56"/>
        <rect id="Rectangle_788" data-name="Rectangle 788" width="39.566" height="19.271" transform="translate(151.588 48.148)" fill="#3f3d56"/>
        <path id="Path_2079" data-name="Path 2079" d="M520.222,432.453l-7.329,5.747-10.028,5.991-26.855-16h0l-.089-.055-.015-.01-.217-.136-2.6-1.636c0-.044.011-.087.02-.129a1.178,1.178,0,0,1,.267-.546,1.312,1.312,0,0,1,.154-.154h0c.025-.021.05-.042.077-.061a1,1,0,0,1,.085-.059,4.236,4.236,0,0,1,2.05-.524,9.758,9.758,0,0,1,4.92,1.067c3.069,1.552,9.665,4.607,10.694,2.736,1.349-2.452-13.978-29.795-13.978-29.795-1.262-3.243-.338-4.3.24-4.636l.05-.028a1.436,1.436,0,0,1,.19-.081.889.889,0,0,1,.1-.031l.028-.006,2.033,2.7.031.04.109.146.033.044,12.324,16.378C511.4,403.236,517.9,430.456,517.9,430.456Z" transform="translate(-299.499 -296.894)" fill="#fbbebe"/>
        <path id="Path_2080" data-name="Path 2080" d="M502.365,397.065a.533.533,0,0,1-.494.3.785.785,0,0,1-.2-.027,2.717,2.717,0,0,1-1.379-1.306,2.812,2.812,0,0,1-.454-1.783,1.423,1.423,0,0,1,.19-.081.877.877,0,0,1,.1-.031,2.212,2.212,0,0,0,.373,1.772,2.506,2.506,0,0,0,1.229,1.191.334.334,0,0,0,.46-.266l.031.04.109.146Z" transform="translate(-320.838 -338.006)" fill="#3f3d56"/>
        <path id="Path_2081" data-name="Path 2081" d="M477.315,580.637l-.015-.01-.217-.136a2.447,2.447,0,0,0-.848-1.5,2.61,2.61,0,0,0-1.464-.813,1.312,1.312,0,0,1,.154-.155h0c.025-.021.05-.042.077-.061a3.2,3.2,0,0,1,1.4.853A2.42,2.42,0,0,1,477.315,580.637Z" transform="translate(-300.286 -486.989)" fill="#3f3d56"/>
      </g>
    </g>
    <g id="Group_2189" data-name="Group 2189" transform="translate(121.805 21.624)">
      <g id="Group_2109" data-name="Group 2109" transform="translate(0.195 -0.698)">
        <rect id="Rectangle_624" data-name="Rectangle 624" width="150" height="98" transform="translate(0 0.074)" fill="#d9eee9"/>
        <rect id="Rectangle_574" data-name="Rectangle 574" width="146.398" height="84.123" transform="translate(1.786 11.689)" fill="#fff"/>
        <rect id="Rectangle_575" data-name="Rectangle 575" width="146.398" height="9.617" transform="translate(1.786 2.072)" fill="#56b39d"/>
        <rect id="Rectangle_576" data-name="Rectangle 576" width="142.664" height="73.386" transform="translate(3.84 17.758)" fill="#ecf6f4"/>
        <rect id="Rectangle_579" data-name="Rectangle 579" width="17.179" height="13.725" transform="translate(40.346 19.065)" fill="#d9eee9" opacity="0.2"/>
        <rect id="Rectangle_584" data-name="Rectangle 584" width="17.179" height="13.725" transform="translate(127.177 19.065)" fill="#d9eee9" opacity="0.2"/>
        <rect id="Rectangle_590" data-name="Rectangle 590" width="17.179" height="13.725" transform="translate(92.444 33.07)" fill="#d9eee9" opacity="0.2"/>
        <path id="Path_1753" data-name="Path 1753" d="M0,0H17.179V13.725H0Z" transform="translate(22.98 74.711)" fill="#e1f1ed" opacity="0.2"/>
      </g>
    </g>
    <g id="Group_2256" data-name="Group 2256" transform="translate(-563 -2583)">
      <g id="Group_2256-2" data-name="Group 2256" transform="translate(65.104 -0.821)">
        <g id="Group_2255" data-name="Group 2255" transform="translate(642.609 2631.331)">
          <path id="Path_2184" data-name="Path 2184" d="M538.929,248.1H518.985a1.662,1.662,0,1,1,0-3.324h19.945a1.662,1.662,0,1,1,0,3.324Z" transform="translate(-517.323 -244.78)" fill="#3f3d56"/>
          <path id="Path_2185" data-name="Path 2185" d="M566.234,282.1H518.985a1.662,1.662,0,1,1,0-3.324h47.249a1.662,1.662,0,1,1,0,3.324Z" transform="translate(-517.323 -270.707)" fill="#3f3d56"/>
          <path id="Path_2186" data-name="Path 2186" d="M775.375,306.3a21.607,21.607,0,0,0,17.818,33.829V321.27Z" transform="translate(-711.216 -291.695)" fill="#56b39d"/>
          <path id="Path_2187" data-name="Path 2187" d="M805.361,266.78a21.582,21.582,0,0,0-17.818,9.384l17.818,14.967Z" transform="translate(-723.383 -261.556)" fill="#696a7c"/>
          <path id="Path_2188" data-name="Path 2188" d="M861.824,309.467h-.237V265.78h.237a21.844,21.844,0,0,1,0,43.688Zm.237-43.212v42.736a21.368,21.368,0,1,0,0-42.737Z" transform="translate(-779.847 -260.793)" fill="#3f3d56"/>
          <path id="Path_2189" data-name="Path 2189" d="M565.928,443.051h-4.036a1.07,1.07,0,0,1-1.068-1.068V430.348a1.07,1.07,0,0,1,1.068-1.068h4.036A1.07,1.07,0,0,1,567,430.348v11.634a1.07,1.07,0,0,1-1.068,1.068Z" transform="translate(-550.494 -385.473)" fill="#56b39d"/>
          <path id="Path_2190" data-name="Path 2190" d="M615.928,425.512h-4.036a1.07,1.07,0,0,1-1.068-1.068v-17.1a1.07,1.07,0,0,1,1.068-1.068h4.036A1.07,1.07,0,0,1,617,407.348v17.1a1.07,1.07,0,0,1-1.068,1.068Z" transform="translate(-588.623 -367.934)" fill="#c6e5de"/>
          <path id="Path_2191" data-name="Path 2191" d="M665.928,410.26h-4.036a1.07,1.07,0,0,1-1.068-1.068V387.348a1.07,1.07,0,0,1,1.068-1.068h4.036A1.07,1.07,0,0,1,667,387.348v21.844A1.07,1.07,0,0,1,665.928,410.26Z" transform="translate(-626.751 -352.683)" fill="#c6e5de"/>
          <path id="Path_2192" data-name="Path 2192" d="M565.546,396.272H561.51a1.189,1.189,0,0,1-1.187-1.187V368.967a1.189,1.189,0,0,1,1.187-1.187h4.036a1.189,1.189,0,0,1,1.187,1.187v26.118a1.189,1.189,0,0,1-1.187,1.187Zm-4.036-28.017a.713.713,0,0,0-.712.712v26.118a.713.713,0,0,0,.712.712h4.036a.713.713,0,0,0,.712-.712V368.967a.713.713,0,0,0-.712-.712Z" transform="translate(-550.113 -338.575)" fill="#3f3d56"/>
          <path id="Path_2193" data-name="Path 2193" d="M615.546,396.272H611.51a1.189,1.189,0,0,1-1.187-1.187V368.967a1.189,1.189,0,0,1,1.187-1.187h4.036a1.189,1.189,0,0,1,1.187,1.187v26.118a1.189,1.189,0,0,1-1.187,1.187Zm-4.036-28.017a.713.713,0,0,0-.712.712v26.118a.713.713,0,0,0,.712.712h4.036a.713.713,0,0,0,.712-.712V368.967a.713.713,0,0,0-.712-.712Z" transform="translate(-588.242 -338.575)" fill="#3f3d56"/>
          <path id="Path_2194" data-name="Path 2194" d="M665.546,396.272H661.51a1.189,1.189,0,0,1-1.187-1.187V368.967a1.189,1.189,0,0,1,1.187-1.187h4.036a1.189,1.189,0,0,1,1.187,1.187v26.118a1.189,1.189,0,0,1-1.187,1.187Zm-4.036-28.017a.713.713,0,0,0-.712.712v26.118a.713.713,0,0,0,.712.712h4.036a.713.713,0,0,0,.712-.712V368.967a.713.713,0,0,0-.712-.712Z" transform="translate(-626.37 -338.575)" fill="#3f3d56"/>
        </g>
      </g>
      <circle id="Ellipse_205" data-name="Ellipse 205" cx="1" cy="1" r="1" transform="translate(692 2610)" fill="#c6e5de"/>
      <circle id="Ellipse_206" data-name="Ellipse 206" cx="1" cy="1" r="1" transform="translate(696 2610)" fill="#c6e5de"/>
      <circle id="Ellipse_207" data-name="Ellipse 207" cx="1" cy="1" r="1" transform="translate(700 2610)" fill="#c6e5de"/>
    </g>
  </g>
</svg>
