<svg xmlns="http://www.w3.org/2000/svg" width="147" height="147" viewBox="0 0 147 147">
  <g id="Group_2459" data-name="Group 2459" transform="translate(-101)">
    <path id="Path_2177" data-name="Path 2177" d="M73.5,0A73.5,73.5,0,1,1,0,73.5,73.5,73.5,0,0,1,73.5,0Z" transform="translate(101)" fill="#c6e5de"/>
    <g id="Group_2258" data-name="Group 2258" transform="translate(-1382 -2583)">
      <g id="Group_2258-2" data-name="Group 2258" transform="translate(7470.755 1977.503)">
        <path id="Subtraction_18" data-name="Subtraction 18" d="M670.847,126.62H609.054c-2.649-.008-4.807-5.834-4.81-12.987V47.516c0-7.153,2.16-12.98,4.81-12.988H664.86c2.545,2.324,7.758,7.067,10.639,9.687.1,1.073.158,2.184.158,3.3v66.117C675.654,120.786,673.5,126.612,670.847,126.62Z" transform="translate(-6551.125 598.905)" fill="#e9f5f2"/>
        <g id="Group_2258-3" data-name="Group 2258" transform="translate(-5946.88 633.433)">
          <path id="Path_2252" data-name="Path 2252" d="M389.227,338.194a4.086,4.086,0,0,0-1.957,3.487v.6h.481v-.6a3.613,3.613,0,0,1,2.681-3.487Zm59.04-.6H391.358a4.092,4.092,0,0,0-4.088,4.088V425.6a4.093,4.093,0,0,0,4.088,4.088H454.6a4.093,4.093,0,0,0,4.088-4.088v-78.7Zm9.935,88A3.611,3.611,0,0,1,454.6,429.2H391.358a3.611,3.611,0,0,1-3.607-3.607V341.681a3.613,3.613,0,0,1,2.681-3.487,3.567,3.567,0,0,1,.926-.12h56.727l10.118,9.034Zm-68.975-87.4a4.086,4.086,0,0,0-1.957,3.487v.6h.481v-.6a3.613,3.613,0,0,1,2.681-3.487Z" transform="translate(-387.27 -337.593)" fill="#3f3d56"/>
          <path id="Path_2253" data-name="Path 2253" d="M649.85,347.211h-6.492a4.092,4.092,0,0,1-4.088-4.088v-5.29a.24.24,0,1,1,.481,0v5.29a3.611,3.611,0,0,0,3.607,3.607h6.492a.24.24,0,1,1,0,.481Z" transform="translate(-578.677 -337.593)" fill="#3f3d56"/>
          <path id="Path_2254" data-name="Path 2254" d="M470.557,431.94H415.735a1.924,1.924,0,1,1,0-3.847h54.822a1.924,1.924,0,0,1,0,3.847Z" transform="translate(-407.43 -406.333)" fill="#56b39d"/>
          <path id="Path_2255" data-name="Path 2255" d="M442.906,397.94H415.735a1.924,1.924,0,1,1,0-3.847h27.171a1.924,1.924,0,0,1,0,3.847Z" transform="translate(-407.43 -380.508)" fill="#56b39d"/>
          <path id="Path_2256" data-name="Path 2256" d="M470.557,498.94H415.735a1.924,1.924,0,1,1,0-3.847h54.822a1.924,1.924,0,0,1,0,3.847Z" transform="translate(-407.43 -457.223)" fill="#56b39d"/>
          <path id="Path_2257" data-name="Path 2257" d="M442.906,464.94H415.735a1.924,1.924,0,1,1,0-3.847h27.171a1.924,1.924,0,0,1,0,3.847Z" transform="translate(-407.43 -431.398)" fill="#56b39d"/>
          <path id="Path_2258" data-name="Path 2258" d="M468.171,575.726H417.2a3.972,3.972,0,0,1-3.967-3.967v-20.2a3.972,3.972,0,0,1,3.967-3.967h50.975a3.972,3.972,0,0,1,3.967,3.967v20.2A3.972,3.972,0,0,1,468.171,575.726Z" transform="translate(-406.987 -497.099)" fill="#56b39d"/>
        </g>
      </g>
      <path id="Path_2259" data-name="Path 2259" d="M151.269,575.823l-2.3-2.462,2.462-2.3,2.3,2.462Zm-1.93-2.449,1.943,2.083,2.083-1.943-1.943-2.083Z" transform="translate(1358.634 2047.32)" fill="#2f2e41"/>
      <path id="Path_2260" data-name="Path 2260" d="M151.269,575.823l-2.3-2.462,2.462-2.3,2.3,2.462Zm-1.93-2.449,1.943,2.083,2.083-1.943-1.943-2.083Z" transform="translate(1456.767 2131.963)" fill="#2f2e41"/>
      <ellipse id="Ellipse_218" data-name="Ellipse 218" cx="1.719" cy="1.719" rx="1.719" ry="1.719" transform="translate(1608.119 2610.936)" fill="#3f3d56"/>
      <ellipse id="Ellipse_219" data-name="Ellipse 219" cx="1.719" cy="1.719" rx="1.719" ry="1.719" transform="translate(1493.119 2670.936)" fill="#3f3d56"/>
    </g>
  </g>
</svg>
