<svg xmlns="http://www.w3.org/2000/svg" width="138" height="140.734" viewBox="0 0 138 140.734">
  <g id="Group_2457" data-name="Group 2457" transform="translate(-697 -1208.266)">
    <circle id="Ellipse_168" data-name="Ellipse 168" cx="69" cy="69" r="69" transform="translate(697 1211)" fill="#c6e5de"/>
    <g id="Group_2293" data-name="Group 2293" transform="translate(592.969 1208.266)">
      <path id="Path_2525" data-name="Path 2525" d="M4.3,0H129.766a4.3,4.3,0,0,1,4.3,4.3V56.719a4.3,4.3,0,0,1-4.3,4.3H4.3a4.3,4.3,0,0,1-4.3-4.3V4.3A4.3,4.3,0,0,1,4.3,0Z" transform="translate(106 64.453)" fill="#d7f4ed"/>
      <path id="Path_2515" data-name="Path 2515" d="M544.478,443.616a1.228,1.228,0,1,0,0,2.456H561.67a1.228,1.228,0,0,0,0-2.456Z" transform="translate(-431.467 -371.782)" fill="#56b39d"/>
      <path id="Path_2516" data-name="Path 2516" d="M670.143,473.606v22.773H554.21v-11.99c.8-.516,1.61-1.029,2.425-1.525,3.48-2.13,7.206-4.122,11.266-4.86a17.009,17.009,0,0,1,5.816-.073,33.2,33.2,0,0,1,5.918,1.743,40.421,40.421,0,0,0,5.8,1.82,17,17,0,0,0,5.886.116c3.728-.559,7.23-2.057,10.718-3.413a34.794,34.794,0,0,1,10.924-2.82,32.608,32.608,0,0,1,11.011,1.815c7.254,2.239,14.661,5.559,22.343,3.282,7.8-2.309,14.974-8.975,23.618-7A.325.325,0,0,1,670.143,473.606Z" transform="translate(-439.436 -393.231)" fill="#91cdc0"/>
      <path id="Path_2517" data-name="Path 2517" d="M669.921,474a.35.35,0,0,1-.4.174,12.926,12.926,0,0,0-3.141-.324c-8.5.15-15.04,6.995-23.354,8.018-7.5.922-14.551-2.723-21.6-4.628a25.578,25.578,0,0,0-11.206-.842c-3.739.666-7.249,2.2-10.773,3.553-3.393,1.307-6.92,2.522-10.594,2.582-4.04.068-7.677-1.6-11.424-2.866a20.341,20.341,0,0,0-6.012-1.234,18.188,18.188,0,0,0-5.925.917,47.734,47.734,0,0,0-11.061,5.763.311.311,0,0,1-.206.056.375.375,0,0,1-.16-.683l.16-.1c.8-.516,1.607-1.029,2.42-1.525,3.473-2.13,7.191-4.122,11.242-4.86a16.938,16.938,0,0,1,5.8-.073,33.079,33.079,0,0,1,5.906,1.743,40.269,40.269,0,0,0,5.792,1.82,16.924,16.924,0,0,0,5.874.116c3.72-.559,7.215-2.057,10.7-3.413a34.663,34.663,0,0,1,10.9-2.82,32.479,32.479,0,0,1,10.988,1.815c7.239,2.239,14.631,5.559,22.3,3.282,7.784-2.309,14.943-8.975,23.569-7a.325.325,0,0,1,.2.128A.373.373,0,0,1,669.921,474Z" transform="translate(-439.214 -393.231)" fill="#56b39d"/>
      <circle id="Ellipse_273" data-name="Ellipse 273" cx="1.694" cy="1.694" r="1.694" transform="translate(129.054 83.3)" fill="#56b39d"/>
      <circle id="Ellipse_274" data-name="Ellipse 274" cx="1.694" cy="1.694" r="1.694" transform="translate(171.893 81.122)" fill="#56b39d"/>
      <circle id="Ellipse_275" data-name="Ellipse 275" cx="1.694" cy="1.694" r="1.694" transform="translate(224.172 78.944)" fill="#56b39d"/>
      <path id="Path_2518" data-name="Path 2518" d="M605.978,593.616a1.228,1.228,0,0,0,0,2.456H623.17a1.228,1.228,0,1,0,0-2.456Z" transform="translate(-476.184 -480.848)" fill="#91cdc0"/>
      <circle id="Ellipse_276" data-name="Ellipse 276" cx="4.639" cy="4.639" r="4.639" transform="translate(114.102 109.22)" fill="#3f3d56"/>
      <path id="Path_2519" data-name="Path 2519" d="M757.978,593.616a1.228,1.228,0,0,0,0,2.456H775.17a1.228,1.228,0,1,0,0-2.456Z" transform="translate(-586.705 -480.848)" fill="#91cdc0"/>
      <circle id="Ellipse_277" data-name="Ellipse 277" cx="4.639" cy="4.639" r="4.639" transform="translate(155.582 109.22)" fill="#3f3d56"/>
      <path id="Path_2520" data-name="Path 2520" d="M909.978,593.616a1.228,1.228,0,0,0,0,2.456H927.17a1.228,1.228,0,1,0,0-2.456Z" transform="translate(-697.225 -480.848)" fill="#91cdc0"/>
      <circle id="Ellipse_278" data-name="Ellipse 278" cx="4.639" cy="4.639" r="4.639" transform="translate(197.062 109.22)" fill="#3f3d56"/>
      <path id="Path_78" data-name="Path 78" d="M794.886,316.533H730.8c-1.249,0-2.262-.721-2.263-1.61V300.994c0-.889,1.014-1.61,2.263-1.61h64.085c1.249,0,2.262.721,2.263,1.61v13.929C797.148,315.811,796.136,316.532,794.886,316.533ZM730.8,300.027c-.75,0-1.357.433-1.358.966v13.929c0,.533.608.965,1.358.966h64.085c.75,0,1.357-.433,1.358-.966V300.994c0-.533-.608-.966-1.358-.966Z" transform="translate(-566.191 -266.91)" fill="#91cdc0"/>
      <path id="Path_2521" data-name="Path 2521" d="M786.293,328.391a1.366,1.366,0,0,0-1.364,1.364v9.551a1.366,1.366,0,0,0,1.364,1.364h48.848a1.366,1.366,0,0,0,1.365-1.364v-9.551a1.366,1.366,0,0,0-1.365-1.364Z" transform="translate(-607.194 -288.001)" fill="#3f3d56"/>
      <circle id="Ellipse_279" data-name="Ellipse 279" cx="3.002" cy="3.002" r="3.002" transform="translate(182.92 43.665)" fill="#fff"/>
      <path id="Path_2522" data-name="Path 2522" d="M861.789,346.616a1.228,1.228,0,0,0,0,2.456h17.192a1.228,1.228,0,0,0,0-2.456Z" transform="translate(-662.186 -301.253)" fill="#fff"/>
      <path id="Path_78-2" data-name="Path 78" d="M618.886,197.533H554.8c-1.249,0-2.262-.721-2.263-1.61V181.994c0-.889,1.014-1.61,2.263-1.61h64.085c1.249,0,2.262.721,2.263,1.61v13.929C621.148,196.811,620.136,197.532,618.886,197.533ZM554.8,181.027c-.75,0-1.357.433-1.358.966v13.929c0,.533.608.965,1.358.966h64.085c.75,0,1.357-.433,1.358-.966V181.994c0-.533-.608-.965-1.358-.966Z" transform="translate(-438.22 -180.384)" fill="#91cdc0"/>
      <path id="Path_2523" data-name="Path 2523" d="M610.294,209.391a1.366,1.366,0,0,0-1.364,1.364v9.551a1.366,1.366,0,0,0,1.365,1.364h48.848a1.366,1.366,0,0,0,1.365-1.364v-9.551a1.366,1.366,0,0,0-1.364-1.364Z" transform="translate(-479.223 -201.475)" fill="#3f3d56"/>
      <circle id="Ellipse_280" data-name="Ellipse 280" cx="3.002" cy="3.002" r="3.002" transform="translate(134.891 11.191)" fill="#fff"/>
      <path id="Path_2524" data-name="Path 2524" d="M685.789,227.616a1.228,1.228,0,0,0,0,2.456h17.192a1.228,1.228,0,0,0,0-2.456Z" transform="translate(-534.215 -214.727)" fill="#fff"/>
    </g>
  </g>
</svg>
