<svg xmlns="http://www.w3.org/2000/svg" width="195.119" height="167.477" viewBox="0 0 195.119 167.477">
  <g id="Group_2309" data-name="Group 2309" transform="translate(-669.77 -439.154)">
    <path id="Path_2550" data-name="Path 2550" d="M112.753,16.272C105.256,11.261,98.6,4.2,89.941,1.521,81.447-1.108,72.25.01,63.664,2.309,51.071,5.681,38.963,11.672,29.6,20.9,16.536,33.768,9.738,51.845,5.168,69.774,1.031,86.009-1.607,103,1.1,119.55c1.244,7.589,3.744,15.23,8.858,20.884,5.384,5.953,13.2,9.139,21.044,10.352s15.843.633,23.765.116c23.859-1.558,47.806-2.519,71.667-1,8.606.546,17.48,1.382,25.656-1.411,9.117-3.115,16.427-10.595,20.744-19.362s5.857-18.736,5.865-28.547c.012-14.962-3.548-30.12-11.516-42.68-6.141-9.68-14.71-17.407-23.988-23.861-9.029-6.281-19.037-10.851-28.438-16.488Q113.746,16.938,112.753,16.272Z" transform="translate(681.148 450.496)" fill="#77bcac" opacity="0.548"/>
    <g id="Group_2308" data-name="Group 2308" transform="translate(-13665.926 -2329.788)">
      <g id="Group_2306" data-name="Group 2306" transform="translate(14493.034 2824.355)">
        <rect id="Rectangle_764" data-name="Rectangle 764" width="30.372" height="5.926" rx="2.963" transform="translate(7.408 0)" fill="#c6e5de"/>
        <rect id="Rectangle_765" data-name="Rectangle 765" width="30.372" height="5.926" rx="2.963" transform="translate(0 5.926)" fill="#c6e5de"/>
        <rect id="Rectangle_766" data-name="Rectangle 766" width="30.372" height="5.926" rx="2.963" transform="translate(7.408 11.853)" fill="#c6e5de"/>
      </g>
      <g id="Group_2307" data-name="Group 2307" transform="translate(14335.695 2871.466)">
        <rect id="Rectangle_764-2" data-name="Rectangle 764" width="30.372" height="5.926" rx="2.963" transform="translate(7.408 0)" fill="#c6e5de"/>
        <rect id="Rectangle_765-2" data-name="Rectangle 765" width="30.372" height="5.926" rx="2.963" transform="translate(0 5.926)" fill="#c6e5de"/>
        <rect id="Rectangle_766-2" data-name="Rectangle 766" width="30.372" height="5.926" rx="2.963" transform="translate(7.408 11.853)" fill="#c6e5de"/>
      </g>
      <circle id="Ellipse_281" data-name="Ellipse 281" cx="17.41" cy="17.41" r="17.41" transform="translate(14365.347 2768.942)" fill="#c6e5de"/>
      <path id="Path_2528" data-name="Path 2528" d="M574.847,69.281H553.963V50.3Z" transform="translate(13909.576 2722.147)" fill="#3f3d56"/>
      <path id="Path_2549" data-name="Path 2549" d="M0,0H105.06V145.146H0Z" transform="translate(14381.803 2790.807)" fill="#effcf9"/>
      <rect id="Rectangle_858" data-name="Rectangle 858" width="12.36" height="26.044" transform="translate(14428.902 2909.967)" fill="#3f3d56"/>
      <g id="Group_2304" data-name="Group 2304" transform="translate(14391.294 2800.984)">
        <rect id="Rectangle_852" data-name="Rectangle 852" width="12.36" height="26.044" transform="translate(1.629)" fill="#7bc3b2"/>
        <rect id="Rectangle_853" data-name="Rectangle 853" width="12.36" height="26.044" transform="translate(20.748)" fill="#7bc3b2"/>
        <rect id="Rectangle_854" data-name="Rectangle 854" width="12.36" height="26.044" transform="translate(0 36.914)" fill="#7bc3b2"/>
        <rect id="Rectangle_855" data-name="Rectangle 855" width="12.36" height="26.044" transform="translate(20.748 36.914)" fill="#7bc3b2"/>
        <rect id="Rectangle_856" data-name="Rectangle 856" width="12.36" height="26.044" transform="translate(0 71.07)" fill="#7bc3b2"/>
        <rect id="Rectangle_857" data-name="Rectangle 857" width="12.36" height="26.044" transform="translate(20.282 70.604)" fill="#7bc3b2"/>
        <rect id="Rectangle_859" data-name="Rectangle 859" width="12.36" height="26.044" transform="translate(56.283 70.604)" fill="#7bc3b2"/>
        <rect id="Rectangle_860" data-name="Rectangle 860" width="12.36" height="26.044" transform="translate(77.029 70.604)" fill="#7bc3b2"/>
        <rect id="Rectangle_861" data-name="Rectangle 861" width="12.36" height="26.044" transform="translate(57.387 36.638)" fill="#7bc3b2"/>
        <rect id="Rectangle_862" data-name="Rectangle 862" width="12.36" height="26.044" transform="translate(78.133 36.638)" fill="#7bc3b2"/>
        <rect id="Rectangle_863" data-name="Rectangle 863" width="12.36" height="26.044" transform="translate(57.387)" fill="#7bc3b2"/>
        <rect id="Rectangle_864" data-name="Rectangle 864" width="12.36" height="26.044" transform="translate(78.133)" fill="#7bc3b2"/>
      </g>
      <rect id="Rectangle_865" data-name="Rectangle 865" width="105.06" height="3.973" transform="translate(14381.803 2824.355)" fill="#3f3d56"/>
      <rect id="Rectangle_866" data-name="Rectangle 866" width="105.06" height="2.207" transform="translate(14381.803 2855.255)" fill="#3f3d56"/>
      <rect id="Rectangle_867" data-name="Rectangle 867" width="105.06" height="2.207" transform="translate(14381.803 2848.192)" fill="#3f3d56"/>
      <rect id="Rectangle_868" data-name="Rectangle 868" width="17.657" height="2.207" transform="translate(14392.178 2882.182) rotate(90)" fill="#3f3d56"/>
      <rect id="Rectangle_869" data-name="Rectangle 869" width="17.657" height="2.207" transform="translate(14404.537 2882.182) rotate(90)" fill="#3f3d56"/>
      <rect id="Rectangle_870" data-name="Rectangle 870" width="17.657" height="2.207" transform="translate(14416.897 2882.182) rotate(90)" fill="#3f3d56"/>
      <rect id="Rectangle_871" data-name="Rectangle 871" width="17.657" height="2.207" transform="translate(14429.257 2882.182) rotate(90)" fill="#3f3d56"/>
      <rect id="Rectangle_872" data-name="Rectangle 872" width="17.657" height="2.207" transform="translate(14441.617 2882.182) rotate(90)" fill="#3f3d56"/>
      <rect id="Rectangle_873" data-name="Rectangle 873" width="17.657" height="2.207" transform="translate(14453.978 2882.182) rotate(90)" fill="#3f3d56"/>
      <rect id="Rectangle_874" data-name="Rectangle 874" width="17.657" height="2.207" transform="translate(14466.337 2882.182) rotate(90)" fill="#3f3d56"/>
      <rect id="Rectangle_875" data-name="Rectangle 875" width="17.657" height="2.207" transform="translate(14478.697 2882.182) rotate(90)" fill="#3f3d56"/>
      <rect id="Rectangle_876" data-name="Rectangle 876" width="17.657" height="2.207" transform="translate(14392.397 2848.634) rotate(90)" fill="#3f3d56"/>
      <rect id="Rectangle_877" data-name="Rectangle 877" width="17.657" height="2.207" transform="translate(14404.758 2848.634) rotate(90)" fill="#3f3d56"/>
      <rect id="Rectangle_878" data-name="Rectangle 878" width="17.657" height="2.207" transform="translate(14417.118 2848.634) rotate(90)" fill="#3f3d56"/>
      <rect id="Rectangle_879" data-name="Rectangle 879" width="17.657" height="2.207" transform="translate(14429.478 2848.634) rotate(90)" fill="#3f3d56"/>
      <rect id="Rectangle_880" data-name="Rectangle 880" width="17.657" height="2.207" transform="translate(14441.838 2848.634) rotate(90)" fill="#3f3d56"/>
      <rect id="Rectangle_881" data-name="Rectangle 881" width="17.657" height="2.207" transform="translate(14454.198 2848.634) rotate(90)" fill="#3f3d56"/>
      <rect id="Rectangle_882" data-name="Rectangle 882" width="17.657" height="2.207" transform="translate(14466.558 2848.634) rotate(90)" fill="#3f3d56"/>
      <rect id="Rectangle_883" data-name="Rectangle 883" width="17.657" height="2.207" transform="translate(14478.918 2848.634) rotate(90)" fill="#3f3d56"/>
      <rect id="Rectangle_884" data-name="Rectangle 884" width="17.657" height="2.207" transform="translate(14392.397 2809.347) rotate(90)" fill="#3f3d56"/>
      <rect id="Rectangle_885" data-name="Rectangle 885" width="17.657" height="2.207" transform="translate(14404.758 2809.347) rotate(90)" fill="#3f3d56"/>
      <rect id="Rectangle_886" data-name="Rectangle 886" width="17.657" height="2.207" transform="translate(14417.118 2809.347) rotate(90)" fill="#3f3d56"/>
      <rect id="Rectangle_887" data-name="Rectangle 887" width="17.657" height="2.207" transform="translate(14429.478 2809.347) rotate(90)" fill="#3f3d56"/>
      <rect id="Rectangle_888" data-name="Rectangle 888" width="17.657" height="2.207" transform="translate(14441.838 2809.347) rotate(90)" fill="#3f3d56"/>
      <rect id="Rectangle_889" data-name="Rectangle 889" width="17.657" height="2.207" transform="translate(14454.198 2809.347) rotate(90)" fill="#3f3d56"/>
      <rect id="Rectangle_890" data-name="Rectangle 890" width="17.657" height="2.207" transform="translate(14466.558 2809.347) rotate(90)" fill="#3f3d56"/>
      <rect id="Rectangle_891" data-name="Rectangle 891" width="17.657" height="2.207" transform="translate(14478.918 2809.347) rotate(90)" fill="#3f3d56"/>
      <rect id="Rectangle_892" data-name="Rectangle 892" width="105.06" height="2.207" transform="translate(14381.803 2815.527)" fill="#3f3d56"/>
      <rect id="Rectangle_893" data-name="Rectangle 893" width="105.06" height="2.207" transform="translate(14381.803 2808.464)" fill="#3f3d56"/>
      <rect id="Rectangle_894" data-name="Rectangle 894" width="105.06" height="3.973" transform="translate(14381.803 2862.76)" fill="#3f3d56"/>
      <rect id="Rectangle_895" data-name="Rectangle 895" width="114.729" height="5.92" transform="translate(14376.97 2789.174)" fill="#3f3d56"/>
      <g id="Group_2305" data-name="Group 2305" transform="translate(14397.91 2909.967)">
        <path id="Path_2529" data-name="Path 2529" d="M313.378,574.231V568.6H306.62v5.632h6.758Z" transform="translate(-306.62 -568.599)" fill="#7bc3b2"/>
        <path id="Path_2530" data-name="Path 2530" d="M312.815,606.8H306.62v5.632h6.758V606.8Z" transform="translate(-306.62 -596.666)" fill="#7bc3b2"/>
        <rect id="Rectangle_896" data-name="Rectangle 896" width="6.758" height="5.632" transform="translate(11.263)" fill="#7bc3b2"/>
        <rect id="Rectangle_897" data-name="Rectangle 897" width="6.758" height="5.632" transform="translate(11.263 10.137)" fill="#7bc3b2"/>
      </g>
      <path id="Path_2531" data-name="Path 2531" d="M521.111,574.231V568.6h-6.758v5.632h6.758Z" transform="translate(13938.676 2341.368)" fill="#7bc3b2"/>
      <path id="Path_2532" data-name="Path 2532" d="M520.548,606.8h-6.195v5.632h6.758V606.8Z" transform="translate(13938.676 2313.301)" fill="#7bc3b2"/>
      <rect id="Rectangle_898" data-name="Rectangle 898" width="6.758" height="5.632" transform="translate(14464.292 2909.967)" fill="#7bc3b2"/>
      <rect id="Rectangle_899" data-name="Rectangle 899" width="6.758" height="5.632" transform="translate(14464.292 2920.104)" fill="#7bc3b2"/>
      <rect id="Rectangle_900" data-name="Rectangle 900" width="105.06" height="3.973" transform="translate(14381.803 2896.308)" fill="#3f3d56"/>
      <rect id="Rectangle_901" data-name="Rectangle 901" width="105.06" height="2.207" transform="translate(14381.803 2889.245)" fill="#3f3d56"/>
      <rect id="Rectangle_902" data-name="Rectangle 902" width="105.06" height="2.207" transform="translate(14381.803 2882.182)" fill="#3f3d56"/>
      <path id="Path_2533" data-name="Path 2533" d="M482.747,727.175q0-.184-.005-.367c-.094-3.254-3.322-4.137-5.053-2.6a3,3,0,0,0-3.937,0c-1.738-1.516-4.9-.7-5.006,2.521q-.006.182-.006.367a18.88,18.88,0,0,0,.124,2.024h13.76A18.678,18.678,0,0,0,482.747,727.175Z" transform="translate(13930.862 2206.886)" fill="#4db6ac"/>
      <path id="Path_2534" data-name="Path 2534" d="M688.857,727.175q0-.184-.005-.367c-.094-3.254-3.322-4.137-5.053-2.6a3,3,0,0,0-3.937,0c-1.738-1.516-4.9-.7-5.006,2.521q-.006.182-.006.367a18.843,18.843,0,0,0,.124,2.024h13.76A18.686,18.686,0,0,0,688.857,727.175Z" transform="translate(13779.44 2206.886)" fill="#4db6ac"/>
      <rect id="Rectangle_906" data-name="Rectangle 906" width="151.431" height="0.444" transform="translate(14358.632 2935.975)" fill="#3f3d56"/>
      <circle id="Ellipse_282" data-name="Ellipse 282" cx="15.551" cy="15.551" r="15.551" transform="translate(14474.103 2879.757)" fill="#c6e5de"/>
      <text id="_" data-name="$" transform="translate(14489.25 2902.586)" fill="#3f3d56" font-size="21" font-family="Lato-Bold, Lato" font-weight="700"><tspan x="-6.09" y="0">$</tspan></text>
    </g>
  </g>
</svg>
