<svg xmlns="http://www.w3.org/2000/svg" xmlns:xlink="http://www.w3.org/1999/xlink" width="178.703" height="151.504" viewBox="0 0 178.703 151.504">
  <defs>
    <clipPath id="clip-path">
      <path id="Path_2034" data-name="Path 2034" d="M112.753,16.272C105.256,11.261,98.6,4.2,89.941,1.521,81.447-1.108,72.25.01,63.664,2.309,51.071,5.681,38.963,11.672,29.6,20.9,16.536,33.768,9.738,51.845,5.168,69.774,1.031,86.009-1.607,103,1.1,119.55c1.244,7.589,3.744,15.23,8.858,20.884,5.384,5.953,13.2,9.139,21.044,10.352s15.843.633,23.765.116c23.859-1.558,47.806-2.519,71.667-1,8.606.546,17.48,1.382,25.656-1.411,9.117-3.115,16.427-10.595,20.744-19.362s5.857-18.736,5.865-28.547c.012-14.962-3.548-30.12-11.516-42.68-6.141-9.68-14.71-17.407-23.988-23.861-9.029-6.281-19.037-10.851-28.438-16.488Q113.746,16.938,112.753,16.272Z" transform="translate(674.742 439.883)" fill="#ecf6f4"/>
    </clipPath>
  </defs>
  <g id="Group_2457" data-name="Group 2457" transform="translate(-674.742 -439.883)">
    <path id="Path_2033" data-name="Path 2033" d="M112.753,16.272C105.256,11.261,98.6,4.2,89.941,1.521,81.447-1.108,72.25.01,63.664,2.309,51.071,5.681,38.963,11.672,29.6,20.9,16.536,33.768,9.738,51.845,5.168,69.774,1.031,86.009-1.607,103,1.1,119.55c1.244,7.589,3.744,15.23,8.858,20.884,5.384,5.953,13.2,9.139,21.044,10.352s15.843.633,23.765.116c23.859-1.558,47.806-2.519,71.667-1,8.606.546,17.48,1.382,25.656-1.411,9.117-3.115,16.427-10.595,20.744-19.362s5.857-18.736,5.865-28.547c.012-14.962-3.548-30.12-11.516-42.68-6.141-9.68-14.71-17.407-23.988-23.861-9.029-6.281-19.037-10.851-28.438-16.488Q113.746,16.938,112.753,16.272Z" transform="translate(674.742 439.883)" fill="#ecf6f4"/>
    <g id="Mask_Group_3" data-name="Mask Group 3" clip-path="url(#clip-path)">
      <g id="Group_2173" data-name="Group 2173" transform="translate(-18797.189 -4801.891)">
        <g id="Group_2172" data-name="Group 2172" transform="translate(19525 5263.811)">
          <g id="Group_2169" data-name="Group 2169" transform="translate(0)">
            <g id="Group_2169-2" data-name="Group 2169" transform="translate(0 0)">
              <path id="Path_2012" data-name="Path 2012" d="M566.725,157.709l-44.691-27.583s-10.722-18.172-12.539-29.8S499.5,67.977,499.5,67.977v-10.9s-9.45-3.634-10.176,6.36,2,22.9,2,22.9,2.726,16.355-3.453,20.535l-22.533,36.889s21.625,19.808,38.525,22.352l36.889,25.623Z" transform="translate(-436.216 -56.43)" fill="#ffb8b8"/>
              <path id="Path_2013" data-name="Path 2013" d="M303.145,260.519h-.617a6.54,6.54,0,0,0-5.031,10.753,7.254,7.254,0,0,0,5.648,2.331Z" transform="translate(-295.922 -225.439)" fill="#ffb8b8"/>
              <path id="Path_2014" data-name="Path 2014" d="M303.145,336.638h-.617a6.54,6.54,0,0,0-5.031,10.753,7.254,7.254,0,0,0,5.648,2.331Z" transform="translate(-295.922 -288.474)" fill="#ffb8b8"/>
              <path id="Path_2015" data-name="Path 2015" d="M303.145,412.758h-.617a6.54,6.54,0,0,0-5.031,10.753,7.254,7.254,0,0,0,5.648,2.331Z" transform="translate(-295.922 -351.509)" fill="#ffb8b8"/>
              <path id="Path_2016" data-name="Path 2016" d="M303.145,488.877h-.617A6.54,6.54,0,0,0,297.5,499.63a7.253,7.253,0,0,0,5.648,2.331Z" transform="translate(-295.922 -414.544)" fill="#ffb8b8"/>
              <path id="Path_2017" data-name="Path 2017" d="M382.182,129.656h-.541V114.841a8.575,8.575,0,0,0-8.575-8.575H341.678a8.575,8.575,0,0,0-8.575,8.575V196.12a8.575,8.575,0,0,0,8.575,8.575h31.389a8.575,8.575,0,0,0,8.575-8.575V140.2h.541Z" transform="translate(-326.712 -97.7)" fill="#3f3d56"/>
              <path id="Path_2018" data-name="Path 2018" d="M391.213,125.648v81.159a6.429,6.429,0,0,1-2.351,4.961,5.956,5.956,0,0,1-.507.373,6.375,6.375,0,0,1-3.545,1.07H353.27a6.33,6.33,0,0,1-1.517-.182,6.4,6.4,0,0,1-4.887-6.222V125.648a6.4,6.4,0,0,1,6.4-6.4H357.1a3.042,3.042,0,0,0,2.817,4.19h17.981a3.045,3.045,0,0,0,2.819-4.191h4.1a6.4,6.4,0,0,1,6.4,6.4Z" transform="translate(-338.109 -108.447)" fill="#1e9a7d"/>
              <ellipse id="Ellipse_155" data-name="Ellipse 155" cx="13.72" cy="30.711" rx="13.72" ry="30.711" transform="translate(50.745 41.35)" fill="#ffb8b8"/>
            </g>
          </g>
          <g id="Group_2170" data-name="Group 2170" transform="translate(11.855 21.603)" opacity="0.448">
            <path id="Path_2025" data-name="Path 2025" d="M591.845,655.306H576.982a4.007,4.007,0,0,1,0-8.014h14.863a4.007,4.007,0,0,1,0,8.014Z" transform="translate(-565.841 -582.88)" fill="#e6e6e6"/>
            <path id="Path_2026" data-name="Path 2026" d="M578.879,460.172h-26.52a1.384,1.384,0,1,1,0-2.769h26.52a1.384,1.384,0,1,1,0,2.769Z" transform="translate(-547.048 -420.661)" fill="#e6e6e6" style="isolation: isolate"/>
            <path id="Path_2027" data-name="Path 2027" d="M578.879,488.172h-26.52a1.384,1.384,0,1,1,0-2.769h26.52a1.384,1.384,0,1,1,0,2.769Z" transform="translate(-547.048 -444.582)" fill="#e6e6e6" style="isolation: isolate"/>
            <path id="Path_2028" data-name="Path 2028" d="M578.879,516.172h-26.52a1.384,1.384,0,1,1,0-2.769h26.52a1.384,1.384,0,1,1,0,2.769Z" transform="translate(-547.048 -468.501)" fill="#e6e6e6" style="isolation: isolate"/>
            <path id="Path_2029" data-name="Path 2029" d="M578.879,544.172h-26.52a1.384,1.384,0,1,1,0-2.769h26.52a1.384,1.384,0,1,1,0,2.769Z" transform="translate(-547.048 -492.422)" fill="#e6e6e6" style="isolation: isolate"/>
            <path id="Path_2030" data-name="Path 2030" d="M560.811,572.172h-8.452a1.384,1.384,0,1,1,0-2.769h8.452a1.384,1.384,0,0,1,0,2.769Z" transform="translate(-547.048 -516.341)" fill="#e6e6e6" style="isolation: isolate"/>
            <path id="Path_2031" data-name="Path 2031" d="M560,233.421H525.182a1.162,1.162,0,0,1-1.161-1.161V206.415a1.162,1.162,0,0,1,1.161-1.161H560a1.162,1.162,0,0,1,1.161,1.161V232.26A1.162,1.162,0,0,1,560,233.421Z" transform="translate(-524.021 -205.254)" fill="#e6e6e6" style="isolation: isolate"/>
            <path id="Path_2032" data-name="Path 2032" d="M813.254,344.386q0-.3,0-.6a4.528,4.528,0,0,0,0,.468C813.252,344.3,813.254,344.341,813.254,344.386Z" transform="translate(-771.103 -323.598)"/>
          </g>
          <g id="Group_2171" data-name="Group 2171" transform="translate(22.406 27.026)" opacity="0.583">
            <path id="Path_218" data-name="Path 218" d="M273.8,242l-7.725,4.46v8.92l7.725,4.46,7.69-4.454v-8.92Zm-.618,15.836c0,.1-.068.136-.152.088l-.933-.538a.336.336,0,0,1-.152-.263V252.7l-3.9,2.251a.168.168,0,0,1-.152,0l-.467-.269a.168.168,0,0,1-.076-.131v-.538a.168.168,0,0,1,.076-.131l3.9-2.251-3.824-2.208a.336.336,0,0,1-.152-.263v-1.077c0-.1.068-.136.152-.088l5.527,3.191a.337.337,0,0,1,.152.263Zm.466-7.714-5.527-3.191a.092.092,0,0,1,0-.175l.933-.539a.336.336,0,0,1,.3,0l3.825,2.208v-4.5a.168.168,0,0,1,.076-.131l.466-.269a.169.169,0,0,1,.152,0l.466.269a.168.168,0,0,1,.076.131v4.5l3.825-2.208a.336.336,0,0,1,.3,0l.933.539a.092.092,0,0,1,0,.175l-5.527,3.191A.337.337,0,0,1,273.651,250.119Zm6.6,4.536-.956.552c0-1.826-.817-2.6-1.825-2.1s-1.825,1.583-1.825,4.209l-1.207.7v-4.288l5.812-3.372Zm0-5.389-5.812,3.356v-1.337l5.812-3.372Z" transform="translate(-266.078 -241.997)" fill="#d9eee9"/>
          </g>
        </g>
      </g>
    </g>
  </g>
</svg>
