<svg xmlns="http://www.w3.org/2000/svg" xmlns:xlink="http://www.w3.org/1999/xlink" width="310.125" height="246.82" viewBox="0 0 310.125 246.82">
  <defs>
    <linearGradient id="linear-gradient" x1="0.5" y1="1" x2="0.5" gradientUnits="objectBoundingBox">
      <stop offset="0" stop-color="gray" stop-opacity="0.251"/>
      <stop offset="0.54" stop-color="gray" stop-opacity="0.122"/>
      <stop offset="1" stop-color="gray" stop-opacity="0.102"/>
    </linearGradient>
    <linearGradient id="linear-gradient-2" y1="1" y2="-0.001" xlink:href="#linear-gradient"/>
    <linearGradient id="linear-gradient-5" x1="29.773" y1="26.262" x2="29.773" y2="25.263" xlink:href="#linear-gradient"/>
    <linearGradient id="linear-gradient-6" y1="0.999" y2="0" xlink:href="#linear-gradient"/>
    <linearGradient id="linear-gradient-7" x1="35.813" y1="30.815" x2="35.813" y2="29.815" xlink:href="#linear-gradient"/>
    <linearGradient id="linear-gradient-8" x1="39.503" y1="24.82" x2="39.503" y2="23.82" xlink:href="#linear-gradient"/>
    <linearGradient id="linear-gradient-9" x1="30.785" y1="19.69" x2="30.785" y2="18.69" xlink:href="#linear-gradient"/>
    <linearGradient id="linear-gradient-10" x1="25.655" y1="10.971" x2="25.655" y2="9.972" xlink:href="#linear-gradient"/>
    <linearGradient id="linear-gradient-11" x1="25.656" y1="0.713" x2="25.656" y2="-0.287" xlink:href="#linear-gradient"/>
    <linearGradient id="linear-gradient-12" x1="40.017" y1="-13.391" x2="40.017" y2="-14.391" xlink:href="#linear-gradient"/>
    <linearGradient id="linear-gradient-13" x1="50.274" y1="-13.135" x2="50.274" y2="-14.134" xlink:href="#linear-gradient"/>
    <linearGradient id="linear-gradient-14" x1="58.481" y1="-8.006" x2="58.481" y2="-9.006" xlink:href="#linear-gradient"/>
    <linearGradient id="linear-gradient-15" x1="63.609" y1="0.2" x2="63.609" y2="-0.799" xlink:href="#linear-gradient"/>
  </defs>
  <g id="Group_2191" data-name="Group 2191" transform="translate(-542 -500.453)">
    <path id="Path_2054" data-name="Path 2054" d="M1725.388,650.16c-12.675-8.163-23.934-19.668-38.564-24.032-14.36-4.283-29.907-2.461-44.422,1.284-21.29,5.493-41.759,15.253-57.593,30.287-22.078,20.963-33.572,50.414-41.3,79.622-6.995,26.448-11.454,54.137-6.871,81.091,2.1,12.363,6.33,24.811,14.974,34.023,9.1,9.7,22.307,14.889,35.576,16.865s26.784,1.031,40.176.189c40.334-2.537,80.817-4.1,121.156-1.636,14.549.89,29.55,2.252,43.373-2.3,15.413-5.075,27.771-17.26,35.068-31.543s9.9-30.523,9.915-46.507c.02-24.375-6-49.069-19.467-69.532-10.381-15.77-24.868-28.359-40.552-38.872-15.263-10.232-32.183-17.677-48.076-26.861Q1727.066,651.246,1725.388,650.16Z" transform="translate(-984.755 -123.198)" fill="#1e9a7d" opacity="0.11"/>
    <g id="Group_2189" data-name="Group 2189" transform="translate(568.508 542.386)">
      <g id="Group_2109" data-name="Group 2109" transform="translate(0 0)">
        <rect id="Rectangle_624" data-name="Rectangle 624" width="258" height="168" transform="translate(0.317 -0.363)" fill="#d9eee9"/>
        <rect id="Rectangle_574" data-name="Rectangle 574" width="252.182" height="144.908" transform="translate(3.199 19.237)" fill="#fff"/>
        <rect id="Rectangle_575" data-name="Rectangle 575" width="252.182" height="16.566" transform="translate(3.199 2.672)" fill="#56b39d"/>
        <rect id="Rectangle_576" data-name="Rectangle 576" width="245.749" height="126.413" transform="translate(6.737 29.691)" fill="#ecf6f4"/>
        <rect id="Rectangle_577" data-name="Rectangle 577" width="29.593" height="23.642" transform="translate(9.793 31.943)" fill="#b3ddd3" opacity="0.5"/>
        <rect id="Rectangle_578" data-name="Rectangle 578" width="29.593" height="23.642" transform="translate(39.708 31.943)" fill="#fff"/>
        <rect id="Rectangle_579" data-name="Rectangle 579" width="29.593" height="23.642" transform="translate(69.622 31.943)" fill="#d9eee9" opacity="0.2"/>
        <rect id="Rectangle_580" data-name="Rectangle 580" width="29.593" height="23.642" transform="translate(99.537 31.943)" fill="#fff"/>
        <rect id="Rectangle_581" data-name="Rectangle 581" width="29.593" height="23.642" transform="translate(129.451 31.943)" fill="#fff"/>
        <rect id="Rectangle_582" data-name="Rectangle 582" width="29.593" height="23.642" transform="translate(159.365 31.943)" fill="#b3ddd3" opacity="0.5"/>
        <rect id="Rectangle_583" data-name="Rectangle 583" width="29.593" height="23.642" transform="translate(189.28 31.943)" fill="#fff"/>
        <rect id="Rectangle_584" data-name="Rectangle 584" width="29.593" height="23.642" transform="translate(219.194 31.943)" fill="#d9eee9" opacity="0.2"/>
        <rect id="Rectangle_585" data-name="Rectangle 585" width="29.593" height="23.642" transform="translate(9.793 56.067)" fill="#b3ddd3" opacity="0.2"/>
        <rect id="Rectangle_586" data-name="Rectangle 586" width="29.593" height="23.642" transform="translate(39.708 56.067)" fill="#b3ddd3" opacity="0.2"/>
        <rect id="Rectangle_587" data-name="Rectangle 587" width="29.593" height="23.642" transform="translate(69.622 56.067)" fill="#fff"/>
        <rect id="Rectangle_588" data-name="Rectangle 588" width="29.593" height="23.642" transform="translate(99.537 56.067)" fill="#b3ddd3" opacity="0.5"/>
        <rect id="Rectangle_589" data-name="Rectangle 589" width="29.593" height="23.642" transform="translate(129.451 56.067)" fill="#fff"/>
        <rect id="Rectangle_590" data-name="Rectangle 590" width="29.593" height="23.642" transform="translate(159.365 56.067)" fill="#d9eee9" opacity="0.2"/>
        <rect id="Rectangle_591" data-name="Rectangle 591" width="29.593" height="23.642" transform="translate(189.28 56.067)" fill="#b3ddd3" opacity="0.5"/>
        <rect id="Rectangle_592" data-name="Rectangle 592" width="29.593" height="23.642" transform="translate(219.194 56.067)" fill="#fff"/>
        <rect id="Rectangle_593" data-name="Rectangle 593" width="29.593" height="23.642" transform="translate(9.793 79.87)" fill="#fff"/>
        <rect id="Rectangle_594" data-name="Rectangle 594" width="29.593" height="23.642" transform="translate(39.708 79.87)" fill="#fff"/>
        <rect id="Rectangle_595" data-name="Rectangle 595" width="29.593" height="23.642" transform="translate(69.622 79.87)" fill="#b3ddd3" opacity="0.2"/>
        <rect id="Rectangle_596" data-name="Rectangle 596" width="29.593" height="23.642" transform="translate(99.537 79.87)" fill="#fff"/>
        <rect id="Rectangle_597" data-name="Rectangle 597" width="29.593" height="23.642" transform="translate(129.451 79.87)" fill="#b3ddd3" opacity="0.2"/>
        <rect id="Rectangle_598" data-name="Rectangle 598" width="29.593" height="23.642" transform="translate(159.365 79.87)" fill="#fff"/>
        <rect id="Rectangle_599" data-name="Rectangle 599" width="29.593" height="23.642" transform="translate(189.28 79.87)" fill="#fff"/>
        <rect id="Rectangle_600" data-name="Rectangle 600" width="29.593" height="23.642" transform="translate(219.194 79.87)" fill="#b3ddd3" opacity="0.2"/>
        <rect id="Rectangle_601" data-name="Rectangle 601" width="29.593" height="23.642" transform="translate(9.793 103.673)" fill="#fff"/>
        <rect id="Rectangle_602" data-name="Rectangle 602" width="29.593" height="23.642" transform="translate(39.708 103.673)" fill="#d9eee9" opacity="0.5"/>
        <rect id="Rectangle_603" data-name="Rectangle 603" width="29.593" height="23.642" transform="translate(69.622 103.673)" fill="#b3ddd3" opacity="0.5"/>
        <rect id="Rectangle_604" data-name="Rectangle 604" width="29.593" height="23.642" transform="translate(99.537 103.673)" fill="#fff"/>
        <rect id="Rectangle_605" data-name="Rectangle 605" width="29.593" height="23.642" transform="translate(129.451 103.673)" fill="#fff"/>
        <rect id="Rectangle_606" data-name="Rectangle 606" width="29.593" height="23.642" transform="translate(159.365 103.673)" fill="#b3ddd3" opacity="0.5"/>
        <rect id="Rectangle_607" data-name="Rectangle 607" width="29.593" height="23.642" transform="translate(189.28 103.673)" fill="#fff"/>
        <rect id="Rectangle_608" data-name="Rectangle 608" width="29.593" height="23.642" transform="translate(219.194 103.673)" fill="#cee3de" opacity="0.5"/>
        <rect id="Rectangle_609" data-name="Rectangle 609" width="29.593" height="23.642" transform="translate(9.793 127.798)" fill="#cfe9e3" opacity="0.5"/>
        <path id="Path_1753" data-name="Path 1753" d="M0,0H29.593V23.642H0Z" transform="translate(39.708 127.798)" fill="#e1f1ed" opacity="0.2"/>
        <rect id="Rectangle_611" data-name="Rectangle 611" width="29.593" height="23.642" transform="translate(69.622 127.798)" fill="#fff"/>
        <rect id="Rectangle_612" data-name="Rectangle 612" width="29.593" height="23.642" transform="translate(99.537 127.798)" fill="#b3ddd3" opacity="0.5"/>
        <rect id="Rectangle_613" data-name="Rectangle 613" width="29.593" height="23.642" transform="translate(129.451 127.798)" fill="#b3ddd3" opacity="0.2"/>
        <rect id="Rectangle_614" data-name="Rectangle 614" width="29.593" height="23.642" transform="translate(159.365 127.798)" fill="#fff"/>
        <rect id="Rectangle_615" data-name="Rectangle 615" width="29.593" height="23.642" transform="translate(189.28 127.798)" fill="#b3ddd3" opacity="0.2"/>
        <rect id="Rectangle_616" data-name="Rectangle 616" width="29.593" height="23.642" transform="translate(219.194 127.798)" fill="#fff"/>
        <rect id="Rectangle_617" data-name="Rectangle 617" width="9.006" height="9.007" transform="translate(12.206 82.122)" fill="#56b39d"/>
        <rect id="Rectangle_618" data-name="Rectangle 618" width="9.006" height="9.007" transform="translate(101.627 34.516)" fill="#56b39d"/>
        <rect id="Rectangle_619" data-name="Rectangle 619" width="9.006" height="9.007" transform="translate(100.662 82.122)" fill="#56b39d"/>
        <rect id="Rectangle_620" data-name="Rectangle 620" width="9.006" height="9.007" transform="translate(131.22 104.96)" fill="#56b39d"/>
        <rect id="Rectangle_621" data-name="Rectangle 621" width="9.006" height="9.007" transform="translate(190.727 82.122)" fill="#56b39d"/>
        <line id="Line_368" data-name="Line 368" x1="14.169" y2="33.556" transform="translate(45.047 122.709)" fill="#6c63ff"/>
      </g>
    </g>
    <g id="Group_2190" data-name="Group 2190" transform="translate(542 662.846)">
      <rect id="Rectangle_602-2" data-name="Rectangle 602" width="19.891" height="15.891" transform="translate(33.752 1.74)" fill="#d9eee9" opacity="0.5"/>
      <rect id="Rectangle_609-2" data-name="Rectangle 609" width="19.891" height="15.891" transform="translate(13.645 17.956)" fill="#6c63ff" opacity="0.5"/>
      <rect id="Rectangle_610" data-name="Rectangle 610" width="19.891" height="15.891" transform="translate(33.752 17.956)" fill="#6c63ff" opacity="0.2"/>
      <ellipse id="Ellipse_67" data-name="Ellipse 67" cx="37.09" cy="37.09" rx="37.09" ry="37.09" transform="translate(0 0)" fill="url(#linear-gradient)"/>
      <path id="Path_1751" data-name="Path 1751" d="M36.089,0A36.089,36.089,0,1,1,0,36.089,36.089,36.089,0,0,1,36.089,0Z" transform="translate(1.001 1.001)" fill="#56b39d"/>
      <ellipse id="Ellipse_69" data-name="Ellipse 69" cx="29.322" cy="29.322" rx="29.322" ry="29.322" transform="translate(7.768 7.768)" fill="#fff"/>
      <ellipse id="Ellipse_70" data-name="Ellipse 70" cx="1.753" cy="1.753" rx="1.753" ry="1.753" transform="translate(35.336 35.336)" fill="url(#linear-gradient-2)"/>
      <line id="Line_368-2" data-name="Line 368" x1="9.524" y2="22.554" transform="translate(37.34 14.535)" fill="#6c63ff"/>
      <path id="Path_1748" data-name="Path 1748" d="M170.691,405.634l-1.081-.363,9.729-22.771,1.081.508Z" transform="translate(-132.94 -368.328)" fill="url(#linear-gradient)"/>
      <rect id="Rectangle_622" data-name="Rectangle 622" width="24.483" height="0.752" transform="matrix(0.389, -0.921, 0.921, 0.389, 36.991, 36.936)" fill="#56b39d"/>
      <line id="Line_369" data-name="Line 369" x2="6.266" y2="11.528" transform="translate(37.34 37.341)" fill="#6c63ff"/>
      <path id="Path_1749" data-name="Path 1749" d="M176.88,500.607l-6.27-11.675.865-.432,6.486,11.459Z" transform="translate(-133.723 -451.41)" fill="url(#linear-gradient)"/>
      <rect id="Rectangle_623" data-name="Rectangle 623" width="0.752" height="13.121" transform="translate(37.007 37.527) rotate(-28.52)" fill="#56b39d"/>
      <ellipse id="Ellipse_71" data-name="Ellipse 71" cx="0.752" cy="0.752" rx="0.752" ry="0.752" transform="translate(63.655 37.09)" fill="#6c63ff"/>
      <ellipse id="Ellipse_72" data-name="Ellipse 72" cx="0.977" cy="0.977" rx="0.977" ry="0.977" transform="translate(12.225 23.938) rotate(-60)" fill="url(#linear-gradient-5)"/>
      <ellipse id="Ellipse_73" data-name="Ellipse 73" cx="0.977" cy="0.977" rx="0.977" ry="0.977" transform="translate(12.475 51.041) rotate(-30)" fill="url(#linear-gradient-6)"/>
      <ellipse id="Ellipse_74" data-name="Ellipse 74" cx="0.977" cy="0.977" rx="0.977" ry="0.977" transform="translate(8.797 36.865)" fill="url(#linear-gradient-7)"/>
      <ellipse id="Ellipse_75" data-name="Ellipse 75" cx="0.977" cy="0.977" rx="0.977" ry="0.977" transform="translate(22.198 13.199) rotate(-30)" fill="url(#linear-gradient-8)"/>
      <ellipse id="Ellipse_76" data-name="Ellipse 76" cx="0.977" cy="0.977" rx="0.977" ry="0.977" transform="translate(35.731 9.692) rotate(-30)" fill="url(#linear-gradient-9)"/>
      <ellipse id="Ellipse_77" data-name="Ellipse 77" cx="0.977" cy="0.977" rx="0.977" ry="0.977" transform="translate(49.264 13.2) rotate(-30)" fill="url(#linear-gradient-10)"/>
      <ellipse id="Ellipse_78" data-name="Ellipse 78" cx="0.977" cy="0.977" rx="0.977" ry="0.977" transform="translate(59.288 23.225) rotate(-30)" fill="url(#linear-gradient-11)"/>
      <ellipse id="Ellipse_79" data-name="Ellipse 79" cx="0.977" cy="0.977" rx="0.977" ry="0.977" transform="translate(59.038 51.043) rotate(-30)" fill="url(#linear-gradient-12)"/>
      <ellipse id="Ellipse_80" data-name="Ellipse 80" cx="0.977" cy="0.977" rx="0.977" ry="0.977" transform="translate(48.762 60.816) rotate(-30)" fill="url(#linear-gradient-13)"/>
      <ellipse id="Ellipse_81" data-name="Ellipse 81" cx="0.977" cy="0.977" rx="0.977" ry="0.977" transform="translate(35.73 63.825) rotate(-30)" fill="url(#linear-gradient-14)"/>
      <ellipse id="Ellipse_82" data-name="Ellipse 82" cx="0.977" cy="0.977" rx="0.977" ry="0.977" transform="translate(22.699 60.817) rotate(-30)" fill="url(#linear-gradient-15)"/>
      <ellipse id="Ellipse_83" data-name="Ellipse 83" cx="0.752" cy="0.752" rx="0.752" ry="0.752" transform="translate(36.337 9.271)" fill="#56b39d"/>
      <ellipse id="Ellipse_84" data-name="Ellipse 84" cx="0.752" cy="0.752" rx="0.752" ry="0.752" transform="translate(49.596 13.924) rotate(-60)" fill="#56b39d"/>
      <ellipse id="Ellipse_85" data-name="Ellipse 85" cx="0.752" cy="0.752" rx="0.752" ry="0.752" transform="translate(59.502 23.282) rotate(-30)" fill="#56b39d"/>
      <ellipse id="Ellipse_86" data-name="Ellipse 86" cx="0.752" cy="0.752" rx="0.752" ry="0.752" transform="translate(59.345 51.673) rotate(-60)" fill="#56b39d"/>
      <ellipse id="Ellipse_87" data-name="Ellipse 87" cx="0.752" cy="0.752" rx="0.752" ry="0.752" transform="translate(49.07 60.847) rotate(-30)" fill="#56b39d"/>
      <ellipse id="Ellipse_88" data-name="Ellipse 88" cx="0.752" cy="0.752" rx="0.752" ry="0.752" transform="translate(22.529 13.376) rotate(-30)" fill="#56b39d"/>
      <ellipse id="Ellipse_89" data-name="Ellipse 89" cx="0.752" cy="0.752" rx="0.752" ry="0.752" transform="translate(12.624 23.832) rotate(-60)" fill="#56b39d"/>
      <ellipse id="Ellipse_90" data-name="Ellipse 90" cx="0.977" cy="0.977" rx="0.977" ry="0.977" transform="translate(63.049 37.511) rotate(-30)" fill="#56b39d"/>
      <ellipse id="Ellipse_91" data-name="Ellipse 91" cx="0.752" cy="0.752" rx="0.752" ry="0.752" transform="translate(12.782 51.123) rotate(-30)" fill="#56b39d"/>
      <ellipse id="Ellipse_92" data-name="Ellipse 92" cx="0.752" cy="0.752" rx="0.752" ry="0.752" transform="translate(23.055 61.398) rotate(-60)" fill="#56b39d"/>
      <ellipse id="Ellipse_93" data-name="Ellipse 93" cx="0.752" cy="0.752" rx="0.752" ry="0.752" transform="translate(9.022 37.09)" fill="#56b39d"/>
      <ellipse id="Ellipse_94" data-name="Ellipse 94" cx="0.752" cy="0.752" rx="0.752" ry="0.752" transform="translate(36.337 63.402)" fill="#56b39d"/>
      <ellipse id="Ellipse_95" data-name="Ellipse 95" cx="1.254" cy="1.254" rx="1.254" ry="1.254" transform="translate(35.836 35.836)" fill="#56b39d"/>
      <path id="Path_1752" data-name="Path 1752" d="M219.636,504.052a29.326,29.326,0,0,1,54.76-14.589,29.326,29.326,0,1,0-52.382,26.174A29.223,29.223,0,0,1,219.636,504.052Z" transform="translate(-210.363 -464.206)" fill="#cee3de" opacity="0.2"/>
    </g>
  </g>
</svg>
