<svg xmlns="http://www.w3.org/2000/svg" width="302.105" height="246.82" viewBox="0 0 302.105 246.82">
  <g id="Group_2459" data-name="Group 2459" transform="translate(-1083.197 -493.43)">
    <path id="Path_2056" data-name="Path 2056" d="M1725.388,650.16c-12.675-8.163-23.934-19.668-38.564-24.032-14.36-4.283-29.907-2.461-44.422,1.284-21.29,5.493-41.759,15.253-57.593,30.287-22.078,20.963-33.572,50.414-41.3,79.622-6.995,26.448-11.454,54.137-6.871,81.091,2.1,12.363,6.33,24.811,14.974,34.023,9.1,9.7,22.307,14.889,35.576,16.865s26.784,1.031,40.176.189c40.334-2.537,80.817-4.1,121.156-1.636,14.549.89,29.55,2.252,43.373-2.3,15.413-5.075,27.771-17.26,35.068-31.543s9.9-30.523,9.915-46.507c.02-24.375-6-49.069-19.467-69.532-10.381-15.77-24.868-28.359-40.552-38.872-15.263-10.232-32.183-17.677-48.076-26.861Q1727.066,651.246,1725.388,650.16Z" transform="translate(-451.578 -130.221)" fill="#e6f4f1" opacity="0.541"/>
    <g id="Group_2194" data-name="Group 2194" transform="translate(-17964.754 -8003.647)">
      <g id="Group_2193" data-name="Group 2193" transform="translate(19073.795 8541.147)">
        <path id="Path_1561" data-name="Path 1561" d="M535.521,328.322H291.284a3.512,3.512,0,0,0-3.509,3.509v165.5a3.512,3.512,0,0,0,3.509,3.509H535.521a3.506,3.506,0,0,0,2.668-1.231.828.828,0,0,0,.076-.1,3.288,3.288,0,0,0,.5-.849,3.424,3.424,0,0,0,.265-1.332v-165.5A3.513,3.513,0,0,0,535.521,328.322Zm-244.237,1Z" transform="translate(-287.775 -328.322)" fill="#fff"/>
        <g id="Group_2082" data-name="Group 2082" transform="translate(0 0)">
          <path id="Path_1536" data-name="Path 1536" d="M535.521,328.322H291.284a3.512,3.512,0,0,0-3.509,3.509v165.5a3.512,3.512,0,0,0,3.509,3.509H535.521a3.506,3.506,0,0,0,2.668-1.231.828.828,0,0,0,.076-.1,3.288,3.288,0,0,0,.5-.849,3.424,3.424,0,0,0,.265-1.332v-165.5A3.513,3.513,0,0,0,535.521,328.322Zm2.511,169.011a2.484,2.484,0,0,1-.414,1.376,2.594,2.594,0,0,1-.95.853,2.488,2.488,0,0,1-1.147.278H291.284a2.51,2.51,0,0,1-2.507-2.507v-165.5a2.51,2.51,0,0,1,2.507-2.507H535.521a2.511,2.511,0,0,1,2.511,2.507Z" transform="translate(-287.775 -328.322)" fill="#ecf6f4"/>
          <rect id="Rectangle_553" data-name="Rectangle 553" width="250.255" height="1.003" transform="translate(0.5 14.062)" fill="#ecf6f4"/>
          <ellipse id="Ellipse_42" data-name="Ellipse 42" cx="3.009" cy="3.009" rx="3.009" ry="3.009" transform="translate(6.017 4.514)" fill="#b3ddd3"/>
          <ellipse id="Ellipse_43" data-name="Ellipse 43" cx="3.009" cy="3.009" rx="3.009" ry="3.009" transform="translate(14.668 4.514)" fill="#b3ddd3"/>
          <ellipse id="Ellipse_44" data-name="Ellipse 44" cx="3.009" cy="3.009" rx="3.009" ry="3.009" transform="translate(23.319 4.514)" fill="#b3ddd3"/>
          <path id="Path_1537" data-name="Path 1537" d="M558.878,544.121c-3.009-1.959-4.506-6.512-3.769-10.675a12.875,12.875,0,0,1,6.843-9.3,10.723,10.723,0,0,1,10.151.721c3.053,1.867,7.37,2.889,8.82,6.624,1.114,2.87-.3,8.7-1.8,11.486a8.505,8.505,0,0,1-6.072,3.99,18.244,18.244,0,0,1-14.754-3.4Z" transform="translate(-447.432 -444.788)" fill="#2f2e41"/>
          <path id="Path_1538" data-name="Path 1538" d="M257.807,483.863l-2.406,4.148-.318.547-.463.8h-7.094l.479-.8,1.239-2.088,2.889-4.877L255.4,482.9Z" transform="translate(-147.93 -362.417)" fill="#ffb8b8"/>
          <path id="Path_1539" data-name="Path 1539" d="M531.818,616.173l-1.3-.8-.161-.1,8.132-14.819a5.525,5.525,0,0,1,3.319-2.664,5.463,5.463,0,0,1,2.728-.1,5.372,5.372,0,0,1,1.5.563,5.246,5.246,0,0,1,.559.354,5.371,5.371,0,0,1,1.65,1.859,5.559,5.559,0,0,1-.169,5.613l-3.134,5.009-2.68,4.285-.5.8h-9.951Z" transform="translate(-432.752 -489.226)" fill="#2f2e41"/>
          <ellipse id="Ellipse_45" data-name="Ellipse 45" cx="9.883" cy="9.883" rx="9.883" ry="9.883" transform="translate(110.075 84.827)" fill="#ffb8b8"/>
          <path id="Path_1540" data-name="Path 1540" d="M576.879,614.384H554.664l.1-.286q-.085-.26-.157-.519c-.052-.181-.1-.366-.137-.547a12.147,12.147,0,0,1,0-5.11C555.7,601.895,560.6,597,560.6,597c.085-.064.169-.125.253-.185a11.18,11.18,0,0,1,2.354-1.32,15.022,15.022,0,0,1,10.015-.121,19.98,19.98,0,0,1,2.611.994c.3.141.459.229.459.229l.253,7.729.306,9.254Z" transform="translate(-447 -487.437)" fill="#1e9a7d"/>
          <path id="Path_1541" data-name="Path 1541" d="M615.405,612.113l-1.7-8.635-1.714-8.707a1.819,1.819,0,0,0-1.469-1.437l-3.589-.62-3.34-.575a1.794,1.794,0,0,0-1.734.664,1.774,1.774,0,0,0-.39,1.1,1.818,1.818,0,0,0,.149.72c1.742,4.064,1.775,10.5,1.332,17.487-.02.266-.036.535-.056.8h12.671Z" transform="translate(-475.25 -485.971)" fill="#2f2e41"/>
          <path id="Path_1542" data-name="Path 1542" d="M552.807,594.828a1.822,1.822,0,0,0-2.877-1l-1.541,1.4-6.309,5.746a1.747,1.747,0,0,0-.451.64c-.712,1.7-2.1,5.062-3.714,9.21l-.809,2.088c-.1.266-.2.535-.306.8h10.4c.085-.27.169-.539.253-.8.463-1.461.913-2.893,1.348-4.285,1.271-4.044,2.418-7.718,3.3-10.623q.368-1.207.672-2.229A1.824,1.824,0,0,0,552.807,594.828Z" transform="translate(-436.601 -486.772)" fill="#2f2e41"/>
          <path id="Path_1543" data-name="Path 1543" d="M341.229,486.364h.672l-.093-.225-.245-.579-3.786-8.985-.579.35-4.651,2.813,2.386,5.822.33.8h5.967Z" transform="translate(-198.74 -359.416)" fill="#ffb8b8"/>
          <path id="Path_1544" data-name="Path 1544" d="M616.382,596.468a5.561,5.561,0,0,0-6.965-3.287,4.99,4.99,0,0,0-.511.2,5.491,5.491,0,0,0-2.342,1.984,5.316,5.316,0,0,0-.575,1.115,5.529,5.529,0,0,0,.125,4.253l1.163,2.591,4.16,9.255.362.8h8.422l.579-.225,1.5-.579.209-.081Z" transform="translate(-477.731 -486.436)" fill="#2f2e41"/>
          <path id="Path_1545" data-name="Path 1545" d="M598.056,527.015a1.635,1.635,0,0,0,1.86-.706,2.354,2.354,0,0,0,.136-2.07,4.321,4.321,0,0,0-1.286-1.7,4.993,4.993,0,0,0-2.26-1.17,3,3,0,0,0-2.435.535,2.164,2.164,0,0,0-.735,2.3,3.191,3.191,0,0,0,1.641,1.61,10.9,10.9,0,0,0,4.441,1.263Z" transform="translate(-470.336 -443.656)" fill="#2f2e41"/>
          <path id="Path_1546" data-name="Path 1546" d="M582.8,546.162c-1.589.219-1.385-.59-2.021-2.062s-1.488-3.22-3.085-3.369c-1.309-.122-2.387.924-3.447,1.7a7.2,7.2,0,0,1-6.627,1.232c-2.19-.831-3.713-3.441-2.881-5.632a4.8,4.8,0,0,1,2.779-2.627,9.669,9.669,0,0,1,3.872-.538,19.976,19.976,0,0,1,8.395,2.149,8.115,8.115,0,0,1,4.234,4.122c.683,1.9,1.132,4.569-.82,5.083Z" transform="translate(-453.162 -451.748)" fill="#2f2e41"/>
          <path id="Path_1547" data-name="Path 1547" d="M602.023,515.092a3.324,3.324,0,0,1,1.148-4.156,5.63,5.63,0,0,1,4.542-.637,8.919,8.919,0,0,1,6.4,6.2c.651,2.391.264,4.958.815,7.374a9.676,9.676,0,0,0,12.161,7.132c1.651-.485,3.328-1.663,3.49-3.376a9.463,9.463,0,0,1-5.6,9.475,16.5,16.5,0,0,1-6.8.886,12.173,12.173,0,0,1-4.421-.71,7.914,7.914,0,0,1-4.158-4.508,12.527,12.527,0,0,1-.553-6.211c.227-1.621.677-3.21.8-4.841a6.72,6.72,0,0,0-1.119-4.665,3.585,3.585,0,0,0-4.358-1.155,10.551,10.551,0,0,1-1.663,1.048c-.625.206-1.51-.156-1.453-.812Z" transform="translate(-475.115 -436.957)" fill="#2f2e41"/>
          <path id="Path_1548" data-name="Path 1548" d="M770.781,603.232l.076-.8,2.269-23.611a14.451,14.451,0,0,1,2.386-1.517,14.065,14.065,0,0,1,11.616-.253,12.72,12.72,0,0,1,1.867.913l1.328,24.468.044.8Z" transform="translate(-576.435 -476.285)" fill="#1e9a7d"/>
          <ellipse id="Ellipse_46" data-name="Ellipse 46" cx="9.883" cy="9.883" rx="9.883" ry="9.883" transform="translate(195.091 76.482)" fill="#ffb8b8"/>
          <path id="Path_1549" data-name="Path 1549" d="M786.131,525.509a5.5,5.5,0,0,0,1.344-5.909,5.38,5.38,0,0,0-5.086-3.17,15.167,15.167,0,0,0-3.959,1.015,13.092,13.092,0,0,1-6.15.554,8.213,8.213,0,0,1-5.237-3.093,6.018,6.018,0,0,1-.74-5.9c1-2.182,3.327-3.385,5.518-4.362a10.085,10.085,0,0,1,2.8-.92,3.593,3.593,0,0,1,2.787.7c.616.53.977,1.326,1.647,1.785a5.531,5.531,0,0,0,2.644.594,10.141,10.141,0,0,1,8.786,7.465c1.092,4.073.618,8.777-2.805,11.239Z" transform="translate(-573.479 -433.118)" fill="#d0b892"/>
          <path id="Path_1550" data-name="Path 1550" d="M756.278,582.251l-1.473-4.088-.092-.255a.847.847,0,0,0-1.266-.417l-1.672,1.115s-10.723,0-11.584,6.434c-.012.1-.028.213-.04.334a.065.065,0,0,1,0,.016c-.109.422-2.132,8.245-3.871,17.9-.048.266-.1.535-.145.8h23.3C760.191,594.395,759.766,585.375,756.278,582.251Z" transform="translate(-555.727 -477.148)" fill="#2f2e41"/>
          <path id="Path_1551" data-name="Path 1551" d="M821.579,603.291c-1.271-9.906-3.09-17.917-3.09-17.917-.016-.121-.032-.233-.044-.334-.857-6.434-11.58-6.434-11.58-6.434l-1.671-1.114a.847.847,0,0,0-1.266.418l-1.565,4.341c-3.489,3.124-3.913,12.144-3.155,21.844H821.68C821.648,603.827,821.612,603.557,821.579,603.291Z" transform="translate(-593.233 -477.149)" fill="#2f2e41"/>
          <path id="Path_1552" data-name="Path 1552" d="M372.922,585.134l-2.39,22.557-.085.8h-6.466c.076-.262.153-.531.233-.8,1.835-6.293,4.333-15.479,4.064-17.913a4.764,4.764,0,0,1,2.535-5.066l.185.036Z" transform="translate(-333.318 -481.549)" fill="#1e9a7d"/>
          <ellipse id="Ellipse_47" data-name="Ellipse 47" cx="9.883" cy="9.883" rx="9.883" ry="9.883" transform="translate(40.149 76.858)" fill="#a0616a"/>
          <path id="Path_1553" data-name="Path 1553" d="M402.573,598.786a16.2,16.2,0,0,0-1.219,2.881c-.117.354-.229.724-.334,1.1-.076.262-.145.531-.213.8H374.741c.036-.266.068-.535.1-.8,1.332-10.522,2.41-21.2,2.583-22.943.016-.165.024-.249.024-.249,15.62-8.232,27.019,2.535,27.019,2.535s.016.076.04.225C404.762,583.842,406.033,592.63,402.573,598.786Z" transform="translate(-339.749 -476.627)" fill="#1e9a7d"/>
          <path id="Path_1554" data-name="Path 1554" d="M438.3,610.33l-1.738-3.726.422-14.775,4.474-.829.157-.028a11.848,11.848,0,0,1,5.078,5.923c.869,2.173,2.523,8.707,3.919,14.538.064.27.129.539.193.8H439.189l-.374-.8Z" transform="translate(-376.695 -485.29)" fill="#1e9a7d"/>
          <path id="Path_1555" data-name="Path 1555" d="M388.649,478.822H331.5a4.629,4.629,0,0,0-4.623,4.623v57.144a4.629,4.629,0,0,0,4.623,4.623h57.144a4.626,4.626,0,0,0,4.623-4.623V483.445A4.626,4.626,0,0,0,388.649,478.822Zm3.818,61.768a3.822,3.822,0,0,1-3.818,3.818H331.5a3.824,3.824,0,0,1-3.819-3.818V483.445a3.824,3.824,0,0,1,3.819-3.818h57.144a3.822,3.822,0,0,1,3.818,3.818Zm-44.108,3.818-.084.8H372.2c.068-.274.137-.543.213-.8Z" transform="translate(-311.146 -418.266)" fill="#3f3d56"/>
          <path id="Path_1556" data-name="Path 1556" d="M579.259,478.822H522.114a4.629,4.629,0,0,0-4.623,4.623v57.144a4.629,4.629,0,0,0,4.623,4.623h57.144a4.626,4.626,0,0,0,4.623-4.623V483.445A4.626,4.626,0,0,0,579.259,478.822Zm3.818,61.768a3.822,3.822,0,0,1-3.818,3.818H522.114a3.824,3.824,0,0,1-3.819-3.818V483.445a3.824,3.824,0,0,1,3.819-3.818h57.144a3.822,3.822,0,0,1,3.818,3.818Zm-50.409,3.818q.073.26.157.519l-.1.286h19.982c.02-.27.036-.539.056-.8Z" transform="translate(-425.061 -418.266)" fill="#3f3d56"/>
          <path id="Path_1557" data-name="Path 1557" d="M769.879,478.822H712.734a4.626,4.626,0,0,0-4.623,4.623v57.144a4.626,4.626,0,0,0,4.623,4.623h57.144a4.629,4.629,0,0,0,4.623-4.623V483.445A4.629,4.629,0,0,0,769.879,478.822Zm3.818,61.768a3.824,3.824,0,0,1-3.818,3.818H712.734a3.822,3.822,0,0,1-3.819-3.818V483.445a3.822,3.822,0,0,1,3.819-3.818h57.144a3.824,3.824,0,0,1,3.818,3.818Zm-30.95,3.818c-.02.266-.04.535-.06.8h17.338c.032-.266.068-.535.1-.8Z" transform="translate(-538.982 -418.266)" fill="#3f3d56"/>
          <path id="Path_1558" data-name="Path 1558" d="M563,692.26H430.215a3.219,3.219,0,1,1,0-6.438H563a3.219,3.219,0,1,1,0,6.438Z" transform="translate(-370.978 -541.975)" fill="#ecf6f4"/>
          <path id="Path_1560" data-name="Path 1560" d="M397.593,532a1.953,1.953,0,0,0,2.553.164,17.353,17.353,0,0,0,5.584-6.5,10.5,10.5,0,0,0-.131-9.544c-1.413-2.413-3.909-3.971-6.4-5.249a11.373,11.373,0,0,0-3.088-1.19,4.4,4.4,0,0,0-3.2.516,2.763,2.763,0,0,0-1.248,2.853,10.4,10.4,0,0,0-4.439-2.98,5.741,5.741,0,0,0-3.39-.246,5.557,5.557,0,0,0-3.361,3.365,6.729,6.729,0,0,0-.508,3.672,4.485,4.485,0,0,0,1.96,3.072,6.051,6.051,0,0,0,4.468.419,37.835,37.835,0,0,1,4.477-1.049,4.63,4.63,0,0,1,4.158,1.457,6.348,6.348,0,0,1,.97,3.054l.764,5.568a6.793,6.793,0,0,0,.608,2.327A1.343,1.343,0,0,0,397.593,532Z" transform="translate(-342.834 -436.644)" fill="#2f2e41"/>
          <g id="Group_2083" data-name="Group 2083" transform="translate(73.829 30.008)">
            <ellipse id="Ellipse_48" data-name="Ellipse 48" cx="1" cy="0.5" rx="1" ry="0.5" transform="translate(0.129 0.492)" fill="#ecf6f4"/>
            <rect id="Rectangle_554" data-name="Rectangle 554" width="95" height="1" rx="0.5" transform="translate(4.129 0.492)" fill="#ecf6f4"/>
          </g>
          <g id="Group_2084" data-name="Group 2084" transform="translate(73.829 38.318)">
            <circle id="Ellipse_48-2" data-name="Ellipse 48" cx="1" cy="1" r="1" transform="translate(0.129 0.182)" fill="#ecf6f4"/>
            <rect id="Rectangle_554-2" data-name="Rectangle 554" width="95" height="1" rx="0.5" transform="translate(4.129 0.182)" fill="#ecf6f4"/>
          </g>
          <g id="Group_2085" data-name="Group 2085" transform="translate(73.829 45.705)">
            <ellipse id="Ellipse_48-3" data-name="Ellipse 48" cx="1" cy="1.5" rx="1" ry="1.5" transform="translate(0.129 -0.205)" fill="#ecf6f4"/>
            <rect id="Rectangle_554-3" data-name="Rectangle 554" width="95" height="2" rx="1" transform="translate(4.129 0.795)" fill="#ecf6f4"/>
          </g>
        </g>
      </g>
    </g>
  </g>
</svg>
