<svg xmlns="http://www.w3.org/2000/svg" width="57.509" height="66.555" viewBox="0 0 57.509 66.555">
  <path id="Path_218" data-name="Path 218" d="M294.9,242l-28.819,16.639v33.277L294.9,308.552l28.69-16.615V258.659Zm-2.306,59.079c0,.359-.255.506-.566.327l-3.48-2.009a1.255,1.255,0,0,1-.566-.98V281.942l-14.549,8.4a.628.628,0,0,1-.566,0l-1.74-1a.628.628,0,0,1-.283-.49v-2.008a.628.628,0,0,1,.283-.49l14.549-8.4-14.266-8.237a1.255,1.255,0,0,1-.566-.98v-4.018c0-.359.255-.507.566-.327l20.618,11.9a1.258,1.258,0,0,1,.566.981Zm1.739-28.779-20.62-11.905a.345.345,0,0,1,0-.653l3.479-2.009a1.254,1.254,0,0,1,1.132,0l14.269,8.238v-16.8a.628.628,0,0,1,.283-.49l1.74-1a.629.629,0,0,1,.566,0l1.739,1a.628.628,0,0,1,.283.49v16.8l14.268-8.238a1.254,1.254,0,0,1,1.132,0l3.48,2.009a.345.345,0,0,1,0,.653L295.463,272.3A1.258,1.258,0,0,1,294.331,272.3Zm24.622,16.921-3.566,2.059c0-6.811-3.048-9.681-6.808-7.84s-6.807,5.907-6.807,15.7l-4.5,2.6v-16l21.683-12.579Zm0-20.1-21.683,12.518v-4.989l21.683-12.579Z" transform="translate(-266.078 -241.997)" fill="#1e9a7d"/>
</svg>
