<svg xmlns="http://www.w3.org/2000/svg" width="100.082" height="110.789" viewBox="0 0 100.082 110.789">
  <g id="Group_2347" data-name="Group 2347" transform="translate(-397.459 -765.752)">
    <path id="Path_2311" data-name="Path 2311" d="M50.041,0A50.041,50.041,0,1,1,0,50.041,50.041,50.041,0,0,1,50.041,0Z" transform="translate(397.459 776.459)" fill="#a1d4c8"/>
    <g id="Group_2346" data-name="Group 2346" transform="translate(-397.345 -647.121)">
      <path id="Path_2781" data-name="Path 2781" d="M386.649,85.873,353.51,126.082l49.046,57.883,32.7-38.441Z" transform="translate(441.516 1327)" fill="#56b39d"/>
      <path id="Path_2782" data-name="Path 2782" d="M402.556,183.965l32.7-38.441Z" transform="translate(441.516 1327)" fill="#56b39d" opacity="0.1"/>
      <path id="Path_2783" data-name="Path 2783" d="M439.739,304.466h0a16.657,16.657,0,0,1,2.7-3.608L472.878,270s10.6-1.767,12.814,3.535l-38.883,31.814Z" transform="translate(356.613 1149.058)" fill="#f2f2f2"/>
      <path id="Path_2784" data-name="Path 2784" d="M434.805,301.519l45.069,68.93s4.419,3.093,8.837,1.326l46.174-31.151L485.84,266.392l-44.186,34.465Z" transform="translate(360 1151.342)" fill="#454545"/>
      <rect id="Rectangle_942" data-name="Rectangle 942" width="34.826" height="0.716" transform="matrix(0.812, -0.584, 0.584, 0.812, 812.049, 1448.812)" fill="#56b39d"/>
      <rect id="Rectangle_943" data-name="Rectangle 943" width="0.716" height="67.28" transform="matrix(0.834, -0.552, 0.552, 0.834, 811.078, 1456.814)" fill="#56b39d"/>
      <rect id="Rectangle_944" data-name="Rectangle 944" width="37.294" height="0.716" transform="translate(852.7 1514.216) rotate(-36.344)" fill="#56b39d"/>
      <rect id="Rectangle_945" data-name="Rectangle 945" width="0.716" height="67.293" transform="translate(845.104 1429.867) rotate(-34.838)" fill="#56b39d"/>
      <rect id="Rectangle_946" data-name="Rectangle 946" width="47.457" height="0.442" transform="translate(798.854 1450.71) rotate(-42.545)" fill="#3f3d56"/>
      <rect id="Rectangle_947" data-name="Rectangle 947" width="48.744" height="0.442" transform="translate(800.189 1451.155) rotate(-41.439)" fill="#3f3d56"/>
      <rect id="Rectangle_948" data-name="Rectangle 948" width="49.384" height="0.442" transform="matrix(0.768, -0.64, 0.64, 0.768, 801.082, 1451.158)" fill="#3f3d56"/>
    </g>
  </g>
</svg>
