<svg xmlns="http://www.w3.org/2000/svg" width="100.082" height="100.082" viewBox="0 0 100.082 100.082">
  <g id="Group_2347" data-name="Group 2347" transform="translate(-397.459 -776.459)">
    <path id="Path_2311" data-name="Path 2311" d="M50.041,0A50.041,50.041,0,1,1,0,50.041,50.041,50.041,0,0,1,50.041,0Z" transform="translate(397.459 776.459)" fill="#363636"/>
    <g id="Group_2356" data-name="Group 2356" transform="translate(317.315 781.079)">
      <path id="Path_2786" data-name="Path 2786" d="M0,0H69.37V90.842H0Z" transform="translate(97.182)" fill="#56b39d"/>
      <rect id="Rectangle_950" data-name="Rectangle 950" width="61.112" height="16.517" transform="translate(101.311 4.707)" fill="#fff"/>
      <rect id="Rectangle_951" data-name="Rectangle 951" width="37.988" height="59.46" transform="translate(124.27 26.84)" fill="#a1d4c8"/>
      <rect id="Rectangle_952" data-name="Rectangle 952" width="15.43" height="1.16" transform="translate(127.269 10.879)" fill="#e6e6e6"/>
      <rect id="Rectangle_953" data-name="Rectangle 953" width="19.419" height="1.16" transform="translate(125.204 13.893)" fill="#e6e6e6"/>
      <rect id="Rectangle_954" data-name="Rectangle 954" width="15.43" height="1.16" transform="translate(134.866 40.561)" fill="#e6e6e6"/>
      <rect id="Rectangle_955" data-name="Rectangle 955" width="23.828" height="1.16" transform="translate(134.866 43.966)" fill="#56b39d"/>
      <rect id="Rectangle_956" data-name="Rectangle 956" width="19.419" height="1.16" transform="translate(135.114 47.208)" fill="#e6e6e6"/>
      <rect id="Rectangle_957" data-name="Rectangle 957" width="11.337" height="1.16" transform="translate(134.866 50.766)" fill="#e6e6e6"/>
      <rect id="Rectangle_958" data-name="Rectangle 958" width="17.11" height="1.16" transform="translate(134.866 54.241)" fill="#56b39d"/>
      <rect id="Rectangle_959" data-name="Rectangle 959" width="1.889" height="1.889" transform="translate(127.833 40.196)" fill="#e6e6e6"/>
      <rect id="Rectangle_960" data-name="Rectangle 960" width="1.889" height="1.889" transform="translate(127.833 43.601)" fill="#56b39d"/>
      <rect id="Rectangle_961" data-name="Rectangle 961" width="1.889" height="1.889" transform="translate(127.833 46.843)" fill="#e6e6e6"/>
      <rect id="Rectangle_962" data-name="Rectangle 962" width="1.889" height="1.889" transform="translate(127.833 50.401)" fill="#e6e6e6"/>
      <rect id="Rectangle_963" data-name="Rectangle 963" width="1.889" height="1.889" transform="translate(127.833 53.876)" fill="#56b39d"/>
      <rect id="Rectangle_964" data-name="Rectangle 964" width="15.43" height="1.16" transform="translate(134.866 57.738)" fill="#e6e6e6"/>
      <rect id="Rectangle_965" data-name="Rectangle 965" width="23.828" height="1.16" transform="translate(134.866 61.143)" fill="#454545"/>
      <rect id="Rectangle_966" data-name="Rectangle 966" width="19.419" height="1.16" transform="translate(135.114 64.385)" fill="#e6e6e6"/>
      <rect id="Rectangle_967" data-name="Rectangle 967" width="11.337" height="1.16" transform="translate(134.866 67.943)" fill="#e6e6e6"/>
      <rect id="Rectangle_968" data-name="Rectangle 968" width="17.11" height="1.16" transform="translate(134.866 71.419)" fill="#e6e6e6"/>
      <rect id="Rectangle_969" data-name="Rectangle 969" width="1.889" height="1.889" transform="translate(127.833 57.373)" fill="#e6e6e6"/>
      <rect id="Rectangle_970" data-name="Rectangle 970" width="1.889" height="1.889" transform="translate(127.833 60.778)" fill="#454545"/>
      <rect id="Rectangle_971" data-name="Rectangle 971" width="1.889" height="1.889" transform="translate(127.833 64.021)" fill="#e6e6e6"/>
      <rect id="Rectangle_972" data-name="Rectangle 972" width="1.889" height="1.889" transform="translate(127.833 67.578)" fill="#e6e6e6"/>
      <rect id="Rectangle_973" data-name="Rectangle 973" width="1.889" height="1.889" transform="translate(127.833 71.054)" fill="#e6e6e6"/>
      <path id="Path_2785" data-name="Path 2785" d="M314.247,215.1a4.91,4.91,0,1,0,4.91,4.91A4.91,4.91,0,0,0,314.247,215.1Zm0,1.473a1.473,1.473,0,1,1-1.473,1.473A1.473,1.473,0,0,1,314.247,216.575Zm0,7.091a3.577,3.577,0,0,1-2.946-1.572c.024-.982,1.964-1.523,2.946-1.523s2.923.541,2.946,1.523A3.583,3.583,0,0,1,314.247,223.667Z" transform="translate(-202.879 -207.047)" fill="#454545"/>
    </g>
  </g>
</svg>
