<svg xmlns="http://www.w3.org/2000/svg" width="758.184" height="496.207" viewBox="0 0 758.184 496.207">
  <g id="Group_2457" data-name="Group 2457" transform="translate(-190 -2057.734)">
    <path id="Path_1841" data-name="Path 1841" d="M10358.32,2138.439s-5.111,39.893,17.985,60.45" transform="translate(-9718)" fill="none" stroke="#8eccbd" stroke-width="1.4"/>
    <g id="Group_2134" data-name="Group 2134" transform="translate(242.611 2057.734)">
      <path id="Icon_awesome-user-alt" data-name="Icon awesome-user-alt" d="M16.122,18.137A9.069,9.069,0,1,0,7.053,9.069,9.071,9.071,0,0,0,16.122,18.137Zm8.061,2.015h-3.47a10.963,10.963,0,0,1-9.182,0H8.061A8.06,8.06,0,0,0,0,28.214v1.008a3.024,3.024,0,0,0,3.023,3.023h26.2a3.024,3.024,0,0,0,3.023-3.023V28.214A8.06,8.06,0,0,0,24.183,20.153Z" transform="translate(300.325 266.62)" fill="#1e9a7d"/>
      <path id="Path_1790" data-name="Path 1790" d="M484.787,219.21H322.811a3,3,0,0,1-3-3V176.032a3,3,0,0,1,3-3H484.787a3,3,0,0,1,3,3v40.179A3,3,0,0,1,484.787,219.21ZM322.811,174.232a1.8,1.8,0,0,0-1.8,1.8v40.179a1.8,1.8,0,0,0,1.8,1.8H484.787a1.8,1.8,0,0,0,1.8-1.8V176.032a1.8,1.8,0,0,0-1.8-1.8Z" transform="translate(-181.992 -113.452)" fill="#c6e5de"/>
      <path id="Path_1837" data-name="Path 1837" d="M12.219,0A12.219,12.219,0,1,1,0,12.219,12.219,12.219,0,0,1,12.219,0Z" transform="translate(153.768 68.909)" fill="#1e9a7d"/>
      <path id="Path_1791" data-name="Path 1791" d="M401.794,192.745a2.036,2.036,0,1,0,0,4.073h96a2.036,2.036,0,1,0,0-4.073Z" transform="translate(-207.588 -119.764)" fill="#d9eee9"/>
      <path id="Path_1792" data-name="Path 1792" d="M401.794,210.718a2.036,2.036,0,0,0,0,4.073H443.1a2.036,2.036,0,1,0,0-4.073Z" transform="translate(-207.588 -125.518)" fill="#d9eee9"/>
      <path id="Path_1793" data-name="Path 1793" d="M423.728,413.493H351.739a3,3,0,0,1-3-3V335.52a3,3,0,0,1,3-3h71.989a3,3,0,0,1,3,3v74.974A3,3,0,0,1,423.728,413.493ZM351.739,333.72a1.8,1.8,0,0,0-1.8,1.8v74.974a1.8,1.8,0,0,0,1.8,1.8h71.989a1.8,1.8,0,0,0,1.8-1.8V335.52a1.8,1.8,0,0,0-1.8-1.8Z" transform="translate(-191.254 -164.515)" fill="#c6e5de"/>
      <path id="Path_1794" data-name="Path 1794" d="M374.756,355.263a2.036,2.036,0,1,0,0,4.073h41.31a2.036,2.036,0,1,0,0-4.073Z" transform="translate(-198.932 -171.796)" fill="#d9eee9"/>
      <path id="Path_1795" data-name="Path 1795" d="M374.756,372.911a2.036,2.036,0,1,0,0,4.073h41.31a2.036,2.036,0,0,0,0-4.073Z" transform="translate(-198.932 -177.446)" fill="#d9eee9"/>
      <path id="Path_1797" data-name="Path 1797" d="M631.1,85.393H703.09a3,3,0,0,1,3,3v74.974a3,3,0,0,1-3,3H631.1a3,3,0,0,1-3-3V88.393a3,3,0,0,1,3-3Zm71.989,79.773a1.8,1.8,0,0,0,1.8-1.8V88.393a1.8,1.8,0,0,0-1.8-1.8H631.1a1.8,1.8,0,0,0-1.8,1.8v74.974a1.8,1.8,0,0,0,1.8,1.8Z" transform="translate(-280.696 -85.393)" fill="#c6e5de"/>
      <path id="Path_1798" data-name="Path 1798" d="M695.428,179.84a2.036,2.036,0,1,0,0-4.073h-41.31a2.036,2.036,0,1,0,0,4.073Z" transform="translate(-288.373 -114.328)" fill="#d9eee9"/>
      <path id="Path_1799" data-name="Path 1799" d="M695.428,162.191a2.036,2.036,0,1,0,0-4.073h-41.31a2.036,2.036,0,1,0,0,4.073Z" transform="translate(-288.373 -108.677)" fill="#d9eee9"/>
      <path id="Path_1800" data-name="Path 1800" d="M679.422,108.135A12.818,12.818,0,1,1,666.6,120.954a12.818,12.818,0,0,1,12.818-12.818Z" transform="translate(-293.023 -92.674)" fill="#1e9a7d"/>
      <path id="Path_1801" data-name="Path 1801" d="M320.473,302.665a102.623,102.623,0,0,1,43.445-19.64,101.139,101.139,0,0,1,47.947,2.464,102.288,102.288,0,0,1,22.375,9.7,130.2,130.2,0,0,1,19.905,14.832c6.322,5.541,12.436,11.328,19.036,16.544A106.647,106.647,0,0,0,539.536,349.9q2.989,0,5.974-.165c1.079-.059,1.086-1.745,0-1.686a104.928,104.928,0,0,1-68.593-20.727c-6.84-5.115-13.086-10.963-19.462-16.631a150.54,150.54,0,0,0-19.543-15.254,103.239,103.239,0,0,0-113.982,2.6c-1.583,1.1-3.129,2.25-4.65,3.434-.855.666.346,1.851,1.192,1.192Z" transform="translate(-181.728 -147.556)" fill="#8eccbd"/>
      <circle id="Ellipse_110" data-name="Ellipse 110" cx="8.76" cy="8.76" r="8.76" transform="translate(129.089 145.737)" fill="#8eccbd"/>
      <circle id="Ellipse_111" data-name="Ellipse 111" cx="8.76" cy="8.76" r="8.76" transform="translate(454.987 262.049)" fill="#8eccbd"/>
      <path id="Path_1802" data-name="Path 1802" d="M798.009,372.483H655.069a3,3,0,0,1-3-3V295.11a3,3,0,0,1,3-3h142.94a3,3,0,0,1,3,3v74.374a3,3,0,0,1-3,3ZM655.069,293.31a1.8,1.8,0,0,0-1.8,1.8v74.374a1.8,1.8,0,0,0,1.8,1.8h142.94a1.8,1.8,0,0,0,1.8-1.8V295.11a1.8,1.8,0,0,0-1.8-1.8Z" transform="translate(-288.37 -151.577)" fill="#c6e5de"/>
      <circle id="Ellipse_112" data-name="Ellipse 112" cx="12.219" cy="12.219" r="12.219" transform="translate(378.449 154.662)" fill="#1e9a7d"/>
      <path id="Path_1803" data-name="Path 1803" d="M732.287,318.883a2.036,2.036,0,1,0,0,4.073h76.967a2.036,2.036,0,1,0,0-4.073Z" transform="translate(-313.401 -160.148)" fill="#d9eee9"/>
      <path id="Path_1804" data-name="Path 1804" d="M732.287,336.856a2.036,2.036,0,1,0,0,4.073H773.6a2.036,2.036,0,1,0,0-4.073Z" transform="translate(-313.401 -165.903)" fill="#d9eee9"/>
      <path id="Path_1805" data-name="Path 1805" d="M676.629,365.589c-1.549,0-2.81.914-2.81,2.036s1.261,2.036,2.81,2.036H790.048c1.549,0,2.81-.914,2.81-2.036s-1.261-2.036-2.81-2.036Z" transform="translate(-295.333 -175.102)" fill="#d9eee9"/>
      <path id="Path_1806" data-name="Path 1806" d="M676.629,383.562c-1.549,0-2.81.914-2.81,2.036s1.261,2.036,2.81,2.036H790.048c1.549,0,2.81-.914,2.81-2.036s-1.261-2.036-2.81-2.036Z" transform="translate(-295.333 -180.856)" fill="#d9eee9"/>
      <path id="Path_1807" data-name="Path 1807" d="M638.972,490.593c8.064-3.5,17.068-.448,24.668,2.776,3.915,1.661,7.787,3.433,11.839,4.744a67.478,67.478,0,0,0,10.438,2.474,73.761,73.761,0,0,0,21.442.131,74.863,74.863,0,0,0,20.692-6.017,69.969,69.969,0,0,0,17.909-11.709q1.018-.919,2-1.881c.776-.76-.416-1.952-1.192-1.192a67.98,67.98,0,0,1-17.47,12.333,73.184,73.184,0,0,1-20.3,6.521,71.681,71.681,0,0,1-21.389.369,67.332,67.332,0,0,1-10.472-2.277,110.789,110.789,0,0,1-11.559-4.489c-7.672-3.295-16.2-6.521-24.626-4.249a20.542,20.542,0,0,0-2.828,1.01c-.993.431-.135,1.883.851,1.455Z" transform="translate(-283.763 -211.629)" fill="#8eccbd"/>
      <path id="Path_1809" data-name="Path 1809" d="M599.776,504.387H527.786a3,3,0,0,1-3-3V461.209a3,3,0,0,1,3-3h71.989a3,3,0,0,1,3,3v40.179A3,3,0,0,1,599.776,504.387Zm-71.989-44.978a1.8,1.8,0,0,0-1.8,1.8v40.179a1.8,1.8,0,0,0,1.8,1.8h71.989a1.8,1.8,0,0,0,1.8-1.8V461.209a1.8,1.8,0,0,0-1.8-1.8Z" transform="translate(-247.618 -204.756)" fill="#c6e5de"/>
      <path id="Path_1810" data-name="Path 1810" d="M831.483,450.769l-12.832,6.516c-4.58,2.326-9,1.928-10.693-2.922h0a8.485,8.485,0,0,1,6.454-11.137l12.2-2.277,52.231-17.329,31.64-22.435,11.6,18.478-36.559,19.727Z" transform="translate(-338.128 -186.499)" fill="#ffb8b8"/>
      <path id="Path_1811" data-name="Path 1811" d="M809.184,697.368l-9.818-1.636,1.091-18.545h10.363Z" transform="translate(-255.929 -216.811)" fill="#ffb8b8"/>
      <path id="Path_1812" data-name="Path 1812" d="M946.016,671.4l-9.5,2.964-7.384-17.045,9.251-4.671Z" transform="translate(-297.475 -208.954)" fill="#ffb8b8"/>
      <path id="Path_1813" data-name="Path 1813" d="M1011.916,658.5l-12,4.909-57.27-75.268-18,88.359-12-2.182c-7.7-76.177-13.974-153.877-6.272-190.625l44.452-1.909,20.181,64.36,9.818,43.634Z" transform="translate(-368.666 -212.302)" fill="#2f2e41"/>
      <path id="Path_1814" data-name="Path 1814" d="M919.005,803.714h0a8.615,8.615,0,0,1-5.34-.568l-5.832-2.624c-4.89-.251-8.22.723-10.943-2.83a7.136,7.136,0,0,1-.833-7.194h0a7.185,7.185,0,0,1,5.868-4.269l8.01-5.048.42,3.784c3.661,2.074,8.008,1.178,12.614-.841l2.514,8.8a8.615,8.615,0,0,1-6.478,10.79Z" transform="translate(-366.29 -308.16)" fill="#2f2e41"/>
      <path id="Path_1815" data-name="Path 1815" d="M1064.519,778.442h0a8.615,8.615,0,0,1-5.235,1.2l-6.368-.588c-4.707,1.35-7.54,3.353-11.269.877a7.136,7.136,0,0,1-3.124-6.533h0a7.185,7.185,0,0,1,4.163-5.944l5.938-7.375,1.626,3.443c4.136.773,7.956-1.486,11.657-4.891l5.235,7.506a8.615,8.615,0,0,1-2.624,12.309Z" transform="translate(-412.09 -300.939)" fill="#2f2e41"/>
      <circle id="Ellipse_113" data-name="Ellipse 113" cx="19.635" cy="19.635" r="19.635" transform="translate(546.165 152.757)" fill="#ffb8b8"/>
      <path id="Path_1816" data-name="Path 1816" d="M853.947,300.169l-25.635-5.454-3.272-21.271,18-3.818Z" transform="translate(-264.149 -86.324)" fill="#ffb8b8"/>
      <path id="Path_1817" data-name="Path 1817" d="M952.642,453.131H906.826L917.153,427.2c-.75-8.921,3.031-15.483,8.442-21.2l6.866-17.237c11.093-7.3,19.456-6.756,28.362,2.727C971.382,406.448,964.073,428.921,952.642,453.131Z" transform="translate(-369.934 -180.926)" fill="#1e9a7d"/>
      <path id="Path_1818" data-name="Path 1818" d="M936.17,522.9l-1.3,14.332c-.465,5.116-3.151,8.648-8.159,7.5h0a8.485,8.485,0,0,1-6-11.387l4.555-11.54,13.09-53.452-2.182-38.725h21.817l-2.727,41.452Z" transform="translate(-374.188 -195.606)" fill="#ffb8b8"/>
      <path id="Path_1819" data-name="Path 1819" d="M966.414,418.4H941.325l1.759-16.367a11.354,11.354,0,0,1,10.777-10.877h0a11.354,11.354,0,0,1,11.912,10.895Z" transform="translate(-380.979 -183.283)" fill="#1b8a70"/>
      <circle id="Ellipse_114" data-name="Ellipse 114" cx="7.38" cy="7.38" r="7.38" transform="translate(582.721 137.442)" fill="#2f2e41"/>
      <path id="Path_1820" data-name="Path 1820" d="M973.467,292.48a7.374,7.374,0,0,1,7.377-6.9c-.152-.019-.3-.043-.459-.053a7.38,7.38,0,0,0-.947,14.73c.155.01.308.006.462.006A7.375,7.375,0,0,1,973.467,292.48Z" transform="translate(-390.97 -149.465)" fill="#2f2e41"/>
      <path id="Path_1821" data-name="Path 1821" d="M953.916,299.445c-6.582-5.46-25.461,1.48-26.68,5.151-8.9,1.213-15.64,6.406-15.64,15.64h0c5.292,2.168,11.31,1.9,17.816,0,10.371,8.452,11.082,19.076,4.775,31.28l7.76.155,9.618-14.057.46,14.259,17.786-.357V331.081a42.721,42.721,0,0,0-4.561-19.572C962.479,306.124,958.177,302.98,953.916,299.445Z" transform="translate(-371.461 -153.278)" fill="#2f2e41"/>
      <ellipse id="Ellipse_115" data-name="Ellipse 115" cx="3.529" cy="4.941" rx="3.529" ry="4.941" transform="translate(562.363 172.387)" fill="#ffb8b8"/>
      <path id="Path_1822" data-name="Path 1822" d="M296.282,341.491s2.124-36.772,13.154-28.417-4.817,31.827-4.817,31.827Z" transform="translate(-174.459 -157.893)" fill="#ffb9b9"/>
      <path id="Path_1823" data-name="Path 1823" d="M232.011,515.9s24.5,27.5,10.793,29.395-19.1-25.911-19.1-25.911Z" transform="translate(-151.222 -223.226)" fill="#ffb9b9"/>
      <path id="Path_1824" data-name="Path 1824" d="M180.15,324.327h0a16.135,16.135,0,0,1,11.872,13.359l7.793,55.469L210.74,437.4s5.462,4.916,3.277,7.648,2.731,14.2,2.731,14.2l-13.656,4.37s-1.639-11.471-4.37-12.017c-2.4-.48-29.27-72.259-35.747-89.648-.893-2.4-1.4-3.761-1.4-3.761S162.67,321.6,180.15,324.327Z" transform="translate(-131.332 -161.845)" fill="#575a89"/>
      <path id="Path_1825" data-name="Path 1825" d="M187.647,749.885l8.388,14.865c6.5,13.868.723,16.388-15.2,9.513l-3.63-17.552Z" transform="translate(-136.334 -298.14)" fill="#ffb9b9"/>
      <path id="Path_1826" data-name="Path 1826" d="M190.025,776.345s3.982-6.483,5.422-5.4,7.381,5.787,7.381,5.787l7.738,7.411s26.142,2.764,9.531,11.923-25.791,1.565-25.791,1.565-23.266,1.21-22.89-5.281,7.879-16.76,7.879-16.76S188.75,781.933,190.025,776.345Z" transform="translate(-134.48 -304.844)" fill="#2f2e41"/>
      <path id="Path_1827" data-name="Path 1827" d="M137.815,496.93l7.864,95.152s.262,56.882,8.65,67.891,8.65,16.514,8.65,16.514l17.3-8.912s-8.912-14.851-7.077-17.124a12.671,12.671,0,0,0,2.359-4.895l-4.718-58.716,8.912-102.229Z" transform="translate(-123.724 -213.208)" fill="#2f2e41"/>
      <path id="Path_1828" data-name="Path 1828" d="M155.551,766.85" transform="translate(-129.402 -303.572)" fill="none" stroke="#3f3d56" stroke-miterlimit="10" stroke-width="1"/>
      <path id="Path_1829" data-name="Path 1829" d="M41.049,663.5l-7.34,19.4-16.645-6.959,8.781-14.536Z" transform="translate(-5.463 -211.759)" fill="#ffb9b9"/>
      <path id="Path_1830" data-name="Path 1830" d="M140.428,766.323s6.243-3.9,7.023-2.341,3.9,8.194,3.9,8.194l3.512,9.754s21.46,13.656,3.121,14.436-23.02-9.754-23.02-9.754-20.679-8.974-17.558-14.436,14.046-11.128,14.046-11.128S136.917,770.615,140.428,766.323Z" transform="translate(-117.087 -301.714)" fill="#2f2e41"/>
      <path id="Path_1831" data-name="Path 1831" d="M204.395,501.883l4.194,87.55s-38.271,79.162-42.465,81.259a10.529,10.529,0,0,0-5.243,6.291l-23.067-5.767L148.3,654.441l23.067-56.1s3.67-1.573,4.718-6.815,3.146-5.243-2.1-6.291-5.243-6.291-5.243-6.291l-17.3-79.687Z" transform="translate(-123.723 -217.899)" fill="#2f2e41"/>
      <circle id="Ellipse_116" data-name="Ellipse 116" cx="20.97" cy="20.97" r="20.97" transform="translate(37.74 142.999) rotate(-80.783)" fill="#ffb9b9"/>
      <path id="Path_1832" data-name="Path 1832" d="M178.824,272.159s-1.573,26.737-3.67,29.358,22.019,2.1,22.019,2.1-1.573-22.543,0-24.64S178.824,272.159,178.824,272.159Z" transform="translate(-135.637 -145.189)" fill="#ffb9b9"/>
      <path id="Path_1833" data-name="Path 1833" d="M204.979,444.781s-59.241-5.242-70.247,0c0,0,4.052-15.031,3-16.6-.761-1.149,1.339-43.965.68-68.663-.374-13.937-3.59-27.547,5.758-37.894,3.182-3.515,6.73-6.465,10.476-7.906,0,0-1.047-9.96,4.195-10.483,0,0,19.926-2.1,27.261,4.195,2.345,2,3.821,8.09,3.977,13.338-3.63,17.853-2.345,37.663.986,58.214.2,1.305.428,2.617.653,3.929C195.257,403.291,200.6,424.3,204.979,444.781Z" transform="translate(-122.736 -155.03)" fill="#1e9a7d"/>
      <path id="Path_1834" data-name="Path 1834" d="M185.423,261.358c1.773-.106,3.505.494,5.266.727a13.329,13.329,0,0,0,14.247-9.938,7.624,7.624,0,0,1,.729-2.374c.97-1.583,3.178-1.885,5-1.521s3.546,1.216,5.4,1.313a8.269,8.269,0,0,0,7.137-4.039,13.7,13.7,0,0,0,1.752-8.273l-1.372,1.44a6.971,6.971,0,0,1-.621-3.788,4.4,4.4,0,0,0-4.164,1.066c-1.21.129-.3-2.245-1.2-3.065a2.08,2.08,0,0,0-1.463-.274c-2.574.025-4.657-1.944-6.686-3.529a28.41,28.41,0,0,0-12-5.473,15.786,15.786,0,0,0-8.755.424,18.7,18.7,0,0,0-5.912,4.194c-4.316,4.15-8.138,9.027-9.934,14.739a24.812,24.812,0,0,0-.119,14.387c.724,2.442,2.9,10.805,6.1,11C182.839,268.619,180.431,261.656,185.423,261.358Z" transform="translate(-134.58 -129.52)" fill="#2f2e41"/>
      <path id="Path_1835" data-name="Path 1835" d="M197.733,328.181l7.513.8s7.375,14.308,6.839,17.293-1.7,1.173,1.617,5.947,12.738,17.117,13.9,18.929,32.964-22.449,30.987-29.718c0,0,10.043,7.2,14.345,8.164,0,0-32.77,42.978-37.337,48.478s-8.242,4.371-14.518,1.109S183.06,363.4,183.06,363.4Z" transform="translate(-138.21 -163.125)" fill="#1e9a7d"/>
      <path id="Path_1836" data-name="Path 1836" d="M206.264,407.279l-26.112-26.112,6.608-2.155,18.852,24.338C205.815,404.654,206.039,405.966,206.264,407.279Z" transform="translate(-137.278 -179.399)" opacity="0.1" style="isolation: isolate"/>
    </g>
    <path id="Path_1838" data-name="Path 1838" d="M802.654,659.4H604.51c-.287,0-.52-.448-.52-1s.233-1,.52-1H802.654c.287,0,.52.448.52,1S802.941,659.4,802.654,659.4Z" transform="translate(-413.99 1894.542)" fill="#3f3d56"/>
    <path id="Path_1840" data-name="Path 1840" d="M802.654,659.4H604.51c-.287,0-.52-.448-.52-1s.233-1,.52-1H802.654c.287,0,.52.448.52,1S802.941,659.4,802.654,659.4Z" transform="translate(145.01 1894.542)" fill="#3f3d56"/>
    <g id="Group_2136" data-name="Group 2136" transform="translate(-128.368 -235.539)">
      <g id="Group_2135" data-name="Group 2135" transform="translate(555.248 2507.152)">
        <path id="Path_1838-2" data-name="Path 1838" d="M422.689,142.225H399.248V118.784h15.906v.558H399.806v22.325h22.325V130.5h.558Z" transform="translate(-399.248 -117.018)" fill="#1e9a7d"/>
        <path id="Path_1839" data-name="Path 1839" d="M581.254,339.8c-.542-1.6-7.335-7.037-3.172-7.95L581.5,336.4l15.694-15.694,1.578,1.578Z" transform="translate(-569.654 -320.706)" fill="#1e9a7d"/>
      </g>
    </g>
  </g>
</svg>
