<svg xmlns="http://www.w3.org/2000/svg" width="191.364" height="66.555" viewBox="0 0 191.364 66.555">
  <g id="Group_120" data-name="Group 120" transform="translate(-266.078 -241.997)">
    <g id="Group_119" data-name="Group 119" transform="translate(341.548 261.808)">
      <path id="Path_212" data-name="Path 212" d="M392.266,303V276.388h14c5.067,0,7.66,3.232,7.66,6.783a5.943,5.943,0,0,1-4.588,6.1,6.4,6.4,0,0,1,5.107,6.5c0,4.03-2.633,7.222-7.74,7.222Zm15.879-18.832a2.8,2.8,0,0,0-3.112-2.793h-7.1v5.585h7.1C406.948,286.961,408.145,285.884,408.145,284.168Zm.519,10.812c0-1.675-1.2-3.032-3.392-3.032h-7.341v6.065h7.341C407.387,298.013,408.664,296.9,408.664,294.98Z" transform="translate(-392.266 -275.63)" fill="#001f37"/>
      <path id="Path_213" data-name="Path 213" d="M436.291,307.612V288.341h5.067v2.593a8.451,8.451,0,0,1,6.144-3.072v4.948a6.54,6.54,0,0,0-6.144,2.074v12.728Z" transform="translate(-409.961 -280.242)" fill="#001f37"/>
      <path id="Path_214" data-name="Path 214" d="M459.5,278.113a3.012,3.012,0,0,1,6.024,0,3.012,3.012,0,1,1-6.024,0Zm.479,24.378V283.22h5.066v19.271Z" transform="translate(-419.29 -275.121)" fill="#001f37"/>
      <path id="Path_215" data-name="Path 215" d="M489.594,303v-2.474a7.423,7.423,0,0,1-5.944,2.952c-4.828,0-8.539-3.67-8.539-10.134,0-6.264,3.631-10.094,8.539-10.094a7.309,7.309,0,0,1,5.944,2.953v-9.815H494.7V303Zm0-6.225v-6.822a5.492,5.492,0,0,0-4.349-2.194c-2.912,0-4.907,2.274-4.907,5.585,0,3.352,2,5.626,4.907,5.626A5.492,5.492,0,0,0,489.594,296.776Z" transform="translate(-425.563 -275.63)" fill="#001f37"/>
      <path id="Path_216" data-name="Path 216" d="M515.039,312.56l2.273-3.631a7.824,7.824,0,0,0,6.026,2.354c2.434,0,5.346-1.037,5.346-4.947V304.46a7.482,7.482,0,0,1-5.984,2.993c-4.788,0-8.5-3.352-8.5-9.776,0-6.3,3.631-9.815,8.5-9.815a7.384,7.384,0,0,1,5.984,2.953v-2.474h5.068v17.994c0,7.3-5.666,9.1-10.413,9.1A11.74,11.74,0,0,1,515.039,312.56Zm13.645-11.77v-6.264a5.7,5.7,0,0,0-4.349-2.154c-2.913,0-4.908,1.995-4.908,5.306s2,5.307,4.908,5.307A5.739,5.739,0,0,0,528.683,300.789Z" transform="translate(-441.274 -280.242)" fill="#001f37"/>
      <path id="Path_217" data-name="Path 217" d="M553.222,297.956a9.831,9.831,0,0,1,9.974-10.094c5.785,0,9.656,4.309,9.656,10.573v1.2H558.529c.358,2.354,2.274,4.309,5.545,4.309a8.059,8.059,0,0,0,5.107-1.875l2.274,3.352a12.012,12.012,0,0,1-7.94,2.673C557.651,308.091,553.222,304.141,553.222,297.956Zm9.974-5.944a4.444,4.444,0,0,0-4.708,4.109h9.5A4.416,4.416,0,0,0,563.2,292.012Z" transform="translate(-456.958 -280.242)" fill="#001f37"/>
    </g>
    <path id="Path_218" data-name="Path 218" d="M294.9,242l-28.819,16.639v33.277L294.9,308.552l28.69-16.615V258.659Zm-2.306,59.079c0,.359-.255.506-.566.327l-3.48-2.009a1.255,1.255,0,0,1-.566-.98V281.942l-14.549,8.4a.628.628,0,0,1-.566,0l-1.74-1a.628.628,0,0,1-.283-.49v-2.008a.628.628,0,0,1,.283-.49l14.549-8.4-14.266-8.237a1.255,1.255,0,0,1-.566-.98v-4.018c0-.359.255-.507.566-.327l20.618,11.9a1.258,1.258,0,0,1,.566.981Zm1.739-28.779-20.62-11.905a.345.345,0,0,1,0-.653l3.479-2.009a1.254,1.254,0,0,1,1.132,0l14.269,8.238v-16.8a.628.628,0,0,1,.283-.49l1.74-1a.629.629,0,0,1,.566,0l1.739,1a.628.628,0,0,1,.283.49v16.8l14.268-8.238a1.254,1.254,0,0,1,1.132,0l3.48,2.009a.345.345,0,0,1,0,.653L295.463,272.3A1.258,1.258,0,0,1,294.331,272.3Zm24.622,16.921-3.566,2.059c0-6.811-3.048-9.681-6.808-7.84s-6.807,5.907-6.807,15.7l-4.5,2.6v-16l21.683-12.579Zm0-20.1-21.683,12.518v-4.989l21.683-12.579Z" transform="translate(0 0)" fill="#1e9a7d"/>
  </g>
</svg>
